<svg xmlns="http://www.w3.org/2000/svg" xmlns:xlink="http://www.w3.org/1999/xlink" width="500" zoomAndPan="magnify" viewBox="0 0 375 374.999991" height="500" preserveAspectRatio="xMidYMid meet" version="1.0"><defs><filter x="0%" y="0%" width="100%" height="100%" id="bcc5fc2d67"><feColorMatrix values="0 0 0 0 1 0 0 0 0 1 0 0 0 0 1 0 0 0 1 0" color-interpolation-filters="sRGB"/></filter><mask id="93e315f689"><g filter="url(#bcc5fc2d67)"><rect x="-37.5" width="450" fill="#000000" y="-37.499999" height="449.999989" fill-opacity="0.35"/></g></mask><clipPath id="d6decb7b44"><path d="M 1 0.121094 L 7 0.121094 L 7 9 L 1 9 Z M 1 0.121094 " clip-rule="nonzero"/></clipPath><clipPath id="3b9b232a8b"><rect x="0" width="8" y="0" height="10"/></clipPath><mask id="cabc157876"><g filter="url(#bcc5fc2d67)"><rect x="-37.5" width="450" fill="#000000" y="-37.499999" height="449.999989" fill-opacity="0.35"/></g></mask><clipPath id="47bd9c5c40"><rect x="0" width="10" y="0" height="11"/></clipPath></defs><path fill="#faa327" d="M 294.761719 290.851562 C 294.761719 312.945312 276.851562 330.847656 254.75 330.847656 C 232.652344 330.847656 214.742188 312.945312 214.742188 290.851562 C 214.742188 276.523438 222.273438 263.960938 233.59375 256.902344 C 239.734375 253.066406 246.980469 250.855469 254.75 250.855469 C 275.292969 250.855469 292.207031 266.324219 294.496094 286.242188 C 294.671875 287.753906 294.761719 289.292969 294.761719 290.851562 Z M 294.761719 290.851562 " fill-opacity="1" fill-rule="nonzero"/><path fill="#ef7f25" d="M 284.636719 305.277344 C 278.195312 315.96875 266.476562 323.117188 253.085938 323.117188 C 232.765625 323.117188 216.289062 306.648438 216.289062 286.332031 C 216.289062 282.164062 216.984375 278.15625 218.261719 274.425781 C 221.53125 267.171875 226.902344 261.074219 233.59375 256.898438 C 233.273438 268.113281 236.875 279.472656 244.253906 287.949219 C 246.371094 290.378906 248.816406 292.632812 251.789062 293.882812 C 254.761719 295.140625 258.339844 295.265625 261.113281 293.613281 C 264.238281 291.746094 265.550781 288.355469 266 284.632812 C 266.578125 279.871094 273.429688 279.640625 274.148438 284.382812 C 274.160156 284.449219 274.167969 284.519531 274.171875 284.582031 C 274.699219 288.707031 273.359375 292.84375 273.359375 297.003906 C 273.359375 301.160156 275.476562 305.964844 279.589844 306.597656 C 281.382812 306.875 283.101562 306.285156 284.636719 305.277344 Z M 284.636719 305.277344 " fill-opacity="1" fill-rule="nonzero"/><path fill="#ffffff" d="M 294.761719 290.847656 C 294.761719 301.898438 290.28125 311.894531 283.039062 319.128906 C 282.589844 319.585938 282.121094 320.023438 281.65625 320.457031 C 281.417969 320.675781 281.171875 320.886719 280.929688 321.097656 C 280.441406 321.515625 279.957031 321.917969 279.453125 322.316406 C 278.949219 322.714844 278.433594 323.101562 277.910156 323.472656 C 277.382812 323.84375 276.855469 324.203125 276.316406 324.542969 C 276.316406 324.542969 276.316406 324.550781 276.3125 324.550781 C 275.773438 324.894531 275.222656 325.230469 274.667969 325.550781 C 274.386719 325.710938 274.105469 325.871094 273.816406 326.023438 C 273.25 326.332031 272.679688 326.621094 272.097656 326.902344 C 271.222656 327.324219 270.324219 327.71875 269.414062 328.074219 C 264.875 329.863281 259.925781 330.847656 254.75 330.847656 C 254.40625 330.847656 254.066406 330.839844 253.71875 330.832031 C 253.378906 330.828125 253.03125 330.816406 252.691406 330.792969 C 252.351562 330.777344 252.011719 330.757812 251.671875 330.730469 C 251.40625 330.710938 251.136719 330.6875 250.875 330.660156 C 250.667969 330.640625 250.464844 330.621094 250.257812 330.597656 C 250.226562 330.597656 250.195312 330.589844 250.164062 330.582031 C 249.875 330.550781 249.59375 330.519531 249.308594 330.472656 C 249.257812 330.472656 249.214844 330.46875 249.160156 330.457031 C 232.417969 328.121094 219.003906 315.429688 215.59375 299.070312 C 215.449219 298.441406 215.335938 297.808594 215.238281 297.167969 C 215.1875 296.851562 215.144531 296.53125 215.097656 296.203125 C 215.058594 295.941406 215.027344 295.671875 214.996094 295.398438 C 214.96875 295.152344 214.945312 294.902344 214.917969 294.648438 C 214.898438 294.441406 214.878906 294.238281 214.859375 294.03125 C 214.855469 293.933594 214.847656 293.839844 214.84375 293.742188 C 214.824219 293.511719 214.8125 293.28125 214.796875 293.042969 C 214.785156 292.792969 214.773438 292.542969 214.765625 292.292969 C 214.726562 291.273438 214.734375 290.265625 214.773438 289.265625 C 214.785156 288.90625 214.804688 288.554688 214.828125 288.195312 C 214.855469 287.816406 214.878906 287.4375 214.917969 287.0625 C 214.925781 286.957031 214.9375 286.851562 214.945312 286.746094 C 214.988281 286.355469 215.035156 285.964844 215.085938 285.578125 C 215.144531 285.148438 215.207031 284.714844 215.277344 284.292969 C 215.34375 283.898438 215.414062 283.507812 215.492188 283.125 C 215.507812 282.996094 215.535156 282.875 215.566406 282.753906 C 215.613281 282.519531 215.65625 282.289062 215.714844 282.066406 C 215.753906 281.867188 215.796875 281.675781 215.851562 281.484375 C 215.925781 281.15625 216.011719 280.828125 216.09375 280.507812 C 216.3125 279.679688 216.554688 278.859375 216.832031 278.058594 C 216.941406 277.730469 217.054688 277.410156 217.175781 277.089844 C 217.230469 276.929688 217.292969 276.761719 217.359375 276.601562 C 217.472656 276.296875 217.59375 275.988281 217.722656 275.6875 C 217.878906 275.292969 218.042969 274.910156 218.21875 274.527344 C 218.230469 274.492188 218.25 274.460938 218.261719 274.429688 C 216.984375 278.160156 216.292969 282.171875 216.292969 286.339844 C 216.292969 306.65625 232.765625 323.125 253.089844 323.125 C 266.476562 323.125 278.199219 315.972656 284.640625 305.28125 C 287.96875 299.753906 289.886719 293.269531 289.886719 286.339844 C 289.886719 272.851562 282.625 261.066406 271.804688 254.664062 C 284.054688 260.4375 292.894531 272.238281 294.5 286.242188 C 294.503906 286.300781 294.511719 286.359375 294.519531 286.417969 C 294.550781 286.722656 294.582031 287.039062 294.613281 287.351562 C 294.632812 287.589844 294.644531 287.828125 294.664062 288.070312 C 294.683594 288.339844 294.703125 288.609375 294.710938 288.886719 C 294.726562 289.15625 294.734375 289.417969 294.742188 289.6875 C 294.753906 290.074219 294.761719 290.457031 294.761719 290.847656 Z M 294.761719 290.847656 " fill-opacity="1" fill-rule="nonzero"/><path fill="#000072" d="M 254.75 333.414062 C 231.273438 333.414062 212.171875 314.320312 212.171875 290.851562 C 212.171875 267.378906 231.273438 248.285156 254.75 248.285156 C 278.230469 248.285156 297.328125 267.378906 297.328125 290.851562 C 297.328125 314.320312 278.230469 333.414062 254.75 333.414062 Z M 254.75 253.417969 C 234.101562 253.417969 217.304688 270.210938 217.304688 290.851562 C 217.304688 311.492188 234.101562 328.285156 254.75 328.285156 C 275.398438 328.285156 292.195312 311.492188 292.195312 290.851562 C 292.195312 270.207031 275.398438 253.417969 254.75 253.417969 Z M 254.75 253.417969 " fill-opacity="1" fill-rule="nonzero"/><path fill="#000072" d="M 243.332031 284.269531 C 243.277344 284.421875 243.171875 284.703125 243.097656 284.933594 C 243.015625 285.175781 242.941406 285.425781 242.867188 285.675781 C 242.726562 286.179688 242.601562 286.6875 242.488281 287.195312 C 242.265625 288.210938 242.140625 289.234375 242.089844 290.226562 C 242.046875 291.210938 242.148438 292.167969 242.296875 293.128906 C 242.503906 294.074219 242.734375 295.019531 243.140625 295.890625 C 243.492188 296.789062 244.027344 297.574219 244.558594 298.347656 C 245.152344 299.070312 245.777344 299.773438 246.53125 300.3125 C 248.007812 301.433594 249.777344 302.175781 251.71875 302.464844 C 252.203125 302.535156 252.703125 302.550781 253.195312 302.601562 C 253.699219 302.625 254.210938 302.585938 254.71875 302.585938 C 255.226562 302.582031 255.746094 302.492188 256.257812 302.457031 C 256.75 302.363281 257.273438 302.320312 257.742188 302.183594 C 259.6875 301.746094 261.363281 300.875 262.574219 299.550781 C 263.796875 298.238281 264.613281 296.445312 265.089844 294.402344 C 265.558594 292.375 265.695312 290.085938 265.679688 287.859375 L 265.675781 287.777344 C 265.671875 287.246094 266.101562 286.808594 266.632812 286.804688 C 267.023438 286.800781 267.359375 287.03125 267.515625 287.359375 C 268.082031 288.558594 268.417969 289.746094 268.675781 291.003906 C 268.914062 292.257812 269.039062 293.554688 268.976562 294.878906 C 268.9375 296.203125 268.707031 297.558594 268.265625 298.886719 C 267.816406 300.214844 267.128906 301.511719 266.203125 302.648438 C 264.335938 304.933594 261.660156 306.410156 259.042969 307.125 C 258.386719 307.339844 257.726562 307.433594 257.066406 307.589844 C 256.40625 307.679688 255.757812 307.800781 255.085938 307.835938 C 254.414062 307.863281 253.746094 307.921875 253.066406 307.914062 C 252.382812 307.875 251.699219 307.863281 251.015625 307.785156 C 248.273438 307.472656 245.496094 306.453125 243.203125 304.722656 C 242.035156 303.886719 241.042969 302.835938 240.144531 301.738281 C 239.304688 300.59375 238.554688 299.382812 238.03125 298.078125 C 237.457031 296.796875 237.109375 295.4375 236.847656 294.074219 C 236.652344 292.699219 236.554688 291.292969 236.648438 289.921875 C 236.738281 288.554688 236.984375 287.234375 237.308594 285.957031 C 237.472656 285.316406 237.667969 284.6875 237.886719 284.066406 C 237.996094 283.757812 238.109375 283.449219 238.234375 283.136719 C 238.363281 282.8125 238.476562 282.546875 238.65625 282.152344 C 239.25 280.867188 240.773438 280.308594 242.058594 280.902344 C 243.277344 281.464844 243.84375 282.863281 243.394531 284.101562 Z M 243.332031 284.269531 " fill-opacity="1" fill-rule="nonzero"/><path fill="#000072" d="M 294.761719 290.847656 C 294.761719 301.898438 290.28125 311.894531 283.039062 319.128906 C 282.597656 319.585938 282.128906 320.027344 281.65625 320.457031 C 281.417969 320.675781 281.171875 320.886719 280.929688 321.097656 C 280.441406 321.515625 279.957031 321.917969 279.453125 322.316406 C 278.949219 322.714844 278.433594 323.101562 277.910156 323.472656 C 277.382812 323.84375 276.855469 324.203125 276.316406 324.542969 C 276.316406 324.542969 276.316406 324.550781 276.3125 324.550781 C 275.773438 324.894531 275.222656 325.230469 274.667969 325.550781 C 274.386719 325.710938 274.105469 325.871094 273.816406 326.023438 C 273.25 326.332031 272.679688 326.621094 272.097656 326.902344 C 271.222656 327.324219 270.324219 327.71875 269.414062 328.074219 C 268.835938 328.304688 268.25 328.515625 267.660156 328.71875 C 267.425781 328.796875 267.1875 328.867188 266.953125 328.941406 C 266.59375 329.054688 266.238281 329.175781 265.875 329.277344 C 265.558594 329.371094 265.234375 329.449219 264.914062 329.535156 C 264.628906 329.609375 264.351562 329.6875 264.066406 329.753906 C 263.691406 329.84375 263.3125 329.917969 262.9375 330 C 262.699219 330.046875 262.46875 330.101562 262.230469 330.148438 C 261.816406 330.226562 261.398438 330.292969 260.976562 330.355469 C 260.773438 330.386719 260.570312 330.425781 260.363281 330.453125 C 259.921875 330.515625 259.472656 330.566406 259.027344 330.613281 C 258.839844 330.632812 258.65625 330.65625 258.46875 330.675781 C 258.007812 330.714844 257.550781 330.746094 257.085938 330.773438 C 256.90625 330.78125 256.722656 330.796875 256.539062 330.804688 C 256.082031 330.824219 255.621094 330.832031 255.15625 330.839844 C 255.023438 330.839844 254.886719 330.847656 254.75 330.847656 C 254.660156 330.847656 254.574219 330.84375 254.484375 330.84375 C 254.363281 330.84375 254.246094 330.847656 254.128906 330.847656 C 253.992188 330.847656 253.851562 330.839844 253.71875 330.835938 C 253.378906 330.828125 253.03125 330.816406 252.691406 330.796875 C 252.351562 330.777344 252.011719 330.757812 251.671875 330.730469 C 251.40625 330.714844 251.136719 330.6875 250.875 330.660156 C 250.667969 330.644531 250.464844 330.621094 250.257812 330.597656 C 250.226562 330.597656 250.195312 330.589844 250.164062 330.585938 C 249.875 330.554688 249.59375 330.519531 249.308594 330.476562 C 249.257812 330.476562 249.214844 330.46875 249.160156 330.457031 C 232.535156 328.105469 219.03125 315.378906 215.59375 299.070312 C 215.457031 298.445312 215.34375 297.808594 215.238281 297.167969 C 215.1875 296.851562 215.144531 296.53125 215.097656 296.207031 C 215.058594 295.941406 215.027344 295.675781 214.996094 295.398438 C 214.96875 295.152344 214.945312 294.902344 214.917969 294.648438 C 214.898438 294.441406 214.878906 294.238281 214.859375 294.03125 C 214.855469 293.9375 214.847656 293.839844 214.84375 293.742188 C 214.824219 293.511719 214.808594 293.28125 214.796875 293.042969 C 214.785156 292.792969 214.773438 292.542969 214.765625 292.292969 C 214.726562 291.273438 214.734375 290.269531 214.773438 289.269531 C 214.785156 288.910156 214.804688 288.554688 214.828125 288.199219 C 214.855469 287.820312 214.878906 287.441406 214.917969 287.0625 C 214.925781 286.960938 214.9375 286.851562 214.945312 286.75 C 214.988281 286.355469 215.035156 285.964844 215.085938 285.582031 C 215.144531 285.152344 215.207031 284.714844 215.277344 284.292969 C 215.34375 283.902344 215.414062 283.507812 215.492188 283.125 C 215.507812 282.996094 215.535156 282.875 215.566406 282.753906 C 215.613281 282.523438 215.65625 282.292969 215.714844 282.066406 C 215.753906 281.867188 215.796875 281.675781 215.851562 281.484375 C 215.925781 281.15625 216.011719 280.828125 216.09375 280.507812 C 216.3125 279.683594 216.5625 278.867188 216.832031 278.058594 C 216.941406 277.734375 217.054688 277.414062 217.175781 277.089844 C 217.230469 276.929688 217.292969 276.765625 217.359375 276.605469 C 217.472656 276.296875 217.59375 275.988281 217.722656 275.6875 C 217.878906 275.296875 218.042969 274.910156 218.21875 274.527344 C 218.230469 274.496094 218.25 274.460938 218.261719 274.429688 C 216.984375 278.164062 216.292969 282.171875 216.292969 286.339844 C 216.292969 306.65625 232.765625 323.125 253.089844 323.125 C 266.476562 323.125 278.199219 315.972656 284.640625 305.285156 C 285.914062 304.4375 287.058594 303.300781 288.007812 302.121094 C 291.65625 297.605469 293.914062 292.007812 294.5 286.242188 C 294.503906 286.300781 294.511719 286.359375 294.519531 286.417969 C 294.550781 286.722656 294.582031 287.039062 294.613281 287.351562 C 294.632812 287.589844 294.644531 287.828125 294.664062 288.070312 C 294.683594 288.339844 294.695312 288.609375 294.710938 288.886719 C 294.726562 289.15625 294.734375 289.417969 294.742188 289.6875 C 294.753906 290.074219 294.761719 290.457031 294.761719 290.847656 Z M 294.761719 290.847656 " fill-opacity="0.15" fill-rule="nonzero"/><path fill="#faa327" d="M 322.996094 247.007812 C 313.097656 258.132812 297.011719 254.425781 290.207031 249.476562 C 290.207031 249.476562 288.746094 254.003906 284.144531 257.804688 C 278.824219 262.199219 269.339844 265.625 253.089844 259.992188 C 253.089844 259.992188 258.164062 318.566406 252.703125 345.949219 C 252.449219 347.265625 252.160156 348.503906 251.851562 349.65625 C 245.050781 375.007812 206.082031 369.449219 195.558594 366.351562 C 190.8125 364.953125 188.335938 361.289062 188.015625 357.351562 C 187.644531 352.792969 190.144531 347.867188 195.355469 345.65625 C 195.625 345.535156 195.898438 345.429688 196.179688 345.328125 C 196.179688 345.328125 196.257812 345.015625 196.359375 344.445312 C 196.554688 343.398438 196.84375 341.511719 196.953125 339.101562 C 196.976562 338.523438 196.996094 337.921875 196.996094 337.285156 C 197.007812 331.96875 196.015625 324.878906 191.753906 318.734375 C 190.707031 317.21875 189.457031 315.765625 187.976562 314.40625 C 187.976562 314.40625 183.320312 324.523438 182.652344 337.34375 C 182.632812 337.664062 182.621094 337.992188 182.609375 338.316406 C 182.582031 338.996094 182.570312 339.683594 182.570312 340.375 C 182.570312 346.777344 183.070312 351.925781 181.703125 355.882812 C 180.035156 360.710938 175.578125 363.757812 164.015625 365.117188 C 142.980469 367.585938 121.945312 362.644531 121.945312 352.132812 C 121.945312 351.09375 122.0625 350.152344 122.265625 349.296875 C 122.902344 346.667969 124.410156 344.871094 126.128906 343.640625 C 129.503906 341.21875 133.707031 341 133.707031 341 C 133.707031 341 132.652344 338.199219 131.152344 333.1875 C 129.363281 327.207031 126.929688 318.066406 124.898438 306.820312 C 121.871094 290.023438 119.726562 268.515625 121.945312 245.769531 C 121.945312 245.769531 121.492188 245.921875 120.675781 246.132812 C 115.859375 247.371094 98.371094 250.574219 86.476562 235.535156 C 84.765625 233.367188 83.167969 230.820312 81.742188 227.832031 C 81.742188 227.832031 71.121094 236.773438 59.972656 228.628906 C 59.394531 228.203125 58.808594 227.734375 58.234375 227.214844 C 46.480469 216.707031 66.277344 193.203125 79.882812 191.347656 C 91.390625 189.785156 106.4375 198.820312 110.808594 201.65625 C 111.613281 202.175781 112.054688 202.480469 112.054688 202.480469 C 112.054688 202.480469 117.957031 185.949219 139.582031 180.582031 C 140.089844 180.449219 140.601562 180.332031 141.128906 180.214844 C 141.128906 180.214844 140.757812 180.03125 140.082031 179.65625 C 134.785156 176.714844 110.945312 162.183594 107.105469 136.929688 C 106.359375 132.027344 106.269531 127.640625 106.695312 123.609375 C 106.757812 122.988281 106.835938 122.378906 106.917969 121.773438 C 107.070312 120.703125 107.265625 119.652344 107.484375 118.625 C 111.035156 102.15625 122.847656 91.121094 129.375 71.996094 C 129.375 71.996094 131.941406 21.960938 149.441406 10.296875 C 161.195312 2.464844 188.761719 26.855469 188.761719 26.855469 C 188.761719 26.855469 214.742188 25.617188 241.960938 39.839844 C 241.960938 39.839844 273.503906 22.5 286.492188 33.339844 C 294.628906 40.125 292.574219 59.882812 287.46875 76.886719 C 284.425781 87.039062 280.296875 96.210938 276.601562 101.066406 C 276.601562 101.066406 275.363281 114.667969 276.601562 124.5625 C 277.179688 129.191406 280.058594 141.542969 278.398438 154.832031 L 278.398438 154.835938 C 277.019531 165.878906 272.496094 177.570312 260.898438 186.015625 C 260.691406 186.15625 260.488281 186.304688 260.273438 186.457031 C 258.894531 187.433594 257.421875 188.355469 255.84375 189.230469 C 252.671875 190.988281 249.09375 192.53125 245.050781 193.820312 C 245.050781 193.820312 265.464844 203.714844 271.03125 216.082031 C 271.03125 216.082031 272.058594 214.636719 274.332031 212.765625 L 274.332031 212.757812 C 278.867188 209.007812 288.347656 203.503906 304.4375 204.332031 C 328.5625 205.570312 332.890625 235.875 322.996094 247.007812 Z M 322.996094 247.007812 " fill-opacity="1" fill-rule="nonzero"/><path fill="#ef7f25" d="M 167.5625 12.816406 C 167.339844 15.804688 165.359375 18.59375 162.613281 19.789062 C 159.867188 20.984375 156.476562 20.539062 154.132812 18.667969 C 154.578125 22.261719 155.019531 25.859375 155.460938 29.453125 C 155.652344 31 155.839844 32.582031 155.511719 34.105469 C 154.945312 36.742188 152.871094 38.859375 150.492188 40.132812 C 148.113281 41.40625 145.429688 41.960938 142.785156 42.507812 C 143.617188 38.71875 144.449219 34.929688 145.28125 31.140625 C 144.367188 36.855469 138.566406 40.246094 135.125 44.898438 C 130.511719 51.121094 130.273438 59.441406 130.21875 67.1875 C 140.648438 45.078125 162.949219 29.011719 187.230469 26.117188 C 181.328125 21.011719 174.71875 16.71875 167.5625 12.816406 Z M 167.5625 12.816406 " fill-opacity="1" fill-rule="nonzero"/><path fill="#ef7f25" d="M 268.953125 29.027344 C 266.078125 31.1875 261.3125 30.414062 259.34375 33.417969 C 258.03125 35.417969 258.828125 38.300781 260.648438 39.855469 C 262.46875 41.410156 265.015625 41.84375 267.40625 41.695312 C 269.792969 41.542969 272.117188 40.878906 274.480469 40.5 C 276.84375 40.121094 279.355469 40.042969 281.644531 41.207031 C 277.171875 46.523438 272.167969 51.394531 267.167969 55.914062 C 268.238281 65.777344 278.015625 73.855469 287.910156 73.042969 C 286.414062 82.753906 282.722656 92.121094 277.179688 100.238281 C 277.796875 88.140625 273.191406 76.226562 266.40625 66.1875 C 259.621094 56.148438 250.734375 47.734375 241.816406 39.523438 C 250.078125 34.101562 259.386719 30.277344 268.953125 29.027344 Z M 268.953125 29.027344 " fill-opacity="1" fill-rule="nonzero"/><path fill="#ef7f25" d="M 203.902344 309.753906 C 205.835938 318.015625 207.238281 328.046875 207.277344 335.933594 C 201.191406 336.382812 197.199219 337.242188 196.996094 337.285156 C 196.996094 337.921875 196.976562 338.523438 196.949219 339.101562 C 196.949219 327.929688 194.769531 321.800781 189.378906 315.207031 C 188.734375 314.410156 188.027344 307.832031 187.578125 306.910156 C 187.757812 307.003906 188.027344 307.035156 188.367188 307.023438 C 188.105469 306.984375 187.839844 306.953125 187.578125 306.910156 C 186.746094 308.972656 186.871094 311.398438 187.867188 313.296875 C 183.683594 320.046875 181.765625 328.191406 182.515625 336.101562 C 182.554688 336.511719 182.597656 336.925781 182.652344 337.34375 C 183.34375 343.039062 184.949219 348.957031 182.636719 354.152344 C 182.367188 354.761719 182.054688 355.339844 181.703125 355.882812 C 183.066406 351.929688 182.566406 346.777344 182.566406 340.378906 C 182.566406 339.683594 182.582031 339 182.605469 338.320312 C 182.605469 338.320312 176.78125 335.632812 168.113281 333.484375 C 168.070312 326.210938 166.695312 315.757812 162.105469 314.40625 C 138.804688 307.53125 124.09375 289.738281 123.613281 286.6875 C 120.503906 266.742188 121.945312 248.953125 121.945312 245.765625 C 115.199219 248.804688 106.125 245.375 99.078125 243.136719 C 94.355469 241.636719 90.011719 238.996094 86.476562 235.53125 C 84.734375 233.820312 83.179688 231.90625 81.878906 229.84375 C 76.914062 233.074219 71.023438 233.871094 65.820312 232.101562 C 63.667969 231.367188 61.65625 230.167969 59.972656 228.625 C 71.121094 236.769531 81.742188 227.832031 81.742188 227.832031 C 84.34375 222.980469 87.171875 219.132812 90.011719 216.074219 C 91.4375 216.253906 92.835938 216.558594 94.203125 217.050781 C 97.609375 218.28125 100.507812 220.589844 103.722656 222.265625 C 106.933594 223.9375 110.867188 224.949219 114.148438 223.40625 C 117.019531 222.054688 118.714844 219.089844 120.222656 216.300781 C 123.363281 210.503906 126.507812 204.699219 129.660156 198.894531 C 130.792969 196.804688 133.988281 197.792969 133.746094 200.160156 C 133.570312 201.851562 133.277344 203.519531 132.886719 205.140625 C 131.0625 212.84375 127.476562 220.019531 125.453125 227.664062 C 119.769531 249.097656 127.773438 273.515625 145.035156 287.425781 C 162.300781 301.34375 199.425781 300.128906 219.164062 290.03125 C 218.796875 293.941406 211.785156 301.042969 205.710938 305.171875 C 204.210938 306.183594 203.492188 308.003906 203.902344 309.753906 Z M 203.902344 309.753906 " fill-opacity="1" fill-rule="nonzero"/><path fill="#ef7f25" d="M 253.085938 259.988281 C 253.085938 259.988281 258.160156 318.566406 252.703125 345.949219 C 247.128906 342.113281 240.996094 339.625 234.894531 338.0625 C 238.171875 330.066406 239.140625 321.214844 239.5 312.539062 C 240.40625 290.144531 237.5 267.597656 230.9375 246.164062 C 229.917969 242.828125 228.800781 239.417969 229.109375 235.949219 C 229.417969 232.484375 231.578125 228.90625 234.976562 228.152344 C 240.039062 227.027344 244.003906 232.132812 247.980469 235.453125 C 253 239.644531 259.9375 241.425781 266.355469 240.183594 C 268.773438 239.707031 271.109375 238.808594 273.230469 237.566406 C 274.566406 244.605469 277.683594 251.9375 284.140625 257.804688 C 278.824219 262.195312 269.335938 265.621094 253.085938 259.988281 Z M 253.085938 259.988281 " fill-opacity="1" fill-rule="nonzero"/><path fill="#ef7f25" d="M 270.65625 215.296875 C 270.535156 215.394531 270.421875 215.492188 270.304688 215.59375 C 268.378906 209.5 262.152344 205.613281 255.871094 204.421875 C 249.589844 203.234375 243.136719 204.214844 236.78125 204.863281 C 232.007812 205.347656 227.113281 205.582031 222.140625 205.597656 C 220.691406 200.414062 217.914062 196.464844 212.660156 195.070312 C 212.660156 195.070312 238.539062 198.355469 255.839844 189.230469 C 252.671875 190.988281 249.089844 192.53125 245.046875 193.820312 C 245.050781 193.820312 264.609375 203.300781 270.65625 215.296875 Z M 270.65625 215.296875 " fill-opacity="1" fill-rule="nonzero"/><path fill="#ef7f25" d="M 159.933594 187.699219 C 159.933594 187.699219 155.140625 187.734375 151.460938 192.359375 C 144.371094 189.730469 137.570312 186.753906 131.195312 183.511719 C 132.183594 181.683594 138.59375 182.402344 139.582031 180.578125 C 139.746094 180.273438 139.914062 179.964844 140.082031 179.65625 C 140.144531 179.535156 140.210938 179.417969 140.273438 179.296875 C 136.066406 177.1875 132.132812 174.480469 128.546875 171.300781 C 135.871094 177.179688 145.925781 182.84375 159.933594 187.699219 Z M 159.933594 187.699219 " fill-opacity="1" fill-rule="nonzero"/><path fill="#ef7f25" d="M 278.394531 154.832031 C 278.394531 154.832031 276.183594 144.140625 262.164062 141.671875 C 261.585938 141.570312 261.011719 141.484375 260.445312 141.425781 C 260.746094 139.386719 260.992188 137.34375 261.230469 135.308594 C 263.820312 113.25 266.410156 91.183594 269.003906 69.121094 C 275.484375 84.597656 280.292969 96.210938 276.597656 101.066406 C 276.597656 101.066406 275.363281 114.667969 276.597656 124.5625 C 277.175781 129.191406 280.054688 141.542969 278.394531 154.832031 Z M 278.394531 154.832031 " fill-opacity="1" fill-rule="nonzero"/><path fill="#ffffff" d="M 252.703125 345.949219 C 252.445312 347.265625 252.15625 348.5 251.847656 349.65625 C 245.050781 375.007812 206.078125 369.445312 195.558594 366.347656 C 195.398438 366.304688 195.242188 366.253906 195.089844 366.203125 C 194.933594 366.152344 194.78125 366.09375 194.632812 366.035156 C 194.015625 365.804688 193.445312 365.527344 192.921875 365.21875 C 192.8125 365.15625 192.707031 365.089844 192.613281 365.027344 C 191.035156 364.03125 189.867188 362.707031 189.097656 361.207031 C 189.046875 361.101562 188.996094 361.007812 188.949219 360.898438 C 188.886719 360.769531 188.828125 360.636719 188.769531 360.5 C 188.730469 360.410156 188.691406 360.316406 188.660156 360.21875 C 188.617188 360.109375 188.570312 359.996094 188.53125 359.875 C 188.457031 359.640625 188.386719 359.410156 188.320312 359.167969 C 188.226562 358.808594 188.152344 358.449219 188.097656 358.089844 C 188.097656 358.078125 188.097656 358.0625 188.089844 358.050781 C 188.066406 357.839844 188.039062 357.621094 188.019531 357.410156 C 188.019531 357.390625 188.015625 357.371094 188.015625 357.351562 L 188.015625 357.347656 C 187.65625 352.960938 189.972656 348.226562 194.800781 345.898438 C 195.246094 345.6875 195.699219 345.496094 196.179688 345.328125 C 196.179688 345.328125 196.714844 343.117188 196.914062 339.738281 C 196.917969 339.710938 196.917969 339.679688 196.917969 339.65625 C 196.9375 339.476562 196.949219 339.300781 196.949219 339.136719 L 196.949219 339.101562 C 196.976562 338.527344 196.996094 337.921875 196.996094 337.289062 C 197.199219 337.242188 201.191406 336.382812 207.277344 335.933594 C 214.496094 335.398438 224.644531 335.429688 234.894531 338.0625 C 240.996094 339.625 247.128906 342.113281 252.703125 345.949219 Z M 252.703125 345.949219 " fill-opacity="1" fill-rule="nonzero"/><path fill="#ffffff" d="M 246.480469 39.421875 C 253.085938 38.140625 259.375 35.433594 266.03125 34.453125 C 272.6875 33.476562 280.242188 34.613281 284.636719 39.710938 C 288.972656 44.742188 289.050781 52.089844 288.441406 58.703125 C 287.730469 66.382812 286.394531 74.007812 284.449219 81.472656 C 290.558594 72.628906 291.859375 61.375 292.089844 50.628906 C 292.183594 46.257812 292.089844 41.707031 290.128906 37.800781 C 286.527344 30.605469 277.386719 27.636719 269.421875 28.769531 C 261.453125 29.90625 254.367188 34.257812 246.480469 39.421875 Z M 246.480469 39.421875 " fill-opacity="0.6" fill-rule="nonzero"/><path fill="#ffffff" d="M 181.699219 355.882812 C 181.699219 355.882812 181.699219 355.886719 181.695312 355.886719 C 180.027344 360.714844 175.574219 363.757812 164.015625 365.117188 C 142.980469 367.585938 121.945312 362.640625 121.945312 352.128906 C 121.945312 351.089844 122.058594 350.148438 122.265625 349.296875 C 122.898438 346.667969 124.40625 344.863281 126.128906 343.640625 C 129.507812 341.214844 133.703125 340.996094 133.703125 340.996094 C 133.703125 340.996094 132.652344 338.195312 131.148438 333.1875 C 144.183594 329.210938 158.0625 330.988281 168.113281 333.480469 C 176.777344 335.628906 182.605469 338.316406 182.605469 338.316406 C 182.578125 338.996094 182.566406 339.683594 182.566406 340.375 C 182.566406 346.777344 183.066406 351.925781 181.699219 355.882812 Z M 181.699219 355.882812 " fill-opacity="1" fill-rule="nonzero"/><path fill="#ffffff" d="M 322.992188 247.003906 C 313.09375 258.128906 297.011719 254.425781 290.203125 249.472656 C 290.203125 249.472656 288.742188 254 284.140625 257.804688 C 277.683594 251.9375 274.566406 244.605469 273.230469 237.5625 C 270.773438 224.660156 274.328125 212.765625 274.328125 212.765625 L 274.328125 212.757812 C 278.554688 209.265625 287.074219 204.25 301.230469 204.25 C 302.269531 204.25 303.335938 204.277344 304.433594 204.332031 C 328.558594 205.570312 332.890625 235.871094 322.992188 247.003906 Z M 322.992188 247.003906 " fill-opacity="1" fill-rule="nonzero"/><path fill="#ffffff" d="M 132.035156 53.390625 C 134.679688 46.054688 135.59375 38.179688 138.289062 30.863281 C 140.988281 23.546875 146.101562 16.429688 153.632812 14.394531 C 161.085938 12.378906 168.824219 15.765625 175.804688 19.070312 C 172.1875 15.96875 168.511719 12.828125 164.179688 10.851562 C 159.847656 8.871094 154.695312 8.175781 150.332031 10.082031 C 146.09375 11.933594 143.199219 15.914062 140.921875 19.933594 C 135.007812 30.371094 131.839844 42.34375 132.035156 53.390625 Z M 132.035156 53.390625 " fill-opacity="0.6" fill-rule="nonzero"/><path fill="#ffffff" d="M 274.40625 77.941406 C 259.035156 59.464844 239.714844 43.335938 216.640625 36.628906 C 211.300781 35.078125 205.996094 33.878906 200.722656 33.222656 C 200.246094 36.410156 195.070312 38.917969 188.757812 38.917969 C 183.351562 38.917969 178.777344 37.078125 177.277344 34.542969 C 167.910156 37.066406 158.683594 42.296875 149.621094 51.359375 C 139.480469 61.496094 133.898438 75.605469 123.3125 85.285156 C 127.644531 72.636719 133.179688 60.144531 141.972656 50.074219 C 152.015625 38.589844 165.980469 31.144531 180.945312 28.058594 C 183.042969 27.136719 185.773438 26.574219 188.757812 26.574219 C 189.46875 26.574219 190.164062 26.605469 190.835938 26.667969 C 198.773438 26.058594 206.804688 26.648438 214.519531 28.488281 C 240.316406 34.628906 262.179688 53.496094 274.40625 77.941406 Z M 274.40625 77.941406 " fill-opacity="0.6" fill-rule="nonzero"/><path fill="#ffffff" d="M 111.5 204.25 C 111.5 204.25 100.632812 204.640625 90.011719 216.074219 C 87.167969 219.132812 84.339844 222.980469 81.742188 227.828125 C 81.742188 227.828125 71.117188 236.769531 59.96875 228.625 C 59.390625 228.199219 58.808594 227.730469 58.230469 227.214844 C 46.476562 216.703125 66.273438 193.199219 79.882812 191.34375 C 91.390625 189.78125 106.433594 198.816406 110.808594 201.652344 C 111.226562 202.652344 111.46875 203.53125 111.5 204.25 Z M 111.5 204.25 " fill-opacity="1" fill-rule="nonzero"/><path fill="#ffffff" d="M 278.394531 154.832031 L 278.394531 154.835938 C 277.015625 165.878906 272.492188 177.570312 260.894531 186.015625 C 260.6875 186.15625 260.484375 186.304688 260.273438 186.457031 C 260.207031 186.503906 260.152344 186.546875 260.085938 186.59375 C 259.996094 186.65625 259.90625 186.714844 259.816406 186.773438 C 259.726562 186.835938 259.644531 186.894531 259.554688 186.953125 C 259.386719 187.0625 259.226562 187.175781 259.058594 187.285156 C 258.320312 187.773438 257.558594 188.246094 256.761719 188.710938 C 256.460938 188.882812 256.152344 189.054688 255.839844 189.230469 C 238.539062 198.355469 212.660156 195.070312 212.660156 195.070312 C 217.914062 196.464844 220.691406 200.414062 222.140625 205.597656 C 224.777344 215.035156 223.007812 228.554688 223.808594 238.140625 C 225.046875 252.980469 223.398438 266.171875 209.785156 278.542969 C 196.179688 290.90625 139.265625 287.199219 136.792969 255.867188 C 134.320312 224.535156 146.277344 201.445312 149.992188 194.597656 C 150.445312 193.75 150.945312 193.007812 151.460938 192.359375 C 155.140625 187.734375 159.933594 187.699219 159.933594 187.699219 C 145.925781 182.84375 135.871094 177.179688 128.546875 171.300781 C 113.246094 159.023438 109.828125 145.78125 107.101562 136.925781 C 105.714844 132.417969 105.675781 127.753906 106.691406 123.605469 C 106.753906 123.34375 106.824219 123.085938 106.898438 122.832031 C 107.101562 122.09375 107.339844 121.382812 107.617188 120.6875 C 110.125 114.25 115.351562 109.660156 121.945312 109.929688 C 133.476562 110.390625 138.445312 125.175781 151.640625 124.765625 C 164.839844 124.355469 171.164062 114.460938 186.285156 117.347656 C 205.671875 121.046875 206.667969 139.976562 222.992188 143.691406 C 238.640625 147.242188 247.292969 140.054688 260.449219 141.425781 C 261.011719 141.484375 261.589844 141.570312 262.167969 141.671875 C 276.179688 144.140625 278.394531 154.832031 278.394531 154.832031 Z M 278.394531 154.832031 " fill-opacity="1" fill-rule="nonzero"/><path fill="#000072" d="M 217.097656 371.660156 C 207.4375 371.660156 198.707031 369.949219 194.835938 368.808594 C 189.179688 367.148438 185.570312 362.550781 185.417969 356.820312 C 185.265625 351.132812 188.632812 345.941406 193.925781 343.480469 C 194.140625 342.183594 194.421875 339.96875 194.429688 337.277344 C 194.441406 332.035156 193.414062 324.980469 188.886719 319.160156 C 187.46875 323.253906 185.460938 330.359375 185.171875 338.410156 C 185.148438 339.066406 185.136719 339.71875 185.136719 340.378906 C 185.136719 341.777344 185.160156 343.117188 185.183594 344.398438 C 185.292969 350.445312 185.386719 355.667969 182.625 359.769531 C 179.71875 364.082031 174.070312 366.519531 164.320312 367.667969 C 146.976562 369.703125 130.566406 366.835938 123.476562 360.535156 C 120.800781 358.152344 119.382812 355.246094 119.382812 352.132812 C 119.382812 343.898438 125.378906 340.21875 130.28125 338.960938 C 129.855469 337.675781 129.3125 335.984375 128.695312 333.925781 C 124.757812 320.773438 116.140625 286.753906 119.078125 249.121094 C 116.082031 249.695312 111.527344 250.210938 106.390625 249.550781 C 98.582031 248.546875 88.03125 244.570312 80.808594 231.605469 C 75.21875 234.875 65.515625 237.167969 56.523438 229.128906 C 52.296875 225.347656 51.042969 219.757812 52.996094 213.390625 C 56.441406 202.144531 69.339844 190.195312 79.539062 188.808594 C 90.992188 187.25 105.292969 195.1875 110.980469 198.722656 C 113.570312 193.890625 120.292969 184.28125 134.617188 179.367188 C 125.550781 173.488281 107.9375 159.4375 104.570312 137.316406 C 103.816406 132.355469 103.675781 127.785156 104.144531 123.34375 C 105.34375 111.660156 110.492188 102.875 115.941406 93.574219 C 119.847656 86.914062 123.882812 80.03125 126.835938 71.5 C 127.125 66.511719 130.273438 19.996094 148.023438 8.164062 C 160.269531 0.00390625 184.402344 19.710938 189.695312 24.265625 C 194.863281 24.1875 217.632812 24.617188 241.945312 36.949219 C 248.121094 33.757812 275.347656 20.699219 288.140625 31.371094 C 296.898438 38.675781 294.722656 56.773438 292.644531 66.914062 C 289.863281 80.480469 284.347656 94.730469 279.101562 102.007812 C 278.875 104.894531 278.121094 116.003906 279.152344 124.246094 C 279.25 125.03125 279.425781 126.109375 279.632812 127.359375 C 280.648438 133.53125 282.351562 143.855469 280.953125 155.097656 C 280.953125 155.121094 280.949219 155.140625 280.949219 155.160156 C 279.175781 169.347656 272.9375 180.429688 262.410156 188.09375 C 262.390625 188.109375 262.375 188.121094 262.351562 188.136719 C 262.164062 188.265625 261.976562 188.398438 261.785156 188.539062 C 260.300781 189.589844 258.730469 190.570312 257.085938 191.480469 C 255.257812 192.492188 253.3125 193.429688 251.265625 194.28125 C 257.132812 197.714844 266.570312 204.054688 271.578125 211.765625 C 271.882812 211.484375 272.214844 211.195312 272.578125 210.890625 C 272.617188 210.855469 272.65625 210.820312 272.699219 210.785156 C 277.226562 207.039062 287.378906 200.886719 304.570312 201.773438 C 315.207031 202.320312 323.707031 208.359375 327.886719 218.347656 C 332.273438 228.820312 330.996094 241.871094 324.917969 248.710938 C 315.585938 259.195312 300.4375 258.128906 291.304688 253.183594 C 290.25 255.050781 288.503906 257.535156 285.785156 259.78125 C 280.636719 264.03125 271.382812 267.933594 255.957031 263.582031 C 256.984375 277.140625 259.949219 322.765625 255.226562 346.453125 C 254.96875 347.757812 254.671875 349.0625 254.335938 350.320312 C 252.457031 357.316406 248.222656 362.703125 241.746094 366.332031 C 234.527344 370.378906 225.460938 371.660156 217.097656 371.660156 Z M 187.976562 311.839844 C 188.613281 311.839844 189.230469 312.074219 189.710938 312.511719 C 197.878906 319.992188 199.574219 330.117188 199.5625 337.289062 C 199.550781 342.257812 198.710938 345.78125 198.675781 345.929688 C 198.472656 346.773438 197.855469 347.457031 197.035156 347.746094 C 192.117188 349.480469 190.464844 353.644531 190.546875 356.683594 C 190.640625 360.164062 192.78125 362.859375 196.28125 363.886719 C 204.695312 366.367188 226.265625 369.128906 239.230469 361.859375 C 244.457031 358.925781 247.871094 354.597656 249.371094 348.992188 C 249.675781 347.851562 249.949219 346.660156 250.1875 345.457031 C 255.511719 318.738281 250.582031 260.792969 250.53125 260.210938 C 250.457031 259.347656 250.828125 258.5 251.511719 257.96875 C 252.199219 257.433594 253.109375 257.285156 253.929688 257.566406 C 266.128906 261.796875 276.011719 261.195312 282.511719 255.828125 C 286.425781 252.589844 287.757812 248.710938 287.769531 248.671875 C 288.027344 247.898438 288.644531 247.285156 289.421875 247.035156 C 290.203125 246.789062 291.054688 246.917969 291.71875 247.398438 C 297.539062 251.632812 312.125 255.363281 321.078125 245.300781 C 325.855469 239.929688 326.765625 228.960938 323.152344 220.328125 C 321.160156 215.570312 316.0625 207.5 304.304688 206.894531 C 289 206.105469 280.085938 211.367188 276.078125 214.644531 C 276.042969 214.679688 276.003906 214.714844 275.964844 214.746094 C 274.027344 216.339844 273.125 217.566406 273.117188 217.578125 C 272.578125 218.316406 271.679688 218.722656 270.773438 218.625 C 269.863281 218.53125 269.070312 217.96875 268.695312 217.132812 C 263.574219 205.769531 244.128906 196.222656 243.933594 196.128906 C 242.988281 195.671875 242.417969 194.683594 242.492188 193.636719 C 242.566406 192.59375 243.273438 191.699219 244.273438 191.378906 C 248.03125 190.179688 251.503906 188.703125 254.597656 186.988281 C 256.078125 186.167969 257.488281 185.285156 258.792969 184.363281 C 258.988281 184.222656 259.199219 184.070312 259.414062 183.925781 C 268.71875 177.136719 274.246094 167.261719 275.84375 154.574219 C 275.847656 154.550781 275.847656 154.53125 275.851562 154.511719 C 277.167969 143.984375 275.539062 134.097656 274.566406 128.191406 C 274.351562 126.886719 274.164062 125.761719 274.054688 124.878906 C 272.796875 114.828125 273.996094 101.398438 274.046875 100.832031 C 274.089844 100.351562 274.269531 99.894531 274.5625 99.511719 C 279.445312 93.101562 284.933594 78.957031 287.617188 65.878906 C 290.714844 50.765625 289.679688 39.335938 284.851562 35.308594 C 275.308594 27.347656 251.546875 37.503906 243.195312 42.089844 C 242.445312 42.503906 241.535156 42.511719 240.773438 42.113281 C 214.539062 28.40625 189.136719 29.40625 188.882812 29.417969 C 188.21875 29.449219 187.558594 29.21875 187.0625 28.777344 C 176.972656 19.855469 158.222656 7.527344 150.867188 12.429688 C 134.640625 23.246094 131.964844 71.640625 131.941406 72.125 C 131.929688 72.363281 131.882812 72.597656 131.808594 72.824219 C 128.675781 82 124.453125 89.199219 120.371094 96.164062 C 114.984375 105.351562 110.332031 113.285156 109.246094 123.867188 C 108.828125 127.878906 108.957031 132.019531 109.644531 136.539062 C 113.714844 163.300781 141.996094 177.777344 142.28125 177.917969 C 143.253906 178.40625 143.8125 179.457031 143.675781 180.535156 C 143.539062 181.613281 142.738281 182.488281 141.675781 182.71875 C 120.425781 187.316406 114.53125 203.179688 114.476562 203.339844 C 114.207031 204.09375 113.601562 204.675781 112.839844 204.921875 C 112.078125 205.164062 111.25 205.039062 110.59375 204.582031 C 110.574219 204.570312 110.160156 204.28125 109.417969 203.804688 C 100.855469 198.253906 88.695312 192.738281 80.234375 193.886719 C 72.015625 195.007812 60.746094 205.605469 57.902344 214.886719 C 56.53125 219.359375 57.21875 222.863281 59.949219 225.300781 C 69.851562 234.15625 79.6875 226.203125 80.101562 225.859375 C 80.710938 225.355469 81.523438 225.15625 82.296875 225.324219 C 83.066406 225.496094 83.722656 226.007812 84.0625 226.722656 C 95.886719 251.488281 120.101562 243.679688 121.128906 243.335938 C 121.953125 243.058594 122.863281 243.214844 123.542969 243.757812 C 124.226562 244.300781 124.589844 245.148438 124.503906 246.015625 C 120.785156 284.160156 129.636719 319.171875 133.613281 332.449219 C 135.066406 337.296875 136.101562 340.070312 136.109375 340.09375 C 136.398438 340.859375 136.300781 341.71875 135.855469 342.402344 C 135.40625 343.085938 134.660156 343.515625 133.84375 343.558594 C 132.898438 343.613281 124.515625 344.34375 124.515625 352.128906 C 124.515625 353.785156 125.292969 355.277344 126.890625 356.699219 C 132.855469 362 148 364.414062 163.722656 362.570312 C 180.347656 360.613281 180.261719 355.890625 180.054688 344.488281 C 180.03125 343.179688 180.007812 341.808594 180.007812 340.375 C 180.007812 339.652344 180.019531 338.929688 180.046875 338.21875 C 180.535156 324.59375 185.441406 313.785156 185.648438 313.332031 C 185.992188 312.585938 186.667969 312.050781 187.472656 311.886719 C 187.636719 311.855469 187.808594 311.839844 187.976562 311.839844 Z M 322.992188 247.003906 L 323 247.003906 Z M 322.992188 247.003906 " fill-opacity="1" fill-rule="nonzero"/><path fill="#000072" d="M 245.566406 196.332031 C 244.984375 196.425781 244.507812 196.484375 243.988281 196.546875 C 243.480469 196.609375 242.976562 196.652344 242.472656 196.707031 C 241.464844 196.796875 240.460938 196.886719 239.464844 196.945312 C 237.460938 197.078125 235.46875 197.144531 233.476562 197.191406 C 229.492188 197.265625 225.523438 197.171875 221.570312 196.984375 C 219.59375 196.871094 217.617188 196.761719 215.648438 196.589844 C 213.675781 196.453125 211.710938 196.238281 209.746094 196.039062 C 207.785156 195.847656 205.828125 195.570312 203.871094 195.339844 L 198.023438 194.492188 C 197.652344 194.441406 197.398438 194.097656 197.449219 193.726562 C 197.503906 193.375 197.8125 193.125 198.164062 193.144531 L 198.183594 193.144531 L 204.042969 193.519531 C 205.996094 193.589844 207.949219 193.710938 209.902344 193.746094 C 211.855469 193.785156 213.804688 193.839844 215.757812 193.820312 C 217.707031 193.835938 219.65625 193.785156 221.601562 193.738281 C 225.496094 193.613281 229.378906 193.390625 233.230469 193.007812 C 235.15625 192.8125 237.078125 192.59375 238.976562 192.3125 C 239.929688 192.179688 240.875 192.019531 241.8125 191.859375 C 242.277344 191.769531 242.75 191.691406 243.207031 191.59375 C 243.660156 191.503906 244.148438 191.402344 244.53125 191.308594 L 244.542969 191.304688 C 245.917969 190.964844 247.308594 191.804688 247.652344 193.179688 C 247.992188 194.558594 247.152344 195.949219 245.777344 196.289062 C 245.707031 196.308594 245.636719 196.324219 245.566406 196.332031 Z M 245.566406 196.332031 " fill-opacity="1" fill-rule="nonzero"/><path fill="#000072" d="M 142.210938 177.890625 C 144.324219 178.996094 146.542969 180.078125 148.746094 181.117188 C 150.953125 182.160156 153.183594 183.160156 155.429688 184.128906 C 157.671875 185.101562 159.9375 186.019531 162.21875 186.898438 C 164.496094 187.789062 166.800781 188.59375 169.121094 189.375 L 169.136719 189.378906 C 169.722656 189.578125 170.039062 190.214844 169.839844 190.800781 C 169.65625 191.351562 169.082031 191.660156 168.527344 191.535156 C 166.101562 190.976562 163.683594 190.386719 161.289062 189.714844 C 158.894531 189.046875 156.507812 188.339844 154.136719 187.578125 C 151.769531 186.820312 149.410156 186.027344 147.0625 185.191406 C 144.710938 184.351562 142.398438 183.492188 140.039062 182.539062 C 138.722656 182.007812 138.085938 180.511719 138.613281 179.195312 C 139.144531 177.878906 140.640625 177.242188 141.957031 177.773438 C 142.035156 177.804688 142.109375 177.839844 142.183594 177.875 Z M 142.210938 177.890625 " fill-opacity="1" fill-rule="nonzero"/><path fill="#000072" d="M 273.042969 217.675781 C 271.394531 219.460938 269.753906 221.289062 268.136719 223.121094 C 266.515625 224.953125 264.917969 226.804688 263.347656 228.675781 L 263.34375 228.679688 C 262.828125 229.296875 261.90625 229.378906 261.289062 228.859375 C 260.730469 228.390625 260.613281 227.589844 260.980469 226.984375 C 262.269531 224.867188 263.585938 222.773438 264.929688 220.695312 C 266.273438 218.613281 267.625 216.554688 269.019531 214.488281 C 269.816406 213.308594 271.417969 213 272.59375 213.792969 C 273.773438 214.589844 274.082031 216.1875 273.289062 217.367188 C 273.21875 217.472656 273.140625 217.570312 273.058594 217.660156 Z M 273.042969 217.675781 " fill-opacity="1" fill-rule="nonzero"/><path fill="#000072" d="M 252.105469 262.359375 C 251.703125 262.171875 251.460938 262.03125 251.167969 261.867188 C 250.878906 261.710938 250.617188 261.546875 250.34375 261.382812 C 249.8125 261.054688 249.285156 260.722656 248.785156 260.371094 C 247.765625 259.679688 246.800781 258.945312 245.851562 258.191406 C 243.964844 256.679688 242.207031 255.054688 240.527344 253.367188 C 239.695312 252.515625 238.867188 251.660156 238.085938 250.769531 C 237.28125 249.902344 236.535156 248.980469 235.773438 248.078125 C 235.015625 247.175781 234.316406 246.222656 233.585938 245.300781 L 231.515625 242.449219 C 231.125 241.90625 231.246094 241.152344 231.785156 240.761719 C 232.289062 240.394531 232.984375 240.480469 233.394531 240.933594 L 233.429688 240.976562 L 235.703125 243.542969 C 236.496094 244.363281 237.257812 245.210938 238.070312 246.003906 C 238.882812 246.796875 239.679688 247.605469 240.53125 248.359375 C 241.355469 249.132812 242.21875 249.863281 243.082031 250.589844 C 244.820312 252.023438 246.609375 253.378906 248.46875 254.59375 C 249.402344 255.191406 250.34375 255.773438 251.300781 256.292969 C 251.773438 256.5625 252.257812 256.800781 252.734375 257.035156 C 252.96875 257.144531 253.210938 257.269531 253.445312 257.367188 C 253.664062 257.464844 253.941406 257.578125 254.070312 257.621094 C 255.425781 258.054688 256.171875 259.503906 255.738281 260.855469 C 255.308594 262.210938 253.859375 262.957031 252.503906 262.523438 C 252.398438 262.492188 252.300781 262.449219 252.203125 262.40625 Z M 252.105469 262.359375 " fill-opacity="1" fill-rule="nonzero"/><path fill="#000072" d="M 119.394531 245.484375 C 120.011719 241.339844 120.773438 237.335938 121.628906 233.300781 C 122.492188 229.28125 123.453125 225.28125 124.5625 221.316406 C 125.6875 217.355469 126.917969 213.421875 128.375 209.558594 C 129.859375 205.703125 131.527344 201.910156 133.574219 198.285156 C 133.890625 197.726562 134.597656 197.527344 135.160156 197.84375 C 135.695312 198.148438 135.902344 198.816406 135.632812 199.367188 L 135.621094 199.390625 C 133.867188 202.972656 132.460938 206.730469 131.238281 210.550781 C 130.035156 214.382812 129.058594 218.289062 128.179688 222.21875 C 127.320312 226.152344 126.609375 230.121094 125.988281 234.101562 C 125.378906 238.074219 124.851562 242.109375 124.496094 246.050781 L 124.492188 246.089844 C 124.367188 247.5 123.121094 248.542969 121.707031 248.417969 C 120.296875 248.289062 119.253906 247.042969 119.378906 245.628906 C 119.382812 245.585938 119.390625 245.527344 119.394531 245.484375 Z M 119.394531 245.484375 " fill-opacity="1" fill-rule="nonzero"/><path fill="#000072" d="M 187.972656 316.96875 C 186.808594 316.96875 185.753906 316.171875 185.476562 314.988281 L 183.785156 307.777344 C 183.460938 306.398438 184.316406 305.019531 185.695312 304.695312 C 187.074219 304.371094 188.457031 305.226562 188.78125 306.605469 L 190.472656 313.816406 C 190.796875 315.195312 189.941406 316.578125 188.5625 316.902344 C 188.367188 316.949219 188.167969 316.96875 187.972656 316.96875 Z M 187.972656 316.96875 " fill-opacity="1" fill-rule="nonzero"/><path fill="#000072" d="M 140.5625 291.300781 C 141.136719 291.667969 141.777344 292.082031 142.40625 292.453125 C 143.027344 292.839844 143.664062 293.214844 144.308594 293.578125 C 145.582031 294.316406 146.878906 295.023438 148.195312 295.6875 C 149.5 296.367188 150.820312 297.011719 152.164062 297.605469 C 153.496094 298.21875 154.84375 298.800781 156.207031 299.332031 C 161.652344 301.460938 167.277344 303.082031 173.015625 303.847656 C 175.882812 304.222656 178.773438 304.429688 181.664062 304.402344 C 182.390625 304.410156 183.109375 304.347656 183.832031 304.324219 L 184.917969 304.277344 L 186 304.167969 C 186.71875 304.085938 187.445312 304.035156 188.164062 303.945312 L 190.320312 303.621094 C 196.0625 302.660156 201.652344 300.730469 207.101562 298.238281 L 207.121094 298.230469 C 207.535156 298.039062 208.027344 298.222656 208.214844 298.636719 C 208.382812 299.003906 208.261719 299.425781 207.941406 299.652344 C 205.4375 301.429688 202.796875 303.070312 199.96875 304.371094 C 197.164062 305.726562 194.195312 306.753906 191.15625 307.546875 C 188.117188 308.363281 184.984375 308.765625 181.84375 309.007812 C 178.691406 309.222656 175.53125 309.078125 172.402344 308.734375 C 166.136719 308.015625 160.046875 306.203125 154.378906 303.605469 C 152.964844 302.949219 151.566406 302.261719 150.203125 301.515625 C 148.839844 300.765625 147.507812 299.960938 146.195312 299.128906 C 144.898438 298.273438 143.621094 297.394531 142.390625 296.449219 C 141.152344 295.492188 139.972656 294.535156 138.804688 293.398438 C 138.261719 292.871094 138.246094 292 138.777344 291.457031 C 139.242188 290.980469 139.96875 290.910156 140.507812 291.257812 Z M 140.5625 291.300781 " fill-opacity="1" fill-rule="nonzero"/><path fill="#000072" d="M 175.972656 124.5625 C 179.710938 121.863281 192.261719 126.210938 193.5 130.128906 C 194.738281 134.042969 186.078125 137.546875 182.367188 136.722656 C 178.652344 135.898438 172.261719 127.242188 175.972656 124.5625 Z M 175.972656 124.5625 " fill-opacity="1" fill-rule="nonzero"/><path fill="#000072" d="M 180.878906 152.082031 C 179.535156 152.082031 178.40625 151.035156 178.320312 149.675781 C 177.902344 142.984375 179.785156 134.710938 179.863281 134.359375 C 180.183594 132.980469 181.558594 132.121094 182.941406 132.4375 C 184.320312 132.753906 185.183594 134.128906 184.867188 135.511719 C 184.847656 135.589844 183.070312 143.417969 183.445312 149.355469 C 183.53125 150.769531 182.457031 151.988281 181.042969 152.078125 C 180.988281 152.078125 180.933594 152.082031 180.878906 152.082031 Z M 180.878906 152.082031 " fill-opacity="1" fill-rule="nonzero"/><path fill="#000072" d="M 189.757812 154.984375 C 189.59375 154.984375 189.433594 154.984375 189.265625 154.976562 C 187.058594 154.90625 183.871094 154.292969 180.59375 151.933594 C 179.136719 152.535156 176.902344 153.085938 174.1875 152.535156 C 171.660156 152.019531 169.253906 150.640625 167.027344 148.441406 C 166.015625 147.445312 166.007812 145.824219 167.003906 144.816406 C 168 143.808594 169.625 143.796875 170.632812 144.792969 C 172.140625 146.28125 173.679688 147.195312 175.214844 147.511719 C 177.621094 147.996094 179.320312 146.847656 179.390625 146.800781 C 180.359375 146.085938 181.667969 146.164062 182.574219 146.957031 C 184.675781 148.796875 186.980469 149.769531 189.433594 149.851562 C 191.332031 149.914062 192.640625 149.402344 192.652344 149.398438 C 193.960938 148.878906 195.453125 149.507812 195.984375 150.808594 C 196.519531 152.113281 195.914062 153.59375 194.617188 154.136719 C 194.398438 154.230469 192.511719 154.984375 189.757812 154.984375 Z M 189.757812 154.984375 " fill-opacity="1" fill-rule="nonzero"/><path fill="#ffffff" d="M 238.863281 83.953125 C 246.777344 86.585938 251.648438 97.351562 248.96875 100.03125 C 246.285156 102.710938 232.058594 95.910156 231.234375 90.34375 C 230.410156 84.777344 235.765625 82.921875 238.863281 83.953125 Z M 238.863281 83.953125 " fill-opacity="1" fill-rule="nonzero"/><path fill="#ffffff" d="M 173.5 66.226562 C 176.542969 68.359375 175.175781 74.265625 170.613281 76.53125 C 166.171875 78.738281 153.023438 77.484375 153.085938 71.378906 C 153.144531 65.476562 169.375 63.339844 173.5 66.226562 Z M 173.5 66.226562 " fill-opacity="1" fill-rule="nonzero"/><path fill="#000072" d="M 189.347656 152.414062 C 189.113281 153.265625 188.765625 154.214844 188.324219 155.191406 C 186.53125 159.15625 183.121094 163.445312 178.488281 162.425781 C 178.476562 162.425781 178.460938 162.417969 178.449219 162.417969 C 172.265625 161.019531 173.574219 155.691406 174.699219 150.023438 C 178.335938 150.757812 180.882812 148.886719 180.882812 148.886719 C 183.933594 151.5625 186.996094 152.335938 189.347656 152.414062 Z M 189.347656 152.414062 " fill-opacity="1" fill-rule="nonzero"/><path fill="#ff859d" d="M 188.324219 155.191406 C 186.53125 159.15625 183.121094 163.445312 178.488281 162.425781 C 178.257812 161.738281 178.136719 160.992188 178.136719 160.226562 C 178.136719 156.582031 180.90625 153.625 184.324219 153.625 C 185.847656 153.625 187.246094 154.214844 188.324219 155.191406 Z M 188.324219 155.191406 " fill-opacity="1" fill-rule="nonzero"/><path fill="#000072" d="M 179.859375 165.140625 C 179.246094 165.140625 178.625 165.078125 178 164.945312 C 177.960938 164.9375 177.921875 164.929688 177.882812 164.921875 C 169.484375 163.019531 170.972656 155.574219 172.058594 150.136719 L 172.179688 149.523438 C 172.3125 148.855469 172.707031 148.265625 173.273438 147.886719 C 173.84375 147.507812 174.539062 147.371094 175.207031 147.507812 C 177.617188 148 179.320312 146.847656 179.390625 146.796875 C 180.359375 146.085938 181.667969 146.164062 182.574219 146.957031 C 184.671875 148.796875 186.980469 149.769531 189.433594 149.847656 C 190.21875 149.875 190.953125 150.257812 191.417969 150.894531 C 191.882812 151.527344 192.03125 152.339844 191.820312 153.101562 C 191.539062 154.113281 191.148438 155.171875 190.660156 156.25 C 188.089844 161.945312 184.148438 165.140625 179.859375 165.140625 Z M 178.957031 159.902344 C 178.984375 159.90625 179.011719 159.914062 179.039062 159.917969 C 182.472656 160.671875 184.957031 156.289062 185.832031 154.457031 C 184.21875 154.019531 182.421875 153.246094 180.59375 151.929688 C 179.632812 152.328125 178.332031 152.703125 176.78125 152.753906 C 175.832031 158.046875 176.304688 159.285156 178.957031 159.902344 Z M 178.957031 159.902344 " fill-opacity="1" fill-rule="nonzero"/><path fill="#000072" d="M 276.601562 103.628906 C 276.585938 103.628906 276.570312 103.628906 276.554688 103.628906 C 275.136719 103.605469 274.007812 102.4375 274.035156 101.019531 C 274.136719 95.027344 273.363281 89.085938 271.730469 83.363281 C 267.773438 69.441406 259.359375 58.828125 253 52.375 C 246.375 45.65625 240.65625 42.050781 240.597656 42.015625 C 239.398438 41.265625 239.03125 39.683594 239.78125 38.484375 C 240.53125 37.28125 242.113281 36.914062 243.3125 37.664062 C 243.566406 37.820312 249.574219 41.59375 256.652344 48.773438 C 263.4375 55.652344 272.414062 66.992188 276.667969 81.957031 C 278.4375 88.164062 279.277344 94.609375 279.164062 101.109375 C 279.140625 102.511719 277.996094 103.628906 276.601562 103.628906 Z M 276.601562 103.628906 " fill-opacity="1" fill-rule="nonzero"/><path fill="#000072" d="M 129.375 74.5625 C 129.023438 74.5625 128.667969 74.488281 128.332031 74.339844 C 127.035156 73.761719 126.457031 72.246094 127.03125 70.949219 C 130.519531 63.140625 134.738281 56.140625 139.574219 50.148438 C 147.664062 40.117188 157.441406 32.8125 168.632812 28.4375 C 179.933594 24.007812 188.5 24.277344 188.859375 24.292969 C 190.273438 24.347656 191.378906 25.539062 191.324219 26.953125 C 191.269531 28.371094 190.070312 29.46875 188.664062 29.417969 C 188.589844 29.417969 180.746094 29.203125 170.503906 33.214844 C 160.152344 37.261719 151.089844 44.042969 143.570312 53.367188 C 139.011719 59.015625 135.023438 65.636719 131.71875 73.042969 C 131.292969 73.996094 130.355469 74.5625 129.375 74.5625 Z M 129.375 74.5625 " fill-opacity="1" fill-rule="nonzero"/><path fill="#ff859d" d="M 274.199219 82.660156 C 270.21875 68.640625 261.980469 57.828125 254.828125 50.574219 C 263.203125 46.011719 277.332031 39.300781 281.679688 43.277344 C 286.75 47.902344 280.339844 69.460938 274.199219 82.660156 Z M 274.199219 82.660156 " fill-opacity="1" fill-rule="nonzero"/><path fill="#ff859d" d="M 169.566406 30.824219 C 160.988281 34.179688 150.757812 40.367188 141.570312 51.757812 C 143.125 38.976562 146.445312 21.148438 153.085938 18.542969 C 159.796875 15.914062 165.972656 24.367188 169.566406 30.824219 Z M 169.566406 30.824219 " fill-opacity="1" fill-rule="nonzero"/><path fill="#000072" d="M 274.203125 85.226562 C 274.132812 85.226562 274.066406 85.222656 273.996094 85.21875 C 272.929688 85.132812 272.023438 84.394531 271.730469 83.363281 C 267.777344 69.441406 259.363281 58.828125 253 52.378906 C 252.433594 51.804688 252.171875 51 252.289062 50.203125 C 252.40625 49.40625 252.890625 48.710938 253.597656 48.324219 C 277.03125 35.554688 281.835938 39.945312 283.414062 41.386719 C 292.167969 49.375 276.6875 83.402344 276.527344 83.742188 C 276.105469 84.652344 275.191406 85.226562 274.203125 85.226562 Z M 259.011719 51.257812 C 264.320312 57.070312 270.40625 65.265625 274.472656 75.507812 C 276.636719 70.023438 278.507812 64.160156 279.640625 59.183594 C 282.261719 47.683594 280.195312 45.398438 279.949219 45.175781 C 278.671875 44.003906 272.835938 44.109375 259.011719 51.257812 Z M 259.011719 51.257812 " fill-opacity="1" fill-rule="nonzero"/><path fill="#000072" d="M 141.570312 54.320312 C 141.234375 54.320312 140.894531 54.257812 140.570312 54.117188 C 139.515625 53.675781 138.886719 52.582031 139.023438 51.445312 C 140.035156 43.125 141.355469 36.117188 142.957031 30.617188 C 145.355469 22.371094 148.359375 17.640625 152.148438 16.15625 C 156.71875 14.367188 163.832031 15.242188 171.808594 29.578125 C 172.167969 30.222656 172.230469 30.996094 171.980469 31.691406 C 171.730469 32.390625 171.191406 32.945312 170.5 33.214844 C 160.152344 37.261719 151.089844 44.039062 143.570312 53.367188 C 143.070312 53.984375 142.328125 54.320312 141.570312 54.320312 Z M 155.597656 20.632812 C 155.070312 20.632812 154.542969 20.726562 154.023438 20.929688 C 151.359375 21.976562 147.867188 28.605469 145.308594 43.769531 C 151.414062 37.699219 158.292969 32.953125 165.855469 29.59375 C 163.417969 25.71875 159.472656 20.632812 155.597656 20.632812 Z M 155.597656 20.632812 " fill-opacity="1" fill-rule="nonzero"/><path fill="#000072" d="M 195.640625 342.820312 C 195.972656 342.769531 196.179688 342.757812 196.429688 342.734375 C 196.675781 342.710938 196.90625 342.703125 197.144531 342.6875 C 197.613281 342.664062 198.078125 342.644531 198.535156 342.644531 C 199.457031 342.632812 200.363281 342.660156 201.261719 342.707031 C 203.066406 342.804688 204.839844 343 206.597656 343.257812 C 208.351562 343.535156 210.089844 343.867188 211.800781 344.28125 C 212.660156 344.46875 213.503906 344.71875 214.351562 344.933594 C 215.195312 345.171875 216.03125 345.429688 216.867188 345.675781 C 217.347656 345.820312 217.625 346.324219 217.484375 346.808594 C 217.355469 347.242188 216.929688 347.507812 216.496094 347.453125 L 216.457031 347.445312 L 213.925781 347.121094 C 213.078125 347.046875 212.238281 346.9375 211.394531 346.890625 C 209.707031 346.761719 208.019531 346.714844 206.347656 346.722656 C 204.671875 346.746094 203.003906 346.828125 201.367188 347.007812 C 200.550781 347.097656 199.734375 347.203125 198.941406 347.34375 C 198.542969 347.40625 198.152344 347.488281 197.765625 347.570312 C 197.578125 347.613281 197.382812 347.652344 197.203125 347.699219 C 197.03125 347.742188 196.8125 347.796875 196.726562 347.832031 C 195.390625 348.359375 193.886719 347.707031 193.359375 346.375 C 192.832031 345.042969 193.484375 343.535156 194.816406 343.011719 C 195 342.9375 195.1875 342.890625 195.371094 342.859375 Z M 195.640625 342.820312 " fill-opacity="1" fill-rule="nonzero"/><path fill="#000072" d="M 133.464844 338.445312 C 133.757812 338.4375 133.921875 338.445312 134.128906 338.453125 C 134.335938 338.457031 134.519531 338.472656 134.714844 338.484375 C 135.09375 338.515625 135.46875 338.542969 135.839844 338.589844 C 136.578125 338.671875 137.300781 338.785156 138.019531 338.914062 C 139.449219 339.171875 140.847656 339.515625 142.222656 339.902344 C 143.59375 340.308594 144.941406 340.753906 146.257812 341.265625 C 146.921875 341.503906 147.5625 341.792969 148.214844 342.058594 L 150.132812 342.921875 C 150.730469 343.191406 150.996094 343.890625 150.726562 344.488281 C 150.488281 345.023438 149.898438 345.292969 149.347656 345.148438 L 149.296875 345.136719 L 147.351562 344.628906 C 146.699219 344.484375 146.054688 344.316406 145.398438 344.199219 C 144.09375 343.929688 142.78125 343.730469 141.476562 343.578125 C 140.171875 343.4375 138.867188 343.34375 137.578125 343.332031 C 136.933594 343.328125 136.292969 343.335938 135.667969 343.371094 C 135.351562 343.382812 135.046875 343.414062 134.742188 343.441406 C 134.597656 343.460938 134.4375 343.472656 134.300781 343.492188 C 134.171875 343.511719 133.992188 343.535156 133.945312 343.554688 C 132.585938 344.070312 131.066406 343.390625 130.546875 342.03125 C 130.027344 340.675781 130.710938 339.152344 132.066406 338.636719 C 132.34375 338.53125 132.628906 338.472656 132.910156 338.464844 Z M 133.464844 338.445312 " fill-opacity="1" fill-rule="nonzero"/><path fill="#ff859d" d="M 310.207031 222.371094 C 310.207031 223.011719 310.148438 223.648438 310.035156 224.28125 C 309.917969 224.910156 309.746094 225.523438 309.519531 226.117188 C 309.289062 226.710938 309.011719 227.273438 308.679688 227.808594 C 308.347656 228.34375 307.972656 228.839844 307.550781 229.292969 C 307.128906 229.746094 306.671875 230.152344 306.175781 230.511719 C 305.679688 230.867188 305.15625 231.167969 304.605469 231.414062 C 304.058594 231.660156 303.488281 231.847656 302.90625 231.972656 C 302.320312 232.097656 301.730469 232.160156 301.136719 232.160156 C 300.539062 232.160156 299.949219 232.097656 299.363281 231.972656 C 298.78125 231.847656 298.214844 231.660156 297.664062 231.414062 C 297.113281 231.167969 296.589844 230.867188 296.09375 230.511719 C 295.597656 230.152344 295.140625 229.746094 294.71875 229.292969 C 294.296875 228.839844 293.921875 228.34375 293.589844 227.808594 C 293.261719 227.273438 292.980469 226.710938 292.753906 226.117188 C 292.523438 225.523438 292.351562 224.910156 292.234375 224.28125 C 292.121094 223.648438 292.0625 223.011719 292.0625 222.371094 C 292.0625 221.726562 292.121094 221.089844 292.234375 220.460938 C 292.351562 219.828125 292.523438 219.214844 292.753906 218.621094 C 292.980469 218.027344 293.261719 217.464844 293.589844 216.929688 C 293.921875 216.394531 294.296875 215.902344 294.71875 215.445312 C 295.140625 214.992188 295.597656 214.585938 296.09375 214.226562 C 296.589844 213.871094 297.113281 213.570312 297.664062 213.324219 C 298.214844 213.078125 298.78125 212.890625 299.363281 212.765625 C 299.949219 212.640625 300.539062 212.578125 301.136719 212.578125 C 301.730469 212.578125 302.320312 212.640625 302.90625 212.765625 C 303.488281 212.890625 304.058594 213.078125 304.605469 213.324219 C 305.15625 213.570312 305.679688 213.871094 306.175781 214.226562 C 306.671875 214.585938 307.128906 214.992188 307.550781 215.445312 C 307.972656 215.902344 308.347656 216.394531 308.679688 216.929688 C 309.011719 217.464844 309.289062 218.027344 309.519531 218.621094 C 309.746094 219.214844 309.917969 219.828125 310.035156 220.460938 C 310.148438 221.089844 310.207031 221.726562 310.207031 222.371094 Z M 310.207031 222.371094 " fill-opacity="1" fill-rule="nonzero"/><path fill="#ff859d" d="M 322.46875 223.058594 C 322.46875 223.570312 322.378906 224.066406 322.195312 224.542969 C 322.011719 225.019531 321.753906 225.4375 321.414062 225.800781 C 321.078125 226.164062 320.691406 226.445312 320.25 226.644531 C 319.808594 226.839844 319.347656 226.9375 318.871094 226.9375 C 318.394531 226.9375 317.9375 226.839844 317.496094 226.644531 C 317.054688 226.445312 316.667969 226.164062 316.328125 225.800781 C 315.992188 225.4375 315.730469 225.019531 315.550781 224.542969 C 315.367188 224.066406 315.277344 223.570312 315.277344 223.058594 C 315.277344 222.542969 315.367188 222.046875 315.550781 221.570312 C 315.730469 221.09375 315.992188 220.675781 316.328125 220.3125 C 316.667969 219.949219 317.054688 219.667969 317.496094 219.46875 C 317.9375 219.273438 318.394531 219.175781 318.871094 219.175781 C 319.347656 219.175781 319.808594 219.273438 320.25 219.46875 C 320.691406 219.667969 321.078125 219.949219 321.414062 220.3125 C 321.753906 220.675781 322.011719 221.09375 322.195312 221.570312 C 322.378906 222.046875 322.46875 222.542969 322.46875 223.058594 Z M 322.46875 223.058594 " fill-opacity="1" fill-rule="nonzero"/><path fill="#ff859d" d="M 318.871094 237.210938 C 318.871094 237.726562 318.78125 238.222656 318.597656 238.695312 C 318.414062 239.171875 318.15625 239.59375 317.816406 239.957031 C 317.480469 240.320312 317.089844 240.601562 316.652344 240.796875 C 316.210938 240.996094 315.75 241.09375 315.273438 241.09375 C 314.796875 241.09375 314.339844 240.996094 313.898438 240.796875 C 313.457031 240.601562 313.070312 240.320312 312.730469 239.957031 C 312.394531 239.59375 312.132812 239.171875 311.953125 238.695312 C 311.769531 238.222656 311.679688 237.726562 311.679688 237.210938 C 311.679688 236.695312 311.769531 236.203125 311.953125 235.726562 C 312.132812 235.25 312.394531 234.832031 312.730469 234.464844 C 313.070312 234.101562 313.457031 233.820312 313.898438 233.625 C 314.339844 233.429688 314.796875 233.328125 315.273438 233.328125 C 315.75 233.328125 316.210938 233.429688 316.652344 233.625 C 317.089844 233.820312 317.480469 234.101562 317.816406 234.464844 C 318.15625 234.832031 318.414062 235.25 318.597656 235.726562 C 318.78125 236.203125 318.871094 236.695312 318.871094 237.210938 Z M 318.871094 237.210938 " fill-opacity="1" fill-rule="nonzero"/><path fill="#ff859d" d="M 307.460938 241.710938 C 307.460938 242.226562 307.371094 242.722656 307.1875 243.195312 C 307.007812 243.671875 306.746094 244.09375 306.410156 244.457031 C 306.070312 244.820312 305.683594 245.101562 305.242188 245.296875 C 304.800781 245.496094 304.34375 245.59375 303.867188 245.59375 C 303.390625 245.59375 302.929688 245.496094 302.488281 245.296875 C 302.046875 245.101562 301.660156 244.820312 301.324219 244.457031 C 300.984375 244.09375 300.726562 243.671875 300.542969 243.195312 C 300.359375 242.722656 300.269531 242.226562 300.269531 241.710938 C 300.269531 241.195312 300.359375 240.703125 300.542969 240.226562 C 300.726562 239.75 300.984375 239.332031 301.324219 238.964844 C 301.660156 238.601562 302.046875 238.320312 302.488281 238.125 C 302.929688 237.929688 303.390625 237.828125 303.867188 237.828125 C 304.34375 237.828125 304.800781 237.929688 305.242188 238.125 C 305.683594 238.320312 306.070312 238.601562 306.410156 238.964844 C 306.746094 239.332031 307.007812 239.75 307.1875 240.226562 C 307.371094 240.703125 307.460938 241.195312 307.460938 241.710938 Z M 307.460938 241.710938 " fill-opacity="1" fill-rule="nonzero"/><path fill="#000072" d="M 288.5 251.390625 C 288.246094 251.117188 288.082031 250.917969 287.894531 250.6875 C 287.710938 250.460938 287.542969 250.238281 287.371094 250.015625 C 287.03125 249.566406 286.707031 249.113281 286.398438 248.652344 C 285.777344 247.734375 285.199219 246.796875 284.679688 245.828125 C 284.152344 244.867188 283.671875 243.886719 283.253906 242.878906 C 282.820312 241.878906 282.46875 240.847656 282.144531 239.816406 C 281.957031 239.214844 282.289062 238.574219 282.894531 238.382812 C 283.410156 238.21875 283.957031 238.441406 284.222656 238.886719 L 284.246094 238.929688 C 284.753906 239.789062 285.273438 240.628906 285.867188 241.421875 C 286.441406 242.222656 287.066406 242.984375 287.71875 243.714844 C 288.367188 244.445312 289.054688 245.140625 289.765625 245.796875 C 290.121094 246.125 290.484375 246.441406 290.851562 246.746094 L 291.398438 247.1875 C 291.574219 247.324219 291.785156 247.480469 291.910156 247.554688 C 293.140625 248.300781 293.53125 249.902344 292.785156 251.132812 C 292.039062 252.359375 290.441406 252.75 289.210938 252.007812 C 289.003906 251.882812 288.820312 251.734375 288.664062 251.566406 Z M 288.5 251.390625 " fill-opacity="1" fill-rule="nonzero"/><path fill="#39005e" d="M 278.484375 209.863281 C 279.710938 209.136719 281.101562 208.425781 282.667969 207.757812 C 281.246094 208.394531 279.847656 209.097656 278.484375 209.863281 Z M 278.484375 209.863281 " fill-opacity="0.2" fill-rule="nonzero"/><path fill="#000072" d="M 278.394531 154.832031 L 278.394531 154.835938 C 277.015625 165.878906 272.492188 177.570312 260.894531 186.015625 C 260.6875 186.15625 260.484375 186.304688 260.273438 186.457031 C 260.125 186.566406 259.972656 186.671875 259.816406 186.773438 C 259.726562 186.835938 259.644531 186.894531 259.554688 186.953125 C 259.386719 187.0625 259.226562 187.175781 259.058594 187.285156 C 258.320312 187.773438 257.558594 188.246094 256.761719 188.710938 C 256.460938 188.882812 256.152344 189.054688 255.839844 189.230469 C 238.539062 198.355469 212.660156 195.070312 212.660156 195.070312 C 217.914062 196.464844 220.691406 200.414062 222.140625 205.597656 C 198.816406 205.648438 173.734375 200.652344 151.460938 192.359375 C 155.140625 187.734375 159.933594 187.699219 159.933594 187.699219 C 145.925781 182.84375 135.871094 177.179688 128.546875 171.300781 C 115.203125 159.492188 106.710938 141.199219 106.894531 122.828125 C 106.894531 122.476562 106.910156 122.125 106.914062 121.769531 C 106.972656 119.566406 107.160156 117.351562 107.484375 115.160156 C 107.433594 116.320312 107.425781 117.472656 107.480469 118.625 C 107.503906 119.316406 107.550781 120.003906 107.613281 120.6875 C 109.222656 138.792969 122.503906 155.046875 138.757812 163.789062 C 176.804688 184.253906 235.027344 192.148438 254.671875 159.910156 C 258.058594 154.347656 259.507812 147.921875 260.445312 141.425781 C 261.007812 141.484375 261.585938 141.570312 262.164062 141.671875 C 276.179688 144.140625 278.394531 154.832031 278.394531 154.832031 Z M 278.394531 154.832031 " fill-opacity="0.15" fill-rule="nonzero"/><path fill="#000072" d="M 90.011719 216.074219 C 87.167969 219.132812 84.339844 222.980469 81.742188 227.828125 C 81.742188 227.828125 71.117188 236.769531 59.96875 228.625 C 57.59375 226.464844 55.855469 223.621094 55.242188 220.472656 C 54.1875 215.085938 56.75 209.039062 61.609375 206.492188 C 62.496094 212.195312 69.578125 215.535156 75.757812 215.90625 C 80.492188 216.191406 85.367188 215.484375 90.011719 216.074219 Z M 90.011719 216.074219 " fill-opacity="0.15" fill-rule="nonzero"/><path fill="#000072" d="M 181.699219 355.882812 C 181.699219 355.882812 181.699219 355.886719 181.695312 355.886719 C 178.4375 360.882812 171.878906 363.1875 165.8125 364.140625 C 155.632812 365.746094 145.082031 365.011719 135.21875 362.027344 C 130.886719 360.714844 126.449219 358.789062 123.902344 355.054688 C 122.773438 353.402344 122.203125 351.308594 122.265625 349.296875 C 122.335938 346.769531 123.386719 344.363281 125.5625 343.09375 C 125.75 343.28125 125.933594 343.460938 126.128906 343.640625 C 133.382812 350.410156 144.058594 353.363281 153.765625 351.234375 C 160.421875 349.769531 167.160156 345.121094 167.914062 338.34375 C 168.050781 337.09375 168.132812 335.398438 168.113281 333.480469 C 176.78125 335.628906 182.605469 338.316406 182.605469 338.316406 C 182.578125 338.996094 182.566406 339.683594 182.566406 340.375 C 182.566406 346.777344 183.066406 351.925781 181.699219 355.882812 Z M 181.699219 355.882812 " fill-opacity="0.15" fill-rule="nonzero"/><path fill="#000072" d="M 252.703125 345.949219 C 252.445312 347.265625 252.15625 348.5 251.847656 349.65625 C 245.050781 375.007812 206.078125 369.445312 195.558594 366.347656 C 195.398438 366.304688 195.242188 366.253906 195.089844 366.203125 C 194.933594 366.152344 194.78125 366.09375 194.632812 366.035156 C 194.015625 365.804688 193.445312 365.527344 192.921875 365.21875 C 192.8125 365.15625 192.707031 365.089844 192.613281 365.027344 C 191.035156 364.03125 189.867188 362.707031 189.097656 361.207031 C 189.046875 361.101562 188.996094 361.007812 188.949219 360.898438 C 188.886719 360.769531 188.828125 360.636719 188.769531 360.5 C 188.730469 360.410156 188.691406 360.316406 188.660156 360.21875 C 188.617188 360.109375 188.570312 359.996094 188.53125 359.875 C 188.457031 359.640625 188.386719 359.410156 188.320312 359.167969 C 188.230469 358.8125 188.152344 358.449219 188.097656 358.089844 C 188.097656 358.078125 188.097656 358.0625 188.089844 358.050781 C 188.066406 357.839844 188.039062 357.621094 188.019531 357.410156 C 188.019531 357.390625 188.015625 357.371094 188.015625 357.351562 L 188.015625 357.347656 C 188.667969 354.152344 190.304688 351.292969 193.089844 349.386719 C 193.359375 348.773438 194.0625 347.457031 194.800781 345.898438 C 195.738281 343.929688 196.714844 341.578125 196.914062 339.738281 C 196.917969 339.710938 196.917969 339.679688 196.917969 339.652344 C 196.9375 339.472656 196.949219 339.300781 196.949219 339.132812 L 196.949219 339.101562 C 196.976562 338.523438 196.996094 337.921875 196.996094 337.289062 C 197.199219 337.242188 201.191406 336.382812 207.277344 335.933594 C 207.304688 339.519531 207.039062 342.660156 206.425781 344.988281 C 198.675781 347.316406 195.808594 352.550781 198.96875 355.402344 C 202.132812 358.25 206.71875 359.054688 210.941406 358.566406 C 220.734375 357.429688 228.984375 350.050781 233.4375 341.25 C 233.96875 340.207031 234.449219 339.140625 234.894531 338.0625 C 240.996094 339.625 247.128906 342.113281 252.703125 345.949219 Z M 252.703125 345.949219 " fill-opacity="0.15" fill-rule="nonzero"/><path fill="#000072" d="M 322.996094 247.003906 C 313.097656 258.128906 297.011719 254.425781 290.207031 249.472656 C 290.207031 249.472656 288.746094 254 284.144531 257.804688 C 277.683594 251.9375 274.566406 244.605469 273.234375 237.5625 C 274.578125 236.777344 275.84375 235.84375 276.996094 234.800781 C 279.886719 232.183594 284.542969 231.082031 287.480469 233.640625 C 300.085938 244.59375 310.722656 243.386719 315.277344 237.210938 C 319.515625 231.464844 316.785156 225.753906 318.128906 224.925781 C 322.722656 222.121094 325.351562 230.222656 326.886719 234.6875 C 329.542969 221.839844 319.34375 208.367188 306.648438 205.128906 C 304.859375 204.671875 303.046875 204.378906 301.234375 204.25 C 302.273438 204.25 303.335938 204.277344 304.433594 204.332031 C 328.5625 205.570312 332.890625 235.871094 322.996094 247.003906 Z M 322.996094 247.003906 " fill-opacity="0.15" fill-rule="nonzero"/><path fill="#39005e" d="M 188.542969 312.242188 C 189.226562 313.449219 189.867188 314.679688 190.472656 315.925781 C 190.082031 315.730469 189.714844 315.488281 189.382812 315.207031 C 188.753906 314.679688 188.246094 314.027344 187.867188 313.296875 C 188.085938 312.945312 188.308594 312.589844 188.542969 312.242188 Z M 188.542969 312.242188 " fill-opacity="1" fill-rule="nonzero"/><path fill="#39005e" d="M 270.660156 215.300781 C 273.027344 213.304688 275.605469 211.503906 278.324219 209.957031 C 276.710938 210.921875 275.386719 211.890625 274.328125 212.761719 L 274.328125 212.765625 C 272.058594 214.636719 271.03125 216.082031 271.03125 216.082031 C 270.914062 215.820312 270.789062 215.5625 270.660156 215.300781 Z M 270.660156 215.300781 " fill-opacity="1" fill-rule="nonzero"/><path fill="#39005e" d="M 301.226562 204.25 C 293.707031 204.25 287.78125 205.667969 283.238281 207.515625 C 288.976562 205.058594 295.140625 203.789062 301.226562 204.25 Z M 301.226562 204.25 " fill-opacity="1" fill-rule="nonzero"/><path fill="#000072" d="M 157.550781 88.027344 C 158.386719 88.152344 159.199219 88.375 159.988281 88.695312 C 160.777344 89.019531 161.527344 89.4375 162.242188 89.949219 C 162.957031 90.460938 163.617188 91.054688 164.226562 91.738281 C 164.839844 92.417969 165.386719 93.167969 165.867188 93.992188 C 166.351562 94.816406 166.761719 95.695312 167.097656 96.628906 C 167.4375 97.566406 167.695312 98.539062 167.875 99.546875 C 168.054688 100.558594 168.148438 101.585938 168.164062 102.632812 C 168.175781 103.679688 168.109375 104.722656 167.957031 105.765625 C 167.804688 106.808594 167.570312 107.832031 167.257812 108.828125 C 166.945312 109.828125 166.558594 110.785156 166.101562 111.703125 C 165.640625 112.621094 165.113281 113.476562 164.523438 114.277344 C 163.933594 115.078125 163.289062 115.800781 162.589844 116.453125 C 161.890625 117.105469 161.152344 117.667969 160.371094 118.148438 C 159.59375 118.625 158.789062 119.007812 157.957031 119.292969 C 157.128906 119.582031 156.289062 119.765625 155.4375 119.847656 C 154.589844 119.933594 153.746094 119.914062 152.914062 119.792969 C 152.078125 119.671875 151.265625 119.449219 150.472656 119.125 C 149.683594 118.800781 148.933594 118.386719 148.21875 117.875 C 147.503906 117.363281 146.84375 116.765625 146.234375 116.085938 C 145.625 115.402344 145.078125 114.652344 144.59375 113.828125 C 144.109375 113.003906 143.699219 112.125 143.363281 111.191406 C 143.023438 110.253906 142.765625 109.285156 142.585938 108.273438 C 142.410156 107.261719 142.3125 106.234375 142.296875 105.1875 C 142.285156 104.140625 142.355469 103.097656 142.507812 102.054688 C 142.660156 101.011719 142.890625 99.992188 143.203125 98.992188 C 143.515625 97.992188 143.902344 97.035156 144.363281 96.117188 C 144.824219 95.199219 145.347656 94.34375 145.9375 93.542969 C 146.53125 92.746094 147.175781 92.019531 147.871094 91.367188 C 148.570312 90.714844 149.308594 90.152344 150.089844 89.675781 C 150.867188 89.195312 151.671875 88.8125 152.503906 88.527344 C 153.332031 88.242188 154.171875 88.054688 155.023438 87.972656 C 155.871094 87.886719 156.714844 87.90625 157.550781 88.027344 Z M 157.550781 88.027344 " fill-opacity="1" fill-rule="nonzero"/><path fill="#ffffff" d="M 160.820312 95.085938 C 161.101562 95.125 161.375 95.203125 161.640625 95.320312 C 161.902344 95.4375 162.15625 95.59375 162.394531 95.789062 C 162.632812 95.980469 162.855469 96.207031 163.058594 96.46875 C 163.261719 96.734375 163.441406 97.023438 163.601562 97.34375 C 163.761719 97.664062 163.894531 98.007812 164.007812 98.371094 C 164.117188 98.738281 164.199219 99.117188 164.253906 99.515625 C 164.3125 99.914062 164.339844 100.320312 164.339844 100.734375 C 164.339844 101.148438 164.3125 101.5625 164.257812 101.976562 C 164.203125 102.390625 164.121094 102.800781 164.011719 103.199219 C 163.902344 103.597656 163.765625 103.980469 163.605469 104.351562 C 163.449219 104.71875 163.265625 105.066406 163.066406 105.390625 C 162.863281 105.714844 162.640625 106.007812 162.402344 106.273438 C 162.164062 106.542969 161.914062 106.773438 161.648438 106.972656 C 161.382812 107.171875 161.109375 107.332031 160.828125 107.457031 C 160.546875 107.582031 160.265625 107.664062 159.976562 107.710938 C 159.691406 107.753906 159.40625 107.757812 159.125 107.71875 C 158.84375 107.679688 158.570312 107.601562 158.304688 107.484375 C 158.039062 107.367188 157.789062 107.210938 157.550781 107.019531 C 157.3125 106.824219 157.089844 106.597656 156.886719 106.335938 C 156.683594 106.074219 156.503906 105.78125 156.34375 105.460938 C 156.183594 105.140625 156.046875 104.800781 155.9375 104.433594 C 155.828125 104.066406 155.746094 103.6875 155.6875 103.289062 C 155.632812 102.890625 155.605469 102.484375 155.605469 102.070312 C 155.601562 101.65625 155.628906 101.242188 155.6875 100.828125 C 155.742188 100.414062 155.824219 100.007812 155.933594 99.605469 C 156.042969 99.207031 156.179688 98.824219 156.335938 98.457031 C 156.496094 98.085938 156.675781 97.738281 156.878906 97.417969 C 157.082031 97.09375 157.300781 96.796875 157.539062 96.53125 C 157.777344 96.265625 158.03125 96.03125 158.296875 95.832031 C 158.558594 95.632812 158.832031 95.472656 159.113281 95.347656 C 159.394531 95.222656 159.679688 95.140625 159.964844 95.097656 C 160.253906 95.050781 160.539062 95.050781 160.820312 95.085938 Z M 160.820312 95.085938 " fill-opacity="1" fill-rule="nonzero"/><g mask="url(#93e315f689)"><g transform="matrix(1, 0, 0, 1, 145, 105)"><g clip-path="url(#3b9b232a8b)"><g clip-path="url(#d6decb7b44)"><path fill="#ffffff" d="M 6.296875 4.136719 C 6.488281 4.648438 6.628906 5.15625 6.707031 5.667969 C 6.785156 6.175781 6.800781 6.648438 6.75 7.082031 C 6.703125 7.511719 6.59375 7.871094 6.421875 8.160156 C 6.253906 8.449219 6.035156 8.644531 5.773438 8.746094 C 5.507812 8.84375 5.214844 8.84375 4.898438 8.742188 C 4.578125 8.640625 4.257812 8.445312 3.933594 8.15625 C 3.609375 7.867188 3.304688 7.507812 3.023438 7.074219 C 2.742188 6.640625 2.503906 6.167969 2.308594 5.660156 C 2.113281 5.148438 1.976562 4.640625 1.898438 4.128906 C 1.820312 3.621094 1.804688 3.148438 1.855469 2.71875 C 1.902344 2.285156 2.011719 1.925781 2.183594 1.636719 C 2.351562 1.347656 2.570312 1.152344 2.832031 1.050781 C 3.097656 0.953125 3.390625 0.953125 3.707031 1.054688 C 4.027344 1.15625 4.347656 1.351562 4.671875 1.640625 C 4.996094 1.929688 5.300781 2.292969 5.582031 2.722656 C 5.863281 3.15625 6.101562 3.628906 6.296875 4.136719 Z M 6.296875 4.136719 " fill-opacity="1" fill-rule="nonzero"/></g></g></g></g><path fill="#000072" d="M 228.871094 106.328125 C 229.710938 106.429688 230.527344 106.636719 231.324219 106.941406 C 232.121094 107.246094 232.882812 107.648438 233.609375 108.140625 C 234.332031 108.636719 235.007812 109.21875 235.632812 109.886719 C 236.257812 110.554688 236.820312 111.292969 237.324219 112.105469 C 237.824219 112.917969 238.253906 113.789062 238.613281 114.714844 C 238.96875 115.640625 239.25 116.609375 239.453125 117.613281 C 239.652344 118.621094 239.773438 119.644531 239.808594 120.691406 C 239.847656 121.738281 239.800781 122.785156 239.671875 123.828125 C 239.542969 124.875 239.332031 125.902344 239.042969 126.90625 C 238.753906 127.914062 238.390625 128.878906 237.949219 129.804688 C 237.507812 130.734375 237.003906 131.601562 236.429688 132.414062 C 235.859375 133.226562 235.230469 133.964844 234.546875 134.632812 C 233.863281 135.300781 233.136719 135.878906 232.367188 136.375 C 231.597656 136.871094 230.804688 137.269531 229.980469 137.578125 C 229.15625 137.882812 228.320312 138.085938 227.472656 138.1875 C 226.625 138.289062 225.785156 138.289062 224.945312 138.1875 C 224.109375 138.082031 223.289062 137.878906 222.492188 137.574219 C 221.695312 137.269531 220.9375 136.867188 220.210938 136.371094 C 219.484375 135.878906 218.8125 135.296875 218.1875 134.628906 C 217.5625 133.960938 216.996094 133.222656 216.496094 132.410156 C 215.996094 131.597656 215.566406 130.726562 215.207031 129.800781 C 214.847656 128.875 214.566406 127.90625 214.367188 126.902344 C 214.164062 125.894531 214.046875 124.871094 214.007812 123.824219 C 213.972656 122.777344 214.015625 121.730469 214.144531 120.683594 C 214.273438 119.640625 214.484375 118.613281 214.773438 117.609375 C 215.066406 116.601562 215.429688 115.636719 215.871094 114.710938 C 216.308594 113.78125 216.816406 112.914062 217.386719 112.101562 C 217.960938 111.289062 218.589844 110.546875 219.273438 109.882812 C 219.957031 109.214844 220.683594 108.632812 221.453125 108.140625 C 222.21875 107.644531 223.015625 107.242188 223.839844 106.9375 C 224.664062 106.632812 225.5 106.429688 226.34375 106.328125 C 227.191406 106.222656 228.035156 106.226562 228.871094 106.328125 Z M 228.871094 106.328125 " fill-opacity="1" fill-rule="nonzero"/><path fill="#ffffff" d="M 223.835938 112.269531 C 224.117188 112.308594 224.390625 112.386719 224.65625 112.503906 C 224.917969 112.625 225.171875 112.78125 225.410156 112.972656 C 225.648438 113.167969 225.871094 113.394531 226.070312 113.65625 C 226.273438 113.917969 226.457031 114.210938 226.617188 114.53125 C 226.773438 114.847656 226.910156 115.191406 227.019531 115.558594 C 227.128906 115.925781 227.210938 116.304688 227.269531 116.703125 C 227.324219 117.101562 227.351562 117.507812 227.351562 117.921875 C 227.351562 118.335938 227.324219 118.75 227.269531 119.164062 C 227.210938 119.578125 227.128906 119.984375 227.019531 120.386719 C 226.910156 120.785156 226.773438 121.167969 226.617188 121.535156 C 226.457031 121.90625 226.273438 122.25 226.074219 122.574219 C 225.871094 122.898438 225.648438 123.195312 225.410156 123.460938 C 225.171875 123.726562 224.921875 123.960938 224.65625 124.15625 C 224.390625 124.355469 224.117188 124.519531 223.835938 124.640625 C 223.554688 124.765625 223.269531 124.847656 222.984375 124.890625 C 222.695312 124.9375 222.410156 124.9375 222.128906 124.902344 C 221.847656 124.863281 221.578125 124.785156 221.3125 124.667969 C 221.046875 124.550781 220.792969 124.394531 220.554688 124.199219 C 220.316406 124.003906 220.097656 123.777344 219.894531 123.515625 C 219.691406 123.253906 219.507812 122.960938 219.351562 122.644531 C 219.191406 122.324219 219.054688 121.980469 218.945312 121.613281 C 218.835938 121.25 218.753906 120.867188 218.699219 120.46875 C 218.640625 120.070312 218.613281 119.664062 218.613281 119.25 C 218.613281 118.835938 218.640625 118.421875 218.699219 118.007812 C 218.753906 117.59375 218.835938 117.1875 218.945312 116.789062 C 219.054688 116.386719 219.191406 116.003906 219.351562 115.636719 C 219.507812 115.265625 219.691406 114.921875 219.894531 114.597656 C 220.097656 114.273438 220.316406 113.980469 220.554688 113.710938 C 220.792969 113.445312 221.046875 113.214844 221.3125 113.015625 C 221.574219 112.816406 221.847656 112.65625 222.128906 112.53125 C 222.410156 112.40625 222.695312 112.324219 222.984375 112.28125 C 223.269531 112.234375 223.554688 112.234375 223.835938 112.269531 Z M 223.835938 112.269531 " fill-opacity="1" fill-rule="nonzero"/><g mask="url(#cabc157876)"><g transform="matrix(1, 0, 0, 1, 226, 124)"><g clip-path="url(#47bd9c5c40)"><path fill="#ffffff" d="M 7.464844 2.285156 C 7.695312 2.453125 7.851562 2.699219 7.941406 3.023438 C 8.027344 3.34375 8.039062 3.722656 7.972656 4.152344 C 7.902344 4.578125 7.765625 5.03125 7.554688 5.5 C 7.34375 5.972656 7.078125 6.425781 6.753906 6.867188 C 6.429688 7.308594 6.078125 7.699219 5.691406 8.042969 C 5.304688 8.386719 4.917969 8.652344 4.53125 8.847656 C 4.140625 9.039062 3.777344 9.144531 3.445312 9.160156 C 3.109375 9.171875 2.828125 9.097656 2.601562 8.929688 C 2.371094 8.761719 2.214844 8.515625 2.125 8.195312 C 2.039062 7.871094 2.027344 7.496094 2.09375 7.066406 C 2.164062 6.636719 2.300781 6.183594 2.511719 5.714844 C 2.722656 5.242188 2.988281 4.789062 3.3125 4.347656 C 3.636719 3.90625 3.988281 3.515625 4.375 3.171875 C 4.761719 2.828125 5.148438 2.5625 5.535156 2.367188 C 5.925781 2.175781 6.289062 2.070312 6.621094 2.058594 C 6.957031 2.042969 7.238281 2.121094 7.464844 2.285156 Z M 7.464844 2.285156 " fill-opacity="1" fill-rule="nonzero"/></g></g></g><path fill="#000072" d="M 69.425781 29.492188 C 68.625 30.78125 66.988281 31.324219 65.578125 30.785156 L 61.425781 29.183594 C 59.570312 28.5 58.726562 26.273438 59.671875 24.542969 C 64 16.933594 71.875 14.367188 79.613281 15.292969 C 90.449219 16.585938 97.949219 25.699219 96.894531 34.523438 C 95.328125 47.628906 83.378906 47.957031 80.382812 57.570312 C 79.832031 59.074219 78.417969 60.101562 76.871094 59.917969 L 72.316406 59.375 C 70.316406 59.132812 68.984375 57.128906 69.589844 55.171875 C 72.976562 44.589844 84.097656 42.6875 85.046875 34.769531 C 85.589844 30.21875 83.179688 26.425781 77.535156 25.75 C 73.53125 25.273438 70.914062 27.082031 69.425781 29.492188 Z M 79.082031 75.414062 C 78.644531 79.054688 75.28125 81.699219 71.640625 81.261719 C 67.910156 80.816406 65.261719 77.457031 65.699219 73.816406 C 66.144531 70.082031 69.507812 67.441406 73.238281 67.882812 C 76.882812 68.320312 79.527344 71.679688 79.082031 75.414062 Z M 79.082031 75.414062 " fill-opacity="1" fill-rule="nonzero"/></svg>