<svg xmlns="http://www.w3.org/2000/svg" xmlns:xlink="http://www.w3.org/1999/xlink" width="500" zoomAndPan="magnify" viewBox="0 0 375 374.999991" height="500" preserveAspectRatio="xMidYMid meet" version="1.0"><defs><clipPath id="76498febba"><path d="M 116 221 L 269 221 L 269 374.25 L 116 374.25 Z M 116 221 " clip-rule="nonzero"/></clipPath></defs><path fill="#fa9b27" d="M 48.753906 268.097656 C 51.035156 293.867188 76.933594 306.789062 77.660156 307.128906 C 77.660156 307.128906 77.671875 307.144531 77.671875 307.144531 C 91.277344 305.886719 99.777344 299.09375 105.007812 290.285156 C 105.039062 290.242188 105.050781 290.199219 105.082031 290.171875 C 106.71875 287.414062 108.03125 284.460938 109.085938 281.40625 C 109.359375 280.664062 109.601562 279.90625 109.828125 279.148438 C 115.347656 260.890625 112.210938 240.503906 112.210938 240.503906 C 105.492188 233.835938 98.664062 229.96875 92.0625 228.28125 C 67.707031 222.042969 46.757812 245.644531 48.753906 268.097656 Z M 48.753906 268.097656 " fill-opacity="1" fill-rule="nonzero"/><path fill="#ffffff" d="M 48.753906 268.097656 C 51.035156 293.867188 76.933594 306.789062 77.660156 307.128906 C 76.789062 306.230469 31.273438 258.476562 92.074219 228.253906 C 67.707031 222.042969 46.757812 245.644531 48.753906 268.097656 Z M 48.753906 268.097656 " fill-opacity="1" fill-rule="nonzero"/><path fill="#ffffff" d="M 77.644531 265.34375 C 80.753906 288.328125 104.453125 290.242188 105.007812 290.285156 C 107.078125 286.816406 108.644531 283.019531 109.828125 279.136719 C 90.222656 276.28125 77.644531 265.34375 77.644531 265.34375 Z M 77.644531 265.34375 " fill-opacity="1" fill-rule="nonzero"/><path fill="#000072" d="M 70.542969 230.351562 C 61.644531 238.289062 56.285156 250.484375 57.339844 262.359375 C 59.621094 288.128906 85.515625 301.046875 86.242188 301.390625 C 86.242188 301.390625 86.257812 301.40625 86.257812 301.40625 C 90.992188 300.964844 95.085938 299.847656 98.664062 298.222656 C 93.574219 302.960938 86.769531 306.300781 77.671875 307.128906 C 77.671875 307.128906 77.671875 307.117188 77.660156 307.117188 C 76.933594 306.757812 51.035156 293.855469 48.753906 268.085938 C 47.386719 252.765625 56.726562 236.90625 70.542969 230.351562 Z M 70.542969 230.351562 " fill-opacity="0.3" fill-rule="nonzero"/><path fill="#000072" d="M 77.644531 265.34375 C 80.484375 285.503906 100.402344 289.5 105.082031 290.15625 C 106.71875 287.402344 108.03125 284.445312 109.085938 281.390625 C 86.515625 281.148438 77.644531 265.34375 77.644531 265.34375 Z M 77.644531 265.34375 " fill-opacity="0.3" fill-rule="nonzero"/><path fill="#000072" d="M 77.671875 309.671875 C 77.289062 309.671875 76.917969 309.585938 76.574219 309.414062 C 75.433594 308.859375 48.667969 295.566406 46.246094 268.328125 C 44.804688 252.011719 54.601562 235.050781 69.558594 228.027344 C 84.089844 221.203125 100.289062 225.085938 113.976562 238.691406 C 114.363281 239.074219 114.605469 239.5625 114.691406 240.089844 C 114.917969 241.53125 119.953125 275.707031 104.269531 295.808594 C 97.90625 303.960938 89.023438 308.628906 77.886719 309.65625 C 77.832031 309.671875 77.746094 309.671875 77.671875 309.671875 Z M 84.21875 229.753906 C 79.042969 229.753906 74.734375 231.152344 71.699219 232.582031 C 58.578125 238.746094 49.980469 253.582031 51.25 267.871094 C 53.21875 290.113281 74.292969 302.476562 78.15625 304.5625 C 87.511719 303.53125 94.96875 299.550781 100.304688 292.710938 C 113.394531 275.953125 110.484375 246.886719 109.828125 241.660156 C 100.332031 232.480469 91.433594 229.753906 84.21875 229.753906 Z M 84.21875 229.753906 " fill-opacity="1" fill-rule="nonzero"/><path fill="#000072" d="M 105.765625 291.710938 C 105.179688 291.769531 104.765625 291.785156 104.296875 291.8125 C 103.824219 291.828125 103.371094 291.828125 102.914062 291.796875 C 102 291.785156 101.085938 291.699219 100.175781 291.570312 C 98.363281 291.339844 96.566406 290.914062 94.8125 290.355469 C 91.320312 289.214844 87.996094 287.34375 85.203125 284.84375 C 82.421875 282.347656 80.226562 279.21875 78.929688 275.824219 C 78.613281 274.964844 78.316406 274.125 78.101562 273.253906 C 78 272.808594 77.859375 272.398438 77.789062 271.953125 L 77.574219 270.640625 C 77.417969 269.769531 77.402344 268.871094 77.332031 268.015625 C 77.316406 267.128906 77.359375 266.257812 77.417969 265.386719 L 77.832031 265.316406 C 78.230469 266.101562 78.558594 266.871094 78.914062 267.640625 L 79.46875 268.769531 C 79.65625 269.140625 79.8125 269.511719 80.027344 269.882812 C 80.410156 270.613281 80.78125 271.324219 81.210938 272.011719 C 81.59375 272.710938 82.035156 273.367188 82.464844 274.039062 C 84.21875 276.636719 86.242188 278.933594 88.640625 280.75 C 91.035156 282.5625 93.730469 283.933594 96.625 284.886719 C 98.066406 285.386719 99.546875 285.746094 101.058594 286.058594 C 101.816406 286.214844 102.570312 286.328125 103.328125 286.445312 C 103.710938 286.5 104.082031 286.542969 104.46875 286.585938 L 105.507812 286.703125 Z M 105.765625 291.710938 " fill-opacity="1" fill-rule="nonzero"/><path fill="#fa9b27" d="M 39.84375 337.082031 C 43.59375 349.660156 54.046875 370.144531 82.195312 370.089844 L 308.949219 370.089844 C 331.796875 370.132812 342.976562 356.65625 348.394531 344.863281 C 349.648438 342.105469 350.589844 339.453125 351.300781 337.082031 C 353.339844 330.285156 353.457031 323.003906 351.257812 316.265625 C 343.273438 291.855469 317.078125 305.644531 317.078125 305.644531 C 315.453125 302.417969 313.316406 299.605469 310.863281 297.164062 C 297.144531 283.445312 273.488281 280.976562 273.488281 280.976562 C 272.816406 227.082031 252.695312 213.179688 252.695312 213.179688 L 195.574219 215.5625 L 195.542969 215.5625 L 138.449219 213.179688 C 138.449219 213.179688 118.328125 227.082031 117.65625 280.976562 C 117.65625 280.976562 84.789062 284.402344 74.066406 305.644531 C 74.066406 305.644531 47.871094 291.855469 39.886719 316.265625 C 37.675781 323.003906 37.804688 330.285156 39.84375 337.082031 Z M 39.84375 337.082031 " fill-opacity="1" fill-rule="nonzero"/><path fill="#ffffff" d="M 302.050781 364.621094 C 302.832031 367.820312 305.671875 370.074219 308.949219 370.074219 C 337.101562 370.132812 347.550781 349.644531 351.300781 337.066406 C 353.339844 330.273438 353.457031 322.992188 351.257812 316.253906 C 344.300781 294.996094 323.539062 302.703125 318.292969 305.058594 C 317.476562 305.429688 316.738281 305.929688 316.109375 306.574219 C 311.71875 311.042969 293.992188 331.515625 302.050781 364.621094 Z M 302.050781 364.621094 " fill-opacity="1" fill-rule="nonzero"/><path fill="#ffffff" d="M 89.109375 364.621094 C 88.324219 367.820312 85.488281 370.074219 82.207031 370.074219 C 54.058594 370.132812 43.605469 349.644531 39.855469 337.066406 C 37.816406 330.273438 37.6875 322.992188 39.898438 316.253906 C 46.859375 294.996094 67.621094 302.703125 72.867188 305.058594 C 73.679688 305.429688 74.421875 305.929688 75.050781 306.574219 C 79.441406 311.042969 97.167969 331.515625 89.109375 364.621094 Z M 89.109375 364.621094 " fill-opacity="1" fill-rule="nonzero"/><path fill="#ffffff" d="M 138.449219 213.179688 L 195.574219 215.449219 L 252.695312 213.179688 C 252.695312 213.179688 304.757812 350.058594 195.574219 350.058594 C 86.386719 350.058594 138.449219 213.179688 138.449219 213.179688 Z M 138.449219 213.179688 " fill-opacity="1" fill-rule="nonzero"/><path fill="#ff699f" d="M 329.421875 329.867188 C 329.902344 330.011719 330.359375 330.210938 330.796875 330.464844 C 331.234375 330.71875 331.640625 331.019531 332.015625 331.371094 C 332.394531 331.722656 332.734375 332.113281 333.039062 332.550781 C 333.339844 332.984375 333.601562 333.453125 333.820312 333.953125 C 334.035156 334.457031 334.207031 334.984375 334.332031 335.53125 C 334.453125 336.082031 334.527344 336.644531 334.554688 337.222656 C 334.578125 337.800781 334.554688 338.378906 334.480469 338.960938 C 334.402344 339.542969 334.28125 340.117188 334.109375 340.679688 C 333.9375 341.246094 333.722656 341.789062 333.460938 342.3125 C 333.199219 342.839844 332.894531 343.332031 332.554688 343.796875 C 332.210938 344.261719 331.835938 344.691406 331.429688 345.078125 C 331.019531 345.464844 330.585938 345.808594 330.125 346.101562 C 329.664062 346.398438 329.1875 346.644531 328.695312 346.835938 C 328.199219 347.027344 327.699219 347.164062 327.191406 347.242188 C 326.683594 347.324219 326.175781 347.347656 325.671875 347.316406 C 325.171875 347.28125 324.679688 347.191406 324.199219 347.046875 C 323.71875 346.902344 323.261719 346.699219 322.824219 346.449219 C 322.390625 346.195312 321.980469 345.890625 321.605469 345.542969 C 321.226562 345.191406 320.886719 344.796875 320.585938 344.363281 C 320.28125 343.929688 320.019531 343.460938 319.804688 342.957031 C 319.585938 342.457031 319.414062 341.929688 319.292969 341.378906 C 319.167969 340.828125 319.09375 340.265625 319.070312 339.6875 C 319.042969 339.113281 319.070312 338.53125 319.144531 337.949219 C 319.21875 337.367188 319.339844 336.796875 319.511719 336.230469 C 319.683594 335.667969 319.902344 335.125 320.164062 334.597656 C 320.425781 334.074219 320.726562 333.578125 321.066406 333.113281 C 321.410156 332.648438 321.785156 332.222656 322.195312 331.835938 C 322.601562 331.445312 323.039062 331.105469 323.496094 330.808594 C 323.957031 330.511719 324.433594 330.269531 324.929688 330.078125 C 325.421875 329.886719 325.921875 329.75 326.429688 329.667969 C 326.941406 329.585938 327.445312 329.5625 327.949219 329.597656 C 328.453125 329.628906 328.945312 329.71875 329.421875 329.867188 Z M 329.421875 329.867188 " fill-opacity="1" fill-rule="nonzero"/><path fill="#ff699f" d="M 340.769531 324.539062 C 341.019531 324.613281 341.253906 324.71875 341.480469 324.847656 C 341.707031 324.980469 341.917969 325.136719 342.113281 325.316406 C 342.308594 325.5 342.484375 325.703125 342.640625 325.925781 C 342.800781 326.152344 342.933594 326.394531 343.046875 326.652344 C 343.160156 326.914062 343.25 327.183594 343.3125 327.46875 C 343.375 327.753906 343.414062 328.046875 343.429688 328.34375 C 343.441406 328.640625 343.429688 328.941406 343.390625 329.242188 C 343.351562 329.542969 343.289062 329.839844 343.199219 330.128906 C 343.109375 330.421875 343 330.703125 342.863281 330.972656 C 342.730469 331.246094 342.574219 331.5 342.394531 331.742188 C 342.21875 331.980469 342.023438 332.203125 341.8125 332.402344 C 341.601562 332.601562 341.378906 332.777344 341.140625 332.929688 C 340.902344 333.082031 340.652344 333.210938 340.398438 333.308594 C 340.144531 333.40625 339.882812 333.476562 339.621094 333.519531 C 339.355469 333.5625 339.09375 333.574219 338.835938 333.554688 C 338.574219 333.539062 338.320312 333.492188 338.070312 333.417969 C 337.824219 333.339844 337.585938 333.238281 337.359375 333.105469 C 337.132812 332.976562 336.921875 332.820312 336.726562 332.636719 C 336.53125 332.457031 336.355469 332.253906 336.199219 332.027344 C 336.042969 331.804688 335.90625 331.5625 335.796875 331.300781 C 335.683594 331.042969 335.59375 330.769531 335.53125 330.488281 C 335.464844 330.203125 335.425781 329.910156 335.414062 329.613281 C 335.402344 329.316406 335.414062 329.015625 335.453125 328.714844 C 335.492188 328.414062 335.554688 328.117188 335.640625 327.828125 C 335.730469 327.535156 335.84375 327.253906 335.976562 326.984375 C 336.113281 326.710938 336.269531 326.457031 336.445312 326.214844 C 336.625 325.976562 336.816406 325.753906 337.027344 325.554688 C 337.242188 325.355469 337.464844 325.179688 337.703125 325.023438 C 337.941406 324.871094 338.1875 324.746094 338.445312 324.648438 C 338.699219 324.546875 338.957031 324.476562 339.222656 324.4375 C 339.484375 324.394531 339.746094 324.382812 340.007812 324.398438 C 340.269531 324.417969 340.523438 324.464844 340.769531 324.539062 Z M 340.769531 324.539062 " fill-opacity="1" fill-rule="nonzero"/><path fill="#ff699f" d="M 321.59375 319.582031 C 321.84375 319.65625 322.078125 319.757812 322.304688 319.890625 C 322.53125 320.019531 322.742188 320.175781 322.9375 320.359375 C 323.132812 320.539062 323.308594 320.742188 323.464844 320.96875 C 323.625 321.191406 323.757812 321.433594 323.871094 321.695312 C 323.984375 321.953125 324.074219 322.226562 324.136719 322.511719 C 324.199219 322.792969 324.238281 323.085938 324.253906 323.382812 C 324.265625 323.683594 324.253906 323.980469 324.214844 324.28125 C 324.175781 324.582031 324.113281 324.878906 324.023438 325.171875 C 323.933594 325.460938 323.824219 325.742188 323.6875 326.015625 C 323.554688 326.285156 323.398438 326.542969 323.21875 326.78125 C 323.042969 327.023438 322.847656 327.242188 322.636719 327.441406 C 322.425781 327.644531 322.199219 327.820312 321.964844 327.972656 C 321.726562 328.125 321.476562 328.25 321.222656 328.347656 C 320.96875 328.449219 320.707031 328.519531 320.445312 328.558594 C 320.179688 328.601562 319.917969 328.613281 319.660156 328.597656 C 319.398438 328.578125 319.144531 328.535156 318.894531 328.457031 C 318.648438 328.382812 318.410156 328.277344 318.183594 328.148438 C 317.957031 328.015625 317.746094 327.859375 317.550781 327.679688 C 317.355469 327.496094 317.179688 327.292969 317.023438 327.070312 C 316.867188 326.84375 316.730469 326.601562 316.617188 326.34375 C 316.507812 326.082031 316.417969 325.8125 316.351562 325.527344 C 316.289062 325.242188 316.25 324.953125 316.238281 324.652344 C 316.222656 324.355469 316.238281 324.054688 316.277344 323.753906 C 316.3125 323.453125 316.378906 323.160156 316.464844 322.867188 C 316.554688 322.574219 316.667969 322.292969 316.800781 322.023438 C 316.9375 321.753906 317.09375 321.496094 317.269531 321.257812 C 317.449219 321.015625 317.640625 320.796875 317.851562 320.59375 C 318.066406 320.394531 318.289062 320.21875 318.527344 320.066406 C 318.765625 319.914062 319.011719 319.789062 319.269531 319.6875 C 319.523438 319.589844 319.78125 319.519531 320.046875 319.476562 C 320.308594 319.4375 320.570312 319.421875 320.832031 319.441406 C 321.09375 319.457031 321.347656 319.503906 321.59375 319.582031 Z M 321.59375 319.582031 " fill-opacity="1" fill-rule="nonzero"/><path fill="#ff699f" d="M 332.816406 317.101562 C 333.066406 317.175781 333.304688 317.28125 333.53125 317.410156 C 333.753906 317.542969 333.964844 317.699219 334.160156 317.878906 C 334.355469 318.0625 334.53125 318.265625 334.691406 318.488281 C 334.847656 318.714844 334.980469 318.957031 335.09375 319.214844 C 335.207031 319.476562 335.296875 319.746094 335.359375 320.03125 C 335.425781 320.316406 335.464844 320.605469 335.476562 320.90625 C 335.488281 321.203125 335.476562 321.503906 335.4375 321.804688 C 335.398438 322.105469 335.335938 322.398438 335.246094 322.691406 C 335.160156 322.984375 335.046875 323.265625 334.910156 323.535156 C 334.777344 323.804688 334.621094 324.0625 334.445312 324.300781 C 334.265625 324.542969 334.074219 324.761719 333.859375 324.964844 C 333.648438 325.164062 333.425781 325.339844 333.1875 325.492188 C 332.949219 325.644531 332.703125 325.769531 332.445312 325.871094 C 332.191406 325.96875 331.929688 326.039062 331.667969 326.082031 C 331.40625 326.121094 331.144531 326.136719 330.882812 326.117188 C 330.621094 326.101562 330.367188 326.054688 330.121094 325.976562 C 329.871094 325.902344 329.632812 325.800781 329.40625 325.667969 C 329.183594 325.539062 328.972656 325.382812 328.777344 325.199219 C 328.582031 325.019531 328.40625 324.816406 328.246094 324.589844 C 328.089844 324.367188 327.957031 324.125 327.84375 323.863281 C 327.730469 323.605469 327.640625 323.332031 327.578125 323.046875 C 327.511719 322.765625 327.472656 322.472656 327.460938 322.175781 C 327.449219 321.875 327.460938 321.578125 327.5 321.277344 C 327.539062 320.976562 327.601562 320.679688 327.691406 320.386719 C 327.777344 320.097656 327.890625 319.816406 328.027344 319.542969 C 328.160156 319.273438 328.316406 319.015625 328.492188 318.777344 C 328.671875 318.535156 328.863281 318.316406 329.078125 318.117188 C 329.289062 317.914062 329.511719 317.738281 329.75 317.585938 C 329.988281 317.433594 330.234375 317.308594 330.492188 317.210938 C 330.746094 317.109375 331.007812 317.039062 331.269531 317 C 331.53125 316.957031 331.792969 316.945312 332.054688 316.960938 C 332.316406 316.980469 332.570312 317.023438 332.816406 317.101562 Z M 332.816406 317.101562 " fill-opacity="1" fill-rule="nonzero"/><path fill="#ff699f" d="M 71.671875 336.253906 C 71.84375 336.820312 71.964844 337.394531 72.039062 337.972656 C 72.113281 338.554688 72.140625 339.136719 72.113281 339.710938 C 72.089844 340.289062 72.015625 340.851562 71.890625 341.402344 C 71.769531 341.953125 71.597656 342.480469 71.378906 342.980469 C 71.164062 343.484375 70.902344 343.953125 70.597656 344.386719 C 70.296875 344.820312 69.957031 345.214844 69.578125 345.566406 C 69.203125 345.917969 68.792969 346.21875 68.359375 346.472656 C 67.921875 346.726562 67.464844 346.925781 66.984375 347.070312 C 66.503906 347.214844 66.015625 347.304688 65.511719 347.339844 C 65.007812 347.371094 64.5 347.347656 63.992188 347.265625 C 63.484375 347.1875 62.984375 347.050781 62.488281 346.859375 C 61.996094 346.667969 61.519531 346.421875 61.058594 346.125 C 60.597656 345.832031 60.164062 345.488281 59.753906 345.101562 C 59.347656 344.714844 58.972656 344.289062 58.628906 343.820312 C 58.289062 343.355469 57.984375 342.863281 57.722656 342.335938 C 57.460938 341.8125 57.246094 341.269531 57.074219 340.703125 C 56.902344 340.140625 56.78125 339.566406 56.707031 338.984375 C 56.628906 338.402344 56.605469 337.824219 56.628906 337.246094 C 56.65625 336.667969 56.730469 336.105469 56.851562 335.554688 C 56.976562 335.007812 57.148438 334.480469 57.367188 333.976562 C 57.582031 333.476562 57.84375 333.007812 58.144531 332.574219 C 58.449219 332.136719 58.789062 331.746094 59.167969 331.394531 C 59.542969 331.042969 59.949219 330.742188 60.386719 330.488281 C 60.824219 330.234375 61.28125 330.035156 61.761719 329.890625 C 62.242188 329.742188 62.730469 329.652344 63.234375 329.621094 C 63.738281 329.585938 64.246094 329.609375 64.753906 329.691406 C 65.261719 329.773438 65.761719 329.910156 66.257812 330.101562 C 66.75 330.292969 67.226562 330.535156 67.6875 330.832031 C 68.148438 331.128906 68.582031 331.46875 68.988281 331.859375 C 69.398438 332.246094 69.773438 332.671875 70.117188 333.136719 C 70.457031 333.601562 70.757812 334.097656 71.019531 334.621094 C 71.28125 335.148438 71.5 335.691406 71.671875 336.253906 Z M 71.671875 336.253906 " fill-opacity="1" fill-rule="nonzero"/><path fill="#ff699f" d="M 55.546875 327.863281 C 55.632812 328.152344 55.699219 328.449219 55.738281 328.75 C 55.773438 329.050781 55.789062 329.351562 55.773438 329.648438 C 55.761719 329.945312 55.722656 330.238281 55.660156 330.523438 C 55.59375 330.808594 55.507812 331.078125 55.394531 331.339844 C 55.28125 331.597656 55.144531 331.839844 54.988281 332.066406 C 54.832031 332.289062 54.65625 332.492188 54.460938 332.675781 C 54.265625 332.855469 54.054688 333.011719 53.828125 333.144531 C 53.601562 333.273438 53.363281 333.378906 53.117188 333.453125 C 52.867188 333.527344 52.613281 333.574219 52.351562 333.59375 C 52.09375 333.609375 51.832031 333.597656 51.566406 333.554688 C 51.304688 333.515625 51.046875 333.445312 50.789062 333.34375 C 50.535156 333.246094 50.289062 333.121094 50.050781 332.96875 C 49.8125 332.816406 49.585938 332.636719 49.375 332.4375 C 49.164062 332.238281 48.96875 332.015625 48.792969 331.777344 C 48.617188 331.535156 48.460938 331.28125 48.324219 331.007812 C 48.1875 330.738281 48.078125 330.457031 47.988281 330.164062 C 47.898438 329.875 47.835938 329.578125 47.796875 329.277344 C 47.757812 328.976562 47.746094 328.675781 47.757812 328.378906 C 47.773438 328.082031 47.8125 327.789062 47.875 327.503906 C 47.941406 327.222656 48.027344 326.949219 48.140625 326.691406 C 48.253906 326.429688 48.386719 326.1875 48.546875 325.964844 C 48.703125 325.738281 48.878906 325.535156 49.074219 325.355469 C 49.269531 325.171875 49.480469 325.015625 49.707031 324.886719 C 49.933594 324.753906 50.167969 324.652344 50.417969 324.574219 C 50.664062 324.5 50.921875 324.453125 51.179688 324.4375 C 51.441406 324.417969 51.703125 324.429688 51.964844 324.472656 C 52.230469 324.515625 52.488281 324.585938 52.746094 324.683594 C 53 324.78125 53.246094 324.910156 53.484375 325.0625 C 53.722656 325.214844 53.949219 325.390625 54.160156 325.589844 C 54.371094 325.792969 54.566406 326.011719 54.742188 326.25 C 54.917969 326.492188 55.074219 326.746094 55.210938 327.019531 C 55.34375 327.289062 55.457031 327.570312 55.546875 327.863281 Z M 55.546875 327.863281 " fill-opacity="1" fill-rule="nonzero"/><path fill="#ff699f" d="M 74.710938 322.898438 C 74.800781 323.1875 74.863281 323.484375 74.902344 323.785156 C 74.941406 324.085938 74.953125 324.386719 74.9375 324.683594 C 74.925781 324.980469 74.886719 325.273438 74.824219 325.558594 C 74.757812 325.839844 74.671875 326.113281 74.558594 326.371094 C 74.445312 326.632812 74.308594 326.875 74.152344 327.097656 C 73.996094 327.324219 73.820312 327.527344 73.625 327.707031 C 73.429688 327.890625 73.21875 328.046875 72.992188 328.175781 C 72.765625 328.308594 72.527344 328.410156 72.28125 328.488281 C 72.03125 328.5625 71.777344 328.609375 71.519531 328.625 C 71.257812 328.644531 70.996094 328.632812 70.730469 328.589844 C 70.46875 328.546875 70.210938 328.476562 69.953125 328.378906 C 69.699219 328.28125 69.453125 328.152344 69.214844 328 C 68.976562 327.847656 68.75 327.671875 68.539062 327.472656 C 68.328125 327.269531 68.132812 327.050781 67.957031 326.8125 C 67.78125 326.570312 67.625 326.316406 67.488281 326.042969 C 67.351562 325.773438 67.242188 325.492188 67.152344 325.199219 C 67.0625 324.910156 67 324.613281 66.960938 324.3125 C 66.921875 324.011719 66.910156 323.710938 66.925781 323.414062 C 66.9375 323.113281 66.976562 322.824219 67.039062 322.539062 C 67.105469 322.253906 67.191406 321.984375 67.304688 321.722656 C 67.417969 321.464844 67.554688 321.222656 67.710938 320.996094 C 67.867188 320.773438 68.042969 320.570312 68.238281 320.386719 C 68.433594 320.207031 68.644531 320.050781 68.871094 319.917969 C 69.097656 319.789062 69.335938 319.683594 69.582031 319.609375 C 69.832031 319.535156 70.085938 319.488281 70.34375 319.46875 C 70.605469 319.453125 70.867188 319.464844 71.132812 319.507812 C 71.394531 319.546875 71.652344 319.617188 71.910156 319.71875 C 72.164062 319.816406 72.410156 319.941406 72.648438 320.09375 C 72.886719 320.246094 73.113281 320.425781 73.324219 320.625 C 73.535156 320.824219 73.730469 321.046875 73.90625 321.285156 C 74.082031 321.527344 74.238281 321.78125 74.375 322.054688 C 74.511719 322.324219 74.621094 322.605469 74.710938 322.898438 Z M 74.710938 322.898438 " fill-opacity="1" fill-rule="nonzero"/><path fill="#ff699f" d="M 63.488281 320.410156 C 63.574219 320.703125 63.640625 321 63.679688 321.300781 C 63.714844 321.601562 63.730469 321.898438 63.714844 322.199219 C 63.703125 322.496094 63.664062 322.789062 63.601562 323.070312 C 63.535156 323.355469 63.449219 323.628906 63.335938 323.886719 C 63.222656 324.148438 63.085938 324.390625 62.929688 324.613281 C 62.773438 324.839844 62.597656 325.042969 62.402344 325.222656 C 62.207031 325.40625 61.996094 325.5625 61.769531 325.691406 C 61.542969 325.824219 61.304688 325.925781 61.058594 326 C 60.808594 326.078125 60.554688 326.125 60.292969 326.140625 C 60.035156 326.160156 59.773438 326.144531 59.507812 326.105469 C 59.246094 326.0625 58.988281 325.992188 58.730469 325.894531 C 58.476562 325.792969 58.230469 325.667969 57.992188 325.515625 C 57.753906 325.363281 57.527344 325.1875 57.316406 324.988281 C 57.105469 324.785156 56.910156 324.566406 56.734375 324.324219 C 56.558594 324.085938 56.402344 323.828125 56.265625 323.558594 C 56.128906 323.289062 56.019531 323.007812 55.929688 322.714844 C 55.839844 322.421875 55.777344 322.128906 55.738281 321.828125 C 55.699219 321.527344 55.6875 321.226562 55.699219 320.929688 C 55.714844 320.628906 55.753906 320.339844 55.816406 320.054688 C 55.882812 319.769531 55.96875 319.5 56.082031 319.238281 C 56.195312 318.980469 56.328125 318.738281 56.488281 318.511719 C 56.644531 318.289062 56.820312 318.085938 57.015625 317.902344 C 57.210938 317.722656 57.421875 317.566406 57.648438 317.433594 C 57.875 317.304688 58.109375 317.199219 58.359375 317.125 C 58.605469 317.046875 58.863281 317.003906 59.121094 316.984375 C 59.382812 316.96875 59.644531 316.980469 59.90625 317.023438 C 60.171875 317.0625 60.429688 317.132812 60.6875 317.234375 C 60.941406 317.332031 61.1875 317.457031 61.425781 317.609375 C 61.664062 317.761719 61.890625 317.9375 62.101562 318.140625 C 62.3125 318.339844 62.507812 318.558594 62.683594 318.800781 C 62.859375 319.039062 63.015625 319.296875 63.152344 319.566406 C 63.285156 319.839844 63.398438 320.121094 63.488281 320.410156 Z M 63.488281 320.410156 " fill-opacity="1" fill-rule="nonzero"/><path fill="#000072" d="M 42.765625 344.863281 C 42.765625 344.863281 55.785156 363.636719 91.175781 348.445312 C 91.175781 348.445312 113.222656 359.425781 195.585938 359.425781 C 277.949219 359.425781 299.996094 348.445312 299.996094 348.445312 C 335.386719 363.636719 348.40625 344.863281 348.40625 344.863281 L 348.421875 344.863281 C 343.003906 356.65625 331.824219 370.132812 308.980469 370.089844 L 82.195312 370.089844 C 59.351562 370.132812 48.171875 356.65625 42.765625 344.863281 Z M 42.765625 344.863281 " fill-opacity="0.3" fill-rule="nonzero"/><path fill="#541e44" d="M 301.59375 333.710938 C 305.273438 312.3125 317.078125 305.644531 317.078125 305.644531 C 315.453125 302.417969 313.316406 299.605469 310.863281 297.164062 C 296.472656 312.570312 301.59375 333.710938 301.59375 333.710938 Z M 301.59375 333.710938 " fill-opacity="0.3" fill-rule="nonzero"/><path fill="#541e44" d="M 89.550781 333.710938 C 85.871094 312.296875 74.066406 305.644531 74.066406 305.644531 C 75.691406 302.417969 77.832031 299.605469 80.28125 297.164062 C 94.683594 312.570312 89.550781 333.710938 89.550781 333.710938 Z M 89.550781 333.710938 " fill-opacity="0.3" fill-rule="nonzero"/><path fill="#000072" d="M 318.207031 307.902344 L 317.933594 308.074219 C 317.820312 308.144531 317.691406 308.230469 317.578125 308.316406 C 317.335938 308.472656 317.09375 308.671875 316.835938 308.84375 C 316.578125 309.015625 316.351562 309.230469 316.109375 309.429688 C 315.867188 309.628906 315.625 309.828125 315.382812 310.042969 L 314.667969 310.683594 L 313.984375 311.371094 C 313.515625 311.8125 313.101562 312.3125 312.660156 312.796875 C 310.949219 314.753906 309.449219 316.964844 308.125 319.292969 C 306.796875 321.636719 305.726562 324.132812 304.757812 326.703125 C 304.246094 327.988281 303.832031 329.300781 303.277344 330.601562 C 302.804688 331.929688 302.335938 333.253906 301.707031 334.597656 L 301.707031 334.613281 C 301.679688 334.683594 301.59375 334.710938 301.535156 334.667969 C 301.492188 334.65625 301.464844 334.613281 301.464844 334.570312 C 301.292969 333.128906 301.265625 331.671875 301.28125 330.214844 C 301.335938 329.5 301.394531 328.773438 301.480469 328.046875 C 301.578125 327.332031 301.605469 326.589844 301.792969 325.890625 C 302.105469 324.476562 302.40625 323.035156 302.875 321.636719 C 303.105469 320.933594 303.304688 320.222656 303.546875 319.535156 C 303.804688 318.851562 304.101562 318.164062 304.375 317.480469 C 305.558594 314.753906 307.011719 312.113281 308.878906 309.714844 C 309.820312 308.515625 310.820312 307.359375 311.972656 306.316406 C 312.246094 306.046875 312.542969 305.789062 312.84375 305.546875 C 313.144531 305.304688 313.441406 305.046875 313.769531 304.816406 C 314.097656 304.574219 314.398438 304.347656 314.753906 304.117188 C 314.925781 304.003906 315.097656 303.890625 315.28125 303.789062 C 315.480469 303.675781 315.625 303.589844 315.925781 303.433594 C 317.164062 302.804688 318.675781 303.304688 319.304688 304.53125 C 319.902344 305.703125 319.488281 307.117188 318.390625 307.800781 Z M 318.207031 307.902344 " fill-opacity="1" fill-rule="nonzero"/><path fill="#000072" d="M 75.207031 303.390625 C 75.507812 303.546875 75.632812 303.632812 75.847656 303.746094 C 76.046875 303.859375 76.203125 303.976562 76.375 304.074219 C 76.730469 304.289062 77.046875 304.53125 77.359375 304.773438 C 77.6875 305.003906 77.972656 305.261719 78.285156 305.503906 C 78.601562 305.746094 78.886719 306.003906 79.15625 306.273438 C 80.3125 307.316406 81.308594 308.472656 82.25 309.671875 C 84.117188 312.070312 85.585938 314.710938 86.757812 317.4375 C 87.027344 318.121094 87.328125 318.808594 87.582031 319.492188 C 87.839844 320.191406 88.039062 320.894531 88.253906 321.59375 C 88.722656 322.976562 89.023438 324.417969 89.335938 325.847656 C 89.507812 326.546875 89.550781 327.289062 89.652344 328.003906 C 89.738281 328.730469 89.792969 329.445312 89.851562 330.171875 C 89.867188 331.628906 89.835938 333.085938 89.664062 334.527344 C 89.652344 334.597656 89.59375 334.65625 89.523438 334.640625 C 89.480469 334.640625 89.4375 334.613281 89.421875 334.570312 L 89.421875 334.554688 C 88.796875 333.214844 88.324219 331.886719 87.855469 330.558594 C 87.3125 329.257812 86.886719 327.945312 86.371094 326.660156 C 85.402344 324.089844 84.332031 321.578125 83.007812 319.25 C 81.679688 316.921875 80.199219 314.710938 78.472656 312.753906 C 78.03125 312.285156 77.617188 311.769531 77.144531 311.328125 L 76.460938 310.640625 L 75.75 310 C 75.519531 309.785156 75.277344 309.585938 75.019531 309.386719 C 74.777344 309.1875 74.535156 308.972656 74.292969 308.800781 C 74.050781 308.628906 73.792969 308.429688 73.550781 308.273438 C 73.4375 308.1875 73.308594 308.101562 73.195312 308.03125 L 72.910156 307.859375 L 72.710938 307.730469 C 71.527344 307 71.171875 305.445312 71.898438 304.273438 C 72.609375 303.191406 74.050781 302.804688 75.207031 303.390625 Z M 75.207031 303.390625 " fill-opacity="1" fill-rule="nonzero"/><path fill="#000072" d="M 309.078125 372.601562 C 309.035156 372.601562 308.992188 372.601562 308.949219 372.601562 L 82.195312 372.601562 C 82.152344 372.601562 82.109375 372.601562 82.066406 372.601562 C 52.277344 372.601562 41.3125 350.816406 37.433594 337.808594 C 35.179688 330.257812 35.195312 322.535156 37.503906 315.480469 C 39.898438 308.144531 44.089844 303.203125 49.964844 300.835938 C 58.722656 297.28125 68.648438 300.550781 73.011719 302.390625 C 83.460938 284.945312 107.691406 279.933594 115.191406 278.777344 C 116.375 226 136.179688 211.707031 137.035156 211.109375 C 137.492188 210.792969 138.019531 210.636719 138.578125 210.667969 L 195.601562 213.050781 L 252.625 210.667969 C 253.167969 210.636719 253.710938 210.792969 254.164062 211.109375 C 255.019531 211.695312 274.8125 225.984375 276.011719 278.761719 C 283.527344 279.921875 307.738281 284.945312 318.191406 302.375 C 322.554688 300.550781 332.480469 297.265625 341.234375 300.820312 C 347.097656 303.203125 351.289062 308.128906 353.699219 315.46875 C 356.007812 322.519531 356.023438 330.230469 353.769531 337.796875 C 349.832031 350.816406 338.867188 372.601562 309.078125 372.601562 Z M 82.195312 367.5625 L 308.964844 367.5625 C 309.007812 367.5625 309.035156 367.5625 309.078125 367.5625 C 335.617188 367.5625 345.425781 348.015625 348.90625 336.355469 C 350.875 329.785156 350.859375 323.105469 348.878906 317.039062 C 346.96875 311.171875 343.746094 307.289062 339.339844 305.488281 C 330.140625 301.75 318.375 307.800781 318.261719 307.859375 C 317.664062 308.171875 316.964844 308.230469 316.324219 308.03125 C 315.683594 307.828125 315.152344 307.375 314.839844 306.773438 C 304.871094 287.03125 273.542969 283.503906 273.230469 283.476562 C 271.960938 283.347656 270.992188 282.277344 270.976562 281.003906 C 270.40625 234.636719 255.09375 218.605469 251.855469 215.734375 L 195.6875 218.074219 C 195.613281 218.074219 195.542969 218.074219 195.472656 218.074219 L 139.304688 215.734375 C 136.09375 218.574219 120.765625 234.609375 120.179688 281.003906 C 120.167969 282.277344 119.199219 283.347656 117.929688 283.476562 C 117.613281 283.503906 86.300781 287.03125 76.320312 306.773438 C 76.019531 307.375 75.476562 307.828125 74.835938 308.03125 C 74.195312 308.230469 73.496094 308.171875 72.894531 307.859375 C 72.78125 307.800781 61.019531 301.734375 51.820312 305.488281 C 47.398438 307.289062 44.191406 311.171875 42.28125 317.039062 C 40.296875 323.105469 40.285156 329.785156 42.253906 336.355469 C 45.730469 348.015625 55.542969 367.546875 82.078125 367.5625 C 82.121094 367.5625 82.152344 367.5625 82.195312 367.5625 Z M 82.195312 367.5625 " fill-opacity="1" fill-rule="nonzero"/><path fill="#fa9b27" d="M 299.269531 114.503906 C 299.269531 114.503906 316.621094 72.003906 302.917969 31.113281 C 300.324219 23.347656 292.753906 18.296875 284.609375 19.09375 C 273.757812 20.164062 257.417969 24.535156 239.59375 38.996094 C 239.59375 38.996094 284.167969 54.65625 299.269531 114.503906 Z M 299.269531 114.503906 " fill-opacity="1" fill-rule="nonzero"/><path fill="#ffffff" d="M 298.882812 33.597656 C 296.875 25.660156 289.714844 20.050781 281.53125 20.238281 C 279.632812 20.28125 277.550781 20.40625 275.328125 20.664062 C 278.734375 19.851562 281.859375 19.367188 284.609375 19.09375 C 292.753906 18.296875 300.324219 23.335938 302.917969 31.113281 C 316.609375 72.003906 299.269531 114.503906 299.269531 114.503906 C 298.042969 109.632812 296.617188 105.066406 295.035156 100.769531 C 300.066406 85.023438 305.414062 59.453125 298.882812 33.597656 Z M 298.882812 33.597656 " fill-opacity="0.6" fill-rule="nonzero"/><path fill="#000072" d="M 299.269531 117.015625 C 299.210938 117.015625 299.15625 117.015625 299.097656 117.015625 C 298.015625 116.945312 297.101562 116.171875 296.832031 115.117188 C 289.214844 84.949219 273.859375 66.503906 262.308594 56.355469 C 249.773438 45.335938 238.878906 41.394531 238.765625 41.367188 C 237.910156 41.066406 237.28125 40.308594 237.125 39.421875 C 236.96875 38.523438 237.308594 37.609375 238.023438 37.039062 C 256.445312 22.105469 273.402344 17.679688 284.382812 16.597656 C 293.707031 15.683594 302.320312 21.320312 305.328125 30.316406 C 319.160156 71.617188 302.335938 113.6875 301.621094 115.457031 C 301.207031 116.402344 300.28125 117.015625 299.269531 117.015625 Z M 244.496094 38.367188 C 249.019531 40.523438 256.804688 44.878906 265.429688 52.414062 C 276.539062 62.136719 291 79.097656 299.484375 106.023438 C 303.617188 92.175781 310.417969 61.421875 300.539062 31.929688 C 298.269531 25.175781 291.824219 20.921875 284.851562 21.621094 C 275.210938 22.550781 260.640625 26.277344 244.496094 38.367188 Z M 244.496094 38.367188 " fill-opacity="1" fill-rule="nonzero"/><path fill="#ff699f" d="M 290.484375 99.296875 C 290.484375 99.296875 302.535156 69.761719 293.023438 41.351562 C 291.210938 35.953125 285.949219 32.441406 280.304688 33 C 272.761719 33.742188 261.410156 36.78125 249.03125 46.820312 C 249.03125 46.832031 280.003906 57.710938 290.484375 99.296875 Z M 290.484375 99.296875 " fill-opacity="1" fill-rule="nonzero"/><path fill="#000072" d="M 287.175781 50.230469 C 285.367188 44.835938 280.105469 41.324219 274.457031 41.878906 C 269.039062 42.421875 261.636719 44.136719 253.308594 48.804688 C 250.671875 47.417969 249.046875 46.847656 249.046875 46.847656 C 261.421875 36.8125 272.789062 33.769531 280.316406 33.027344 C 285.980469 32.472656 291.242188 35.984375 293.039062 41.378906 C 302.546875 69.789062 290.5 99.328125 290.5 99.328125 C 289.984375 97.300781 289.429688 95.34375 288.816406 93.460938 C 291.082031 82.210938 292.46875 66.050781 287.175781 50.230469 Z M 287.175781 50.230469 " fill-opacity="0.3" fill-rule="nonzero"/><path fill="#000072" d="M 290.484375 101.097656 C 290.441406 101.097656 290.398438 101.097656 290.355469 101.097656 C 289.585938 101.039062 288.929688 100.496094 288.746094 99.742188 C 278.636719 59.667969 248.734375 48.644531 248.433594 48.53125 C 247.820312 48.316406 247.378906 47.789062 247.265625 47.132812 C 247.148438 46.492188 247.390625 45.832031 247.90625 45.433594 C 260.710938 35.054688 272.503906 31.972656 280.132812 31.214844 C 286.621094 30.574219 292.636719 34.511719 294.734375 40.78125 C 304.34375 69.488281 292.652344 98.742188 292.152344 99.96875 C 291.867188 100.667969 291.210938 101.097656 290.484375 101.097656 Z M 252.539062 46.375 C 260.238281 50.03125 280.929688 62.410156 290.640625 93.230469 C 293.523438 83.539062 298.15625 62.308594 291.324219 41.9375 C 289.757812 37.269531 285.308594 34.328125 280.472656 34.8125 C 273.800781 35.453125 263.707031 38.039062 252.539062 46.375 Z M 252.539062 46.375 " fill-opacity="1" fill-rule="nonzero"/><path fill="#fa9b27" d="M 98.023438 96.269531 C 98.023438 96.269531 88.582031 51.34375 109.371094 13.582031 C 113.324219 6.402344 121.679688 2.804688 129.550781 5.0625 C 140.03125 8.058594 155.332031 15.3125 170.261719 32.726562 C 170.261719 32.714844 123.605469 40.109375 98.023438 96.269531 Z M 98.023438 96.269531 " fill-opacity="1" fill-rule="nonzero"/><path fill="#ffffff" d="M 112.910156 16.753906 C 116.304688 9.300781 124.359375 5.074219 132.375 6.71875 C 134.226562 7.101562 136.253906 7.601562 138.40625 8.257812 C 135.195312 6.84375 132.214844 5.804688 129.550781 5.046875 C 121.679688 2.792969 113.335938 6.402344 109.371094 13.570312 C 88.566406 51.332031 98.023438 96.257812 98.023438 96.257812 C 100.105469 91.6875 102.328125 87.449219 104.652344 83.507812 C 102.527344 67.121094 101.84375 41.007812 112.910156 16.753906 Z M 112.910156 16.753906 " fill-opacity="0.7" fill-rule="nonzero"/><path fill="#000072" d="M 98.023438 98.785156 C 97.9375 98.785156 97.835938 98.785156 97.738281 98.769531 C 96.652344 98.65625 95.769531 97.84375 95.554688 96.785156 C 95.15625 94.914062 86.15625 50.503906 107.175781 12.355469 C 111.753906 4.046875 121.238281 0.0351562 130.25 2.621094 C 140.859375 5.660156 156.742188 13.054688 172.1875 31.058594 C 172.785156 31.757812 172.957031 32.714844 172.644531 33.570312 C 172.328125 34.425781 171.574219 35.039062 170.675781 35.183594 C 170.5625 35.199219 159.140625 37.109375 144.835938 45.707031 C 131.644531 53.613281 113.222656 68.988281 100.332031 97.300781 C 99.902344 98.214844 99.003906 98.785156 98.023438 98.785156 Z M 124.757812 6.886719 C 119.398438 6.886719 114.320312 9.816406 111.582031 14.796875 C 96.582031 42.050781 97.75 73.515625 99.332031 87.878906 C 112.507812 62.90625 129.777344 48.832031 142.453125 41.265625 C 152.292969 35.398438 160.734375 32.527344 165.554688 31.214844 C 151.851562 16.425781 138.175781 10.144531 128.867188 7.472656 C 127.496094 7.074219 126.128906 6.886719 124.757812 6.886719 Z M 124.757812 6.886719 " fill-opacity="1" fill-rule="nonzero"/><path fill="#ff699f" d="M 109.386719 82.894531 C 109.386719 82.894531 102.828125 51.671875 117.273438 25.433594 C 120.023438 20.449219 125.828125 17.9375 131.289062 19.507812 C 138.578125 21.59375 149.199219 26.632812 159.582031 38.722656 C 159.582031 38.738281 127.15625 43.863281 109.386719 82.894531 Z M 109.386719 82.894531 " fill-opacity="1" fill-rule="nonzero"/><path fill="#000072" d="M 121.449219 35.210938 C 124.203125 30.230469 130.007812 27.71875 135.46875 29.289062 C 140.699219 30.785156 147.675781 33.8125 155.03125 39.894531 C 157.871094 39.011719 159.582031 38.738281 159.582031 38.738281 C 149.199219 26.632812 138.578125 21.605469 131.289062 19.523438 C 125.828125 17.953125 120.023438 20.464844 117.273438 25.449219 C 102.828125 51.671875 109.386719 82.894531 109.386719 82.894531 C 110.257812 80.996094 111.15625 79.167969 112.097656 77.414062 C 111.867188 65.976562 113.394531 49.816406 121.449219 35.210938 Z M 121.449219 35.210938 " fill-opacity="0.3" fill-rule="nonzero"/><path fill="#000072" d="M 109.386719 84.695312 C 109.316406 84.695312 109.257812 84.695312 109.1875 84.679688 C 108.417969 84.59375 107.789062 84.023438 107.617188 83.265625 C 107.347656 81.964844 101.085938 51.085938 115.691406 24.578125 C 118.882812 18.78125 125.5 15.980469 131.773438 17.796875 C 139.148438 19.910156 150.199219 25.0625 160.9375 37.566406 C 161.363281 38.066406 161.476562 38.753906 161.261719 39.367188 C 161.035156 39.980469 160.507812 40.421875 159.851562 40.523438 C 159.539062 40.582031 128.136719 46.035156 111.011719 83.652344 C 110.726562 84.292969 110.085938 84.695312 109.386719 84.695312 Z M 127.96875 20.835938 C 124.257812 20.835938 120.75 22.863281 118.855469 26.304688 C 108.488281 45.121094 109.246094 66.847656 110.328125 76.882812 C 125.402344 48.304688 147.988281 39.851562 156.214844 37.640625 C 146.71875 27.417969 137.25 23.078125 130.804688 21.234375 C 129.847656 20.980469 128.910156 20.835938 127.96875 20.835938 Z M 127.96875 20.835938 " fill-opacity="1" fill-rule="nonzero"/><path fill="#fa9b27" d="M 187.34375 230.339844 C 265.144531 237.390625 320.472656 200.34375 304.015625 139 C 303.605469 137.445312 303.132812 135.859375 302.621094 134.273438 C 302.0625 132.546875 301.722656 130.761719 301.550781 128.949219 C 300.167969 113.675781 289.128906 38.523438 205.355469 30.945312 C 121.578125 23.363281 97.265625 95.316406 93.171875 110.089844 C 92.6875 111.832031 92.019531 113.53125 91.164062 115.128906 C 59.351562 174.535156 107.5625 223.113281 187.34375 230.339844 Z M 187.34375 230.339844 " fill-opacity="1" fill-rule="nonzero"/><path fill="#ffffff" d="M 88.9375 119.527344 C 88.9375 119.527344 101.128906 119.554688 109.214844 138.085938 C 115.5625 152.632812 138.347656 154.773438 151.410156 147.378906 C 164.457031 139.984375 180.085938 136.714844 195.65625 138.128906 C 211.230469 139.542969 226.089844 145.582031 237.59375 155.1875 C 249.117188 164.8125 271.917969 166.796875 280.757812 153.617188 C 292.023438 136.84375 304.03125 139 304.03125 139 C 320.472656 200.34375 265.160156 237.378906 187.359375 230.339844 C 109.542969 223.300781 61.757812 176.917969 88.9375 119.527344 Z M 88.9375 119.527344 " fill-opacity="1" fill-rule="nonzero"/><path fill="#000072" d="M 88.3125 120.914062 C 74.59375 170.351562 119.339844 208.882812 188.726562 215.164062 C 258.074219 221.445312 309.007812 191.621094 304.429688 140.570312 C 319.53125 200.988281 264.503906 237.335938 187.359375 230.351562 C 110.171875 223.359375 62.542969 177.675781 88.3125 120.914062 Z M 88.3125 120.914062 " fill-opacity="0.3" fill-rule="nonzero"/><path fill="#000072" d="M 151.054688 150.492188 C 151.054688 150.492188 154.433594 161 167.039062 161.328125 C 171.929688 161.457031 175.539062 160.542969 178.203125 159.257812 C 179.214844 158.773438 179.429688 157.386719 178.589844 156.644531 C 173.796875 152.375 171.246094 146.792969 173.140625 142.269531 C 176.578125 134.058594 195.859375 136.289062 195.859375 136.289062 C 195.859375 136.289062 215.222656 137.558594 217.132812 146.253906 C 218.1875 151.0625 214.652344 156.089844 209.160156 159.445312 C 208.191406 160.027344 208.148438 161.429688 209.0625 162.085938 C 211.445312 163.8125 214.824219 165.339844 219.628906 166.097656 C 232.089844 168.050781 237.296875 158.316406 237.296875 158.316406 C 237.296875 158.316406 241.859375 169.09375 232.660156 176.902344 C 231.878906 177.574219 231.234375 178.375 230.824219 179.316406 C 227.84375 185.996094 214.066406 213.335938 189.054688 211.066406 C 164.042969 208.796875 155.386719 179.429688 153.664062 172.320312 C 153.421875 171.320312 152.9375 170.40625 152.28125 169.621094 C 144.636719 160.273438 151.054688 150.492188 151.054688 150.492188 Z M 151.054688 150.492188 " fill-opacity="0.3" fill-rule="nonzero"/><path fill="#ffffff" d="M 91.164062 115.128906 C 92.019531 113.53125 92.6875 111.832031 93.171875 110.089844 C 97.265625 95.316406 121.605469 23.378906 205.382812 30.957031 C 289.160156 38.539062 300.195312 113.703125 301.578125 128.964844 C 301.75 130.777344 302.09375 132.5625 302.648438 134.289062 C 303.160156 135.886719 303.617188 137.457031 304.046875 139.015625 C 306.996094 149.992188 307.625 160.199219 306.242188 169.507812 C 306.5 162.199219 305.601562 154.417969 303.390625 146.179688 C 302.976562 144.625 302.503906 143.039062 301.992188 141.457031 C 301.4375 139.726562 301.09375 137.945312 300.921875 136.128906 C 299.769531 123.367188 291.855469 68.746094 240.347656 46.746094 C 240.347656 46.761719 240.347656 46.777344 240.347656 46.789062 C 239.664062 49.304688 233.546875 49.84375 226.671875 47.988281 C 219.800781 46.132812 214.78125 42.59375 215.449219 40.066406 C 215.492188 39.878906 215.578125 39.710938 215.691406 39.550781 C 212.183594 38.9375 208.546875 38.453125 204.742188 38.109375 C 120.964844 30.515625 96.640625 102.46875 92.546875 117.242188 C 92.0625 118.984375 91.390625 120.683594 90.535156 122.28125 C 85.601562 131.503906 82.59375 140.46875 81.324219 149.066406 C 81.679688 138.34375 84.832031 126.949219 91.164062 115.128906 Z M 91.164062 115.128906 " fill-opacity="0.6" fill-rule="nonzero"/><path fill="#000072" d="M 225.019531 129.59375 L 225.558594 129.019531 C 225.71875 128.863281 225.875 128.691406 226.03125 128.550781 C 226.34375 128.25 226.671875 127.949219 226.988281 127.664062 C 227.640625 127.109375 228.296875 126.566406 228.984375 126.066406 C 230.351562 125.066406 231.792969 124.167969 233.289062 123.382812 C 236.285156 121.796875 239.519531 120.667969 242.859375 120.027344 C 246.195312 119.371094 249.628906 119.257812 252.953125 119.726562 C 256.277344 120.199219 259.441406 121.253906 262.265625 122.78125 C 262.964844 123.167969 263.234375 124.054688 262.847656 124.753906 C 262.550781 125.292969 261.964844 125.566406 261.394531 125.496094 L 261.351562 125.496094 C 258.414062 125.136719 255.578125 125.039062 252.824219 125.394531 C 251.457031 125.539062 250.117188 125.851562 248.804688 126.164062 C 247.492188 126.507812 246.207031 126.964844 244.96875 127.449219 C 242.472656 128.464844 240.132812 129.804688 237.882812 131.261719 C 236.753906 132.003906 235.671875 132.789062 234.601562 133.589844 C 234.074219 134.003906 233.546875 134.402344 233.03125 134.816406 L 231.648438 135.960938 L 231.265625 136.273438 C 229.3125 137.871094 226.429688 137.585938 224.820312 135.632812 C 223.335938 133.832031 223.464844 131.25 225.019531 129.59375 Z M 225.019531 129.59375 " fill-opacity="1" fill-rule="nonzero"/><path fill="#000072" d="M 160.707031 129.535156 L 159.539062 128.164062 C 159.125 127.664062 158.667969 127.164062 158.226562 126.664062 C 157.328125 125.679688 156.386719 124.710938 155.417969 123.78125 C 153.464844 121.941406 151.394531 120.199219 149.113281 118.757812 C 147.972656 118.058594 146.804688 117.371094 145.5625 116.800781 C 144.324219 116.257812 143.066406 115.703125 141.742188 115.332031 C 139.105469 114.488281 136.28125 114.074219 133.34375 113.902344 L 133.300781 113.902344 C 132.5 113.859375 131.886719 113.175781 131.929688 112.359375 C 131.960938 111.746094 132.375 111.246094 132.929688 111.0625 C 135.980469 110.0625 139.289062 109.589844 142.640625 109.71875 C 145.992188 109.863281 149.355469 110.589844 152.523438 111.832031 C 155.6875 113.058594 158.683594 114.757812 161.335938 116.859375 C 162.660156 117.898438 163.914062 119.042969 165.085938 120.269531 C 165.667969 120.882812 166.226562 121.527344 166.769531 122.195312 C 167.039062 122.523438 167.296875 122.882812 167.550781 123.238281 C 167.679688 123.410156 167.808594 123.609375 167.9375 123.796875 L 168.363281 124.453125 C 169.75 126.578125 169.136719 129.421875 167.011719 130.792969 C 165.058594 132.0625 162.488281 131.648438 161.019531 129.90625 Z M 160.707031 129.535156 " fill-opacity="1" fill-rule="nonzero"/><path fill="#000072" d="M 193.675781 160.371094 C 181.785156 159.285156 171.203125 148.28125 174.453125 140.5 C 177.703125 132.71875 195.984375 134.832031 195.984375 134.832031 C 195.984375 134.832031 214.351562 136.042969 216.148438 144.28125 C 217.960938 152.503906 205.570312 161.441406 193.675781 160.371094 Z M 193.675781 160.371094 " fill-opacity="1" fill-rule="nonzero"/><path fill="#000072" d="M 196.570312 158.015625 C 196.613281 158.144531 196.742188 158.445312 196.839844 158.671875 C 196.941406 158.914062 197.054688 159.15625 197.167969 159.414062 C 197.398438 159.898438 197.667969 160.386719 197.925781 160.871094 C 198.46875 161.84375 199.066406 162.769531 199.722656 163.65625 C 201.035156 165.425781 202.558594 166.996094 204.300781 168.28125 C 205.15625 168.921875 206.066406 169.492188 207.039062 169.980469 C 207.992188 170.480469 208.992188 170.894531 210.015625 171.234375 C 212.085938 171.90625 214.265625 172.261719 216.519531 172.335938 C 218.773438 172.40625 221.097656 172.21875 223.265625 171.75 C 225.445312 171.308594 227.515625 170.507812 229.3125 169.324219 C 231.121094 168.136719 232.589844 166.539062 233.886719 164.695312 C 235.171875 162.839844 236.253906 160.726562 237.183594 158.316406 L 237.183594 158.300781 C 237.210938 158.246094 237.269531 158.214844 237.308594 158.246094 C 237.339844 158.257812 237.367188 158.289062 237.367188 158.316406 C 238.136719 160.886719 237.851562 163.667969 236.910156 166.253906 C 235.96875 168.851562 234.128906 171.164062 231.921875 172.890625 C 229.710938 174.648438 227.128906 175.875 224.503906 176.632812 C 221.851562 177.386719 219.199219 177.746094 216.492188 177.816406 C 211.085938 177.988281 205.296875 176.488281 200.75 173.121094 C 198.4375 171.492188 196.5 169.4375 194.859375 167.195312 C 194.046875 166.066406 193.332031 164.882812 192.691406 163.667969 C 192.378906 163.054688 192.078125 162.425781 191.808594 161.785156 C 191.679688 161.457031 191.550781 161.140625 191.421875 160.800781 C 191.292969 160.441406 191.195312 160.171875 191.050781 159.699219 C 190.597656 158.171875 191.453125 156.574219 192.976562 156.117188 C 194.417969 155.675781 195.941406 156.429688 196.484375 157.816406 Z M 196.570312 158.015625 " fill-opacity="1" fill-rule="nonzero"/><path fill="#000072" d="M 196.371094 160.171875 C 196.144531 160.613281 196 160.871094 195.816406 161.183594 C 195.628906 161.5 195.445312 161.785156 195.257812 162.085938 C 194.875 162.667969 194.472656 163.242188 194.0625 163.785156 C 193.207031 164.867188 192.292969 165.910156 191.292969 166.867188 C 189.285156 168.765625 187.003906 170.449219 184.4375 171.636719 C 179.34375 174.121094 173.382812 174.5625 168.09375 173.417969 C 165.441406 172.847656 162.902344 172.035156 160.421875 170.808594 C 157.96875 169.578125 155.660156 167.921875 153.792969 165.796875 C 151.921875 163.699219 150.527344 161.097656 150.070312 158.371094 C 149.597656 155.660156 149.828125 152.863281 151.039062 150.476562 C 151.066406 150.421875 151.125 150.40625 151.183594 150.433594 C 151.210938 150.449219 151.226562 150.476562 151.238281 150.507812 L 151.238281 150.519531 C 151.722656 153.0625 152.410156 155.332031 153.335938 157.386719 C 154.277344 159.429688 155.445312 161.269531 157 162.753906 C 158.554688 164.253906 160.4375 165.410156 162.519531 166.238281 C 164.570312 167.082031 166.824219 167.679688 169.050781 168.023438 C 171.273438 168.351562 173.5 168.394531 175.652344 168.109375 C 176.722656 167.964844 177.777344 167.738281 178.804688 167.410156 C 179.828125 167.109375 180.828125 166.710938 181.796875 166.226562 C 183.722656 165.269531 185.519531 163.996094 187.117188 162.5 C 187.914062 161.742188 188.683594 160.941406 189.382812 160.085938 C 189.726562 159.65625 190.082031 159.230469 190.394531 158.785156 C 190.554688 158.574219 190.710938 158.34375 190.851562 158.117188 C 190.996094 157.914062 191.167969 157.628906 191.222656 157.515625 L 191.335938 157.34375 C 192.164062 155.988281 193.933594 155.574219 195.289062 156.402344 C 196.597656 157.203125 197.042969 158.859375 196.371094 160.171875 Z M 196.371094 160.171875 " fill-opacity="1" fill-rule="nonzero"/><path fill="#000072" d="M 160.351562 167.980469 C 160.351562 167.980469 163.945312 206.382812 189.3125 208.683594 C 200.320312 209.679688 208.519531 203.242188 214.265625 195.648438 C 221.765625 185.738281 225.089844 173.847656 225.089844 173.847656 C 225.089844 173.847656 204.554688 180.730469 193.660156 160.371094 C 179.316406 178.429688 160.351562 167.980469 160.351562 167.980469 Z M 160.351562 167.980469 " fill-opacity="1" fill-rule="nonzero"/><path fill="#ff699f" d="M 191.851562 180.558594 C 210.929688 182.285156 214.265625 195.648438 214.265625 195.648438 C 208.519531 203.242188 200.320312 209.679688 189.3125 208.683594 C 178.304688 207.683594 171.386719 199.875 167.097656 191.363281 C 167.097656 191.363281 172.769531 178.832031 191.851562 180.558594 Z M 191.851562 180.558594 " fill-opacity="1" fill-rule="nonzero"/><path fill="#541e44" d="M 190.339844 197.289062 C 198.78125 198.058594 205.78125 195.019531 211.484375 190.308594 C 213.652344 193.222656 214.265625 195.648438 214.265625 195.648438 C 208.519531 203.242188 200.320312 209.679688 189.3125 208.683594 C 178.304688 207.683594 171.386719 199.875 167.097656 191.363281 C 167.097656 191.363281 168.136719 189.09375 170.789062 186.609375 C 175.550781 192.265625 181.898438 196.519531 190.339844 197.289062 Z M 190.339844 197.289062 " fill-opacity="0.3" fill-rule="nonzero"/><path fill="#000072" d="M 191.609375 211.308594 C 190.78125 211.308594 189.941406 211.265625 189.070312 211.195312 C 161.933594 208.738281 157.984375 169.863281 157.828125 168.222656 C 157.742188 167.296875 158.167969 166.394531 158.953125 165.882812 C 159.738281 165.367188 160.734375 165.339844 161.546875 165.78125 C 162.246094 166.167969 178.875 174.949219 191.695312 158.816406 C 192.222656 158.160156 193.046875 157.800781 193.890625 157.875 C 194.730469 157.945312 195.488281 158.445312 195.886719 159.1875 C 205.609375 177.359375 223.535156 171.707031 224.304688 171.464844 C 225.191406 171.179688 226.160156 171.394531 226.828125 172.035156 C 227.5 172.675781 227.769531 173.632812 227.515625 174.535156 C 227.085938 176.074219 216.890625 211.308594 191.609375 211.308594 Z M 163.472656 171.921875 C 165.226562 181.542969 171.300781 204.511719 189.527344 206.167969 C 207.734375 207.824219 217.847656 186.3125 221.296875 177.160156 C 214.566406 178.003906 201.859375 177.53125 193.277344 164.625 C 182.523438 175.777344 169.949219 173.960938 163.472656 171.921875 Z M 163.472656 171.921875 " fill-opacity="1" fill-rule="nonzero"/><path fill="#ffffff" d="M 195.636719 138.136719 C 196.300781 138.195312 196.957031 138.269531 197.601562 138.359375 C 198.25 138.445312 198.878906 138.546875 199.484375 138.660156 C 200.09375 138.773438 200.667969 138.898438 201.210938 139.03125 C 201.753906 139.167969 202.257812 139.308594 202.714844 139.457031 C 203.175781 139.605469 203.582031 139.761719 203.941406 139.921875 C 204.296875 140.078125 204.597656 140.242188 204.835938 140.402344 C 205.078125 140.566406 205.257812 140.726562 205.371094 140.886719 C 205.488281 141.046875 205.539062 141.203125 205.527344 141.355469 C 205.511719 141.503906 205.433594 141.648438 205.292969 141.785156 C 205.148438 141.921875 204.945312 142.050781 204.679688 142.164062 C 204.410156 142.28125 204.089844 142.386719 203.710938 142.480469 C 203.328125 142.570312 202.898438 142.648438 202.421875 142.714844 C 201.941406 142.777344 201.425781 142.828125 200.867188 142.863281 C 200.308594 142.898438 199.71875 142.914062 199.101562 142.917969 C 198.484375 142.917969 197.847656 142.90625 197.195312 142.875 C 196.542969 142.847656 195.882812 142.800781 195.222656 142.742188 C 194.558594 142.683594 193.902344 142.609375 193.253906 142.519531 C 192.609375 142.429688 191.980469 142.332031 191.371094 142.21875 C 190.765625 142.105469 190.191406 141.980469 189.648438 141.847656 C 189.101562 141.710938 188.601562 141.570312 188.140625 141.421875 C 187.683594 141.273438 187.273438 141.117188 186.917969 140.957031 C 186.5625 140.800781 186.261719 140.636719 186.019531 140.476562 C 185.78125 140.3125 185.601562 140.152344 185.484375 139.992188 C 185.371094 139.832031 185.320312 139.675781 185.332031 139.523438 C 185.347656 139.375 185.425781 139.230469 185.566406 139.09375 C 185.710938 138.957031 185.914062 138.828125 186.179688 138.714844 C 186.445312 138.597656 186.769531 138.492188 187.148438 138.398438 C 187.527344 138.308594 187.957031 138.226562 188.4375 138.164062 C 188.914062 138.097656 189.433594 138.050781 189.992188 138.015625 C 190.550781 137.980469 191.140625 137.964844 191.757812 137.960938 C 192.375 137.960938 193.011719 137.972656 193.664062 138 C 194.316406 138.03125 194.972656 138.074219 195.636719 138.136719 Z M 195.636719 138.136719 " fill-opacity="1" fill-rule="nonzero"/><path fill="#ffffff" d="M 240.316406 101.15625 C 240.519531 101.511719 240.664062 101.894531 240.75 102.308594 C 240.835938 102.71875 240.855469 103.15625 240.816406 103.617188 C 240.777344 104.074219 240.675781 104.546875 240.515625 105.035156 C 240.351562 105.523438 240.132812 106.015625 239.855469 106.511719 C 239.578125 107.007812 239.246094 107.496094 238.863281 107.984375 C 238.476562 108.46875 238.050781 108.941406 237.574219 109.398438 C 237.101562 109.855469 236.589844 110.292969 236.042969 110.703125 C 235.496094 111.113281 234.921875 111.496094 234.324219 111.84375 C 233.726562 112.191406 233.113281 112.503906 232.484375 112.777344 C 231.859375 113.050781 231.230469 113.285156 230.597656 113.472656 C 229.964844 113.660156 229.34375 113.800781 228.734375 113.894531 C 228.121094 113.992188 227.53125 114.035156 226.960938 114.035156 C 226.394531 114.03125 225.859375 113.980469 225.355469 113.882812 C 224.851562 113.785156 224.390625 113.640625 223.972656 113.449219 C 223.554688 113.257812 223.1875 113.019531 222.867188 112.742188 C 222.550781 112.464844 222.289062 112.152344 222.082031 111.800781 C 221.878906 111.449219 221.734375 111.0625 221.648438 110.652344 C 221.566406 110.238281 221.542969 109.800781 221.582031 109.339844 C 221.621094 108.882812 221.722656 108.410156 221.882812 107.921875 C 222.046875 107.433594 222.265625 106.945312 222.542969 106.449219 C 222.824219 105.953125 223.152344 105.460938 223.539062 104.972656 C 223.921875 104.488281 224.351562 104.015625 224.824219 103.558594 C 225.300781 103.101562 225.808594 102.667969 226.355469 102.253906 C 226.902344 101.84375 227.476562 101.464844 228.074219 101.113281 C 228.675781 100.765625 229.285156 100.453125 229.914062 100.179688 C 230.539062 99.90625 231.171875 99.675781 231.800781 99.484375 C 232.433594 99.296875 233.054688 99.15625 233.667969 99.0625 C 234.277344 98.96875 234.867188 98.921875 235.4375 98.921875 C 236.003906 98.925781 236.539062 98.976562 237.042969 99.074219 C 237.546875 99.171875 238.007812 99.316406 238.425781 99.511719 C 238.84375 99.703125 239.210938 99.9375 239.53125 100.214844 C 239.847656 100.492188 240.109375 100.804688 240.316406 101.15625 Z M 240.316406 101.15625 " fill-opacity="1" fill-rule="nonzero"/><path fill="#ffffff" d="M 174.441406 107.492188 C 172.214844 110.089844 166.8125 109.132812 162.390625 105.335938 C 157.96875 101.539062 156.1875 96.355469 158.425781 93.746094 C 160.652344 91.144531 165.34375 92.03125 169.761719 95.828125 C 174.183594 99.625 176.679688 104.878906 174.441406 107.492188 Z M 174.441406 107.492188 " fill-opacity="1" fill-rule="nonzero"/><path fill="#000072" d="M 205.667969 233.707031 C 199.636719 233.707031 193.449219 233.421875 187.128906 232.851562 C 139.175781 228.511719 101.457031 208.996094 86.199219 180.671875 C 75.378906 160.570312 76.332031 137.488281 88.953125 113.929688 C 89.695312 112.53125 90.308594 111.003906 90.75 109.40625 C 94.871094 94.515625 119.8125 20.664062 205.609375 28.429688 C 291.410156 36.199219 302.691406 113.347656 304.089844 128.722656 C 304.230469 130.378906 304.558594 131.976562 305.042969 133.488281 C 313.230469 158.929688 310.019531 181.8125 295.773438 199.644531 C 278.335938 221.472656 245.425781 233.707031 205.667969 233.707031 Z M 193.375 32.914062 C 121.007812 32.914062 99.332031 97.257812 95.597656 110.761719 C 95.054688 112.71875 94.3125 114.585938 93.386719 116.316406 C 81.609375 138.316406 80.652344 159.742188 90.636719 178.289062 C 105.082031 205.128906 141.3125 223.644531 187.585938 227.839844 C 233.84375 232.023438 272.832031 220.316406 291.839844 196.519531 C 304.988281 180.074219 307.882812 158.816406 300.238281 135.058594 C 299.640625 133.191406 299.242188 131.21875 299.054688 129.191406 C 297.730469 114.503906 286.960938 40.878906 205.140625 33.457031 C 201.078125 33.097656 197.15625 32.914062 193.375 32.914062 Z M 193.375 32.914062 " fill-opacity="1" fill-rule="nonzero"/><path fill="#f9c710" d="M 265.089844 298.578125 C 265.089844 299.78125 265.058594 300.980469 265 302.179688 C 264.941406 303.378906 264.851562 304.574219 264.734375 305.769531 C 264.617188 306.964844 264.472656 308.15625 264.296875 309.339844 C 264.121094 310.527344 263.914062 311.710938 263.679688 312.890625 C 263.445312 314.066406 263.183594 315.238281 262.894531 316.402344 C 262.601562 317.566406 262.28125 318.722656 261.933594 319.871094 C 261.585938 321.019531 261.210938 322.160156 260.804688 323.289062 C 260.402344 324.421875 259.96875 325.539062 259.511719 326.648438 C 259.050781 327.757812 258.566406 328.855469 258.054688 329.941406 C 257.542969 331.027344 257.003906 332.097656 256.4375 333.15625 C 255.871094 334.214844 255.28125 335.257812 254.664062 336.289062 C 254.046875 337.320312 253.40625 338.332031 252.742188 339.332031 C 252.074219 340.328125 251.382812 341.308594 250.671875 342.273438 C 249.957031 343.238281 249.21875 344.183594 248.457031 345.113281 C 247.695312 346.039062 246.914062 346.949219 246.109375 347.839844 C 245.304688 348.726562 244.476562 349.597656 243.628906 350.445312 C 242.78125 351.292969 241.914062 352.121094 241.023438 352.929688 C 240.136719 353.734375 239.230469 354.519531 238.300781 355.28125 C 237.375 356.042969 236.429688 356.78125 235.464844 357.496094 C 234.503906 358.210938 233.523438 358.902344 232.527344 359.566406 C 231.53125 360.234375 230.515625 360.875 229.488281 361.492188 C 228.460938 362.109375 227.417969 362.703125 226.359375 363.269531 C 225.300781 363.835938 224.230469 364.375 223.148438 364.886719 C 222.0625 365.402344 220.96875 365.886719 219.859375 366.347656 C 218.753906 366.804688 217.632812 367.238281 216.503906 367.640625 C 215.375 368.046875 214.238281 368.421875 213.089844 368.769531 C 211.941406 369.121094 210.789062 369.441406 209.625 369.730469 C 208.460938 370.023438 207.292969 370.285156 206.117188 370.519531 C 204.941406 370.753906 203.757812 370.960938 202.574219 371.136719 C 201.386719 371.3125 200.195312 371.457031 199.003906 371.578125 C 197.808594 371.695312 196.613281 371.78125 195.417969 371.839844 C 194.21875 371.902344 193.019531 371.929688 191.820312 371.929688 C 190.621094 371.929688 189.425781 371.902344 188.226562 371.839844 C 187.03125 371.78125 185.835938 371.695312 184.640625 371.578125 C 183.449219 371.457031 182.257812 371.3125 181.070312 371.136719 C 179.886719 370.960938 178.703125 370.753906 177.527344 370.519531 C 176.351562 370.285156 175.183594 370.023438 174.019531 369.730469 C 172.855469 369.441406 171.703125 369.121094 170.554688 368.769531 C 169.40625 368.421875 168.269531 368.046875 167.140625 367.640625 C 166.011719 367.238281 164.890625 366.804688 163.785156 366.347656 C 162.675781 365.886719 161.582031 365.402344 160.496094 364.886719 C 159.414062 364.375 158.34375 363.835938 157.285156 363.269531 C 156.226562 362.703125 155.183594 362.109375 154.15625 361.492188 C 153.128906 360.875 152.113281 360.234375 151.117188 359.566406 C 150.121094 358.902344 149.140625 358.210938 148.175781 357.496094 C 147.214844 356.78125 146.269531 356.042969 145.34375 355.28125 C 144.414062 354.519531 143.507812 353.734375 142.621094 352.929688 C 141.730469 352.121094 140.863281 351.292969 140.015625 350.445312 C 139.167969 349.597656 138.339844 348.726562 137.535156 347.839844 C 136.730469 346.949219 135.945312 346.039062 135.1875 345.113281 C 134.425781 344.183594 133.6875 343.238281 132.972656 342.273438 C 132.261719 341.308594 131.570312 340.328125 130.902344 339.332031 C 130.238281 338.332031 129.597656 337.320312 128.980469 336.289062 C 128.363281 335.257812 127.773438 334.214844 127.207031 333.15625 C 126.640625 332.097656 126.101562 331.027344 125.589844 329.941406 C 125.078125 328.855469 124.589844 327.757812 124.132812 326.648438 C 123.675781 325.539062 123.242188 324.421875 122.839844 323.289062 C 122.433594 322.160156 122.058594 321.019531 121.710938 319.871094 C 121.363281 318.722656 121.042969 317.566406 120.75 316.402344 C 120.460938 315.238281 120.199219 314.066406 119.964844 312.890625 C 119.730469 311.710938 119.523438 310.527344 119.347656 309.339844 C 119.171875 308.15625 119.027344 306.964844 118.910156 305.769531 C 118.792969 304.574219 118.703125 303.378906 118.644531 302.179688 C 118.585938 300.980469 118.554688 299.78125 118.554688 298.578125 C 118.554688 297.378906 118.585938 296.179688 118.644531 294.980469 C 118.703125 293.78125 118.792969 292.585938 118.910156 291.390625 C 119.027344 290.195312 119.171875 289.003906 119.347656 287.816406 C 119.523438 286.628906 119.730469 285.445312 119.964844 284.269531 C 120.199219 283.089844 120.460938 281.921875 120.75 280.757812 C 121.042969 279.589844 121.363281 278.433594 121.710938 277.285156 C 122.058594 276.136719 122.433594 274.996094 122.839844 273.867188 C 123.242188 272.738281 123.675781 271.617188 124.132812 270.507812 C 124.589844 269.398438 125.078125 268.300781 125.589844 267.21875 C 126.101562 266.132812 126.640625 265.058594 127.207031 264 C 127.773438 262.941406 128.363281 261.898438 128.980469 260.867188 C 129.597656 259.839844 130.238281 258.824219 130.902344 257.828125 C 131.570312 256.828125 132.261719 255.847656 132.972656 254.882812 C 133.6875 253.917969 134.425781 252.972656 135.1875 252.046875 C 135.945312 251.117188 136.730469 250.207031 137.535156 249.320312 C 138.339844 248.429688 139.167969 247.5625 140.015625 246.710938 C 140.863281 245.863281 141.730469 245.035156 142.621094 244.230469 C 143.507812 243.421875 144.414062 242.640625 145.34375 241.878906 C 146.269531 241.117188 147.214844 240.378906 148.175781 239.664062 C 149.140625 238.949219 150.121094 238.257812 151.117188 237.589844 C 152.113281 236.921875 153.128906 236.28125 154.15625 235.664062 C 155.183594 235.046875 156.226562 234.457031 157.285156 233.890625 C 158.34375 233.324219 159.414062 232.785156 160.496094 232.269531 C 161.582031 231.757812 162.675781 231.269531 163.785156 230.8125 C 164.890625 230.351562 166.011719 229.921875 167.140625 229.515625 C 168.269531 229.113281 169.40625 228.734375 170.554688 228.386719 C 171.703125 228.039062 172.855469 227.71875 174.019531 227.425781 C 175.183594 227.132812 176.351562 226.871094 177.527344 226.636719 C 178.703125 226.402344 179.886719 226.199219 181.070312 226.023438 C 182.257812 225.847656 183.449219 225.699219 184.640625 225.582031 C 185.835938 225.464844 187.03125 225.375 188.226562 225.316406 C 189.425781 225.257812 190.621094 225.226562 191.820312 225.226562 C 193.019531 225.226562 194.21875 225.257812 195.417969 225.316406 C 196.613281 225.375 197.808594 225.464844 199.003906 225.582031 C 200.195312 225.699219 201.386719 225.847656 202.574219 226.023438 C 203.757812 226.199219 204.941406 226.402344 206.117188 226.636719 C 207.292969 226.871094 208.460938 227.132812 209.625 227.425781 C 210.789062 227.71875 211.941406 228.039062 213.089844 228.386719 C 214.238281 228.734375 215.375 229.113281 216.503906 229.515625 C 217.632812 229.921875 218.753906 230.351562 219.859375 230.8125 C 220.96875 231.269531 222.0625 231.757812 223.148438 232.269531 C 224.230469 232.785156 225.300781 233.324219 226.359375 233.890625 C 227.417969 234.457031 228.460938 235.046875 229.488281 235.664062 C 230.515625 236.28125 231.53125 236.921875 232.527344 237.589844 C 233.523438 238.257812 234.503906 238.949219 235.464844 239.664062 C 236.429688 240.378906 237.375 241.117188 238.300781 241.878906 C 239.230469 242.640625 240.136719 243.421875 241.023438 244.230469 C 241.914062 245.035156 242.78125 245.863281 243.628906 246.710938 C 244.476562 247.5625 245.304688 248.429688 246.109375 249.320312 C 246.914062 250.207031 247.695312 251.117188 248.457031 252.046875 C 249.21875 252.972656 249.957031 253.917969 250.671875 254.882812 C 251.382812 255.847656 252.074219 256.828125 252.742188 257.828125 C 253.40625 258.824219 254.046875 259.839844 254.664062 260.867188 C 255.28125 261.898438 255.871094 262.941406 256.4375 264 C 257.003906 265.058594 257.542969 266.132812 258.054688 267.21875 C 258.566406 268.300781 259.050781 269.398438 259.511719 270.507812 C 259.96875 271.617188 260.402344 272.738281 260.804688 273.867188 C 261.210938 274.996094 261.585938 276.136719 261.933594 277.285156 C 262.28125 278.433594 262.601562 279.589844 262.894531 280.757812 C 263.183594 281.921875 263.445312 283.089844 263.679688 284.269531 C 263.914062 285.445312 264.121094 286.628906 264.296875 287.816406 C 264.472656 289.003906 264.617188 290.195312 264.734375 291.390625 C 264.851562 292.585938 264.941406 293.78125 265 294.980469 C 265.058594 296.179688 265.089844 297.378906 265.089844 298.578125 Z M 265.089844 298.578125 " fill-opacity="1" fill-rule="nonzero"/><path fill="#ffffff" d="M 228.496094 329 C 219.941406 341.121094 205.839844 349.046875 189.867188 349.046875 C 163.714844 349.046875 142.539062 327.832031 142.539062 301.664062 C 142.539062 289.34375 147.246094 278.121094 154.960938 269.683594 C 149.441406 277.40625 146.207031 286.859375 146.207031 297.09375 C 146.207031 323.261719 167.410156 344.476562 193.535156 344.476562 C 207.394531 344.460938 219.855469 338.507812 228.496094 329 Z M 228.496094 329 " fill-opacity="0.7" fill-rule="nonzero"/><path fill="#f89f1d" d="M 137.949219 248.953125 C 126.355469 261.933594 119.3125 279.050781 119.3125 297.824219 C 119.3125 338.339844 152.109375 371.171875 192.578125 371.171875 C 212.226562 371.171875 230.050781 363.4375 243.214844 350.828125 C 244.125 349.816406 245.011719 348.757812 245.867188 347.6875 C 234.246094 355.457031 220.257812 359.996094 205.242188 359.996094 C 164.769531 359.996094 131.972656 327.144531 131.972656 286.644531 C 131.972656 269.3125 137.976562 253.394531 148.03125 240.832031 C 144.421875 243.246094 141.058594 245.972656 137.949219 248.953125 Z M 137.949219 248.953125 " fill-opacity="1" fill-rule="nonzero"/><path fill="#ffffff" d="M 265.84375 297.824219 C 265.84375 321.679688 254.464844 342.878906 236.839844 356.285156 C 249.757812 343.0625 257.714844 324.976562 257.714844 305.015625 C 257.714844 264.5 224.917969 231.667969 184.449219 231.667969 C 167.808594 231.667969 152.480469 237.207031 140.1875 246.554688 C 153.492188 232.921875 172.042969 224.472656 192.578125 224.472656 C 233.046875 224.472656 265.84375 257.320312 265.84375 297.824219 Z M 265.84375 297.824219 " fill-opacity="0.7" fill-rule="nonzero"/><g clip-path="url(#76498febba)"><path fill="#000072" d="M 192.578125 374.214844 C 150.511719 374.214844 116.289062 339.953125 116.289062 297.835938 C 116.289062 255.722656 150.511719 221.460938 192.578125 221.460938 C 234.644531 221.460938 268.882812 255.722656 268.882812 297.835938 C 268.882812 339.953125 234.644531 374.214844 192.578125 374.214844 Z M 192.578125 227.511719 C 153.847656 227.511719 122.335938 259.0625 122.335938 297.835938 C 122.335938 336.609375 153.847656 368.160156 192.578125 368.160156 C 231.308594 368.160156 262.820312 336.609375 262.820312 297.835938 C 262.820312 259.0625 231.308594 227.511719 192.578125 227.511719 Z M 192.578125 227.511719 " fill-opacity="1" fill-rule="nonzero"/></g><path fill="#f89f1d" d="M 241.1875 297.824219 C 241.1875 299.417969 241.109375 301.007812 240.953125 302.59375 C 240.800781 304.179688 240.566406 305.753906 240.253906 307.316406 C 239.945312 308.878906 239.558594 310.425781 239.097656 311.949219 C 238.632812 313.476562 238.097656 314.972656 237.488281 316.445312 C 236.878906 317.917969 236.199219 319.359375 235.449219 320.765625 C 234.699219 322.167969 233.882812 323.535156 232.996094 324.859375 C 232.113281 326.1875 231.164062 327.464844 230.15625 328.695312 C 229.144531 329.929688 228.078125 331.109375 226.949219 332.234375 C 225.824219 333.363281 224.648438 334.429688 223.417969 335.441406 C 222.1875 336.453125 220.910156 337.402344 219.585938 338.289062 C 218.261719 339.171875 216.898438 339.992188 215.492188 340.742188 C 214.089844 341.496094 212.652344 342.175781 211.179688 342.785156 C 209.710938 343.394531 208.210938 343.929688 206.6875 344.394531 C 205.164062 344.855469 203.621094 345.242188 202.0625 345.554688 C 200.5 345.867188 198.925781 346.097656 197.34375 346.253906 C 195.757812 346.410156 194.171875 346.488281 192.578125 346.488281 C 190.984375 346.488281 189.398438 346.410156 187.8125 346.253906 C 186.230469 346.097656 184.65625 345.867188 183.09375 345.554688 C 181.53125 345.242188 179.992188 344.855469 178.464844 344.394531 C 176.941406 343.929688 175.445312 343.394531 173.976562 342.785156 C 172.503906 342.175781 171.066406 341.496094 169.664062 340.742188 C 168.257812 339.992188 166.894531 339.171875 165.570312 338.289062 C 164.246094 337.402344 162.96875 336.453125 161.738281 335.441406 C 160.507812 334.429688 159.332031 333.363281 158.203125 332.234375 C 157.078125 331.109375 156.011719 329.929688 155 328.695312 C 153.992188 327.464844 153.042969 326.1875 152.160156 324.859375 C 151.273438 323.535156 150.457031 322.167969 149.707031 320.765625 C 148.957031 319.359375 148.277344 317.917969 147.667969 316.445312 C 147.058594 314.972656 146.523438 313.476562 146.058594 311.949219 C 145.597656 310.425781 145.210938 308.878906 144.902344 307.316406 C 144.589844 305.753906 144.355469 304.179688 144.199219 302.59375 C 144.042969 301.007812 143.964844 299.417969 143.964844 297.824219 C 143.964844 296.226562 144.042969 294.636719 144.199219 293.050781 C 144.355469 291.464844 144.589844 289.890625 144.902344 288.328125 C 145.210938 286.765625 145.597656 285.21875 146.058594 283.695312 C 146.523438 282.167969 147.058594 280.671875 147.667969 279.199219 C 148.277344 277.726562 148.957031 276.285156 149.707031 274.878906 C 150.457031 273.476562 151.273438 272.109375 152.160156 270.785156 C 153.042969 269.457031 153.992188 268.179688 155 266.949219 C 156.011719 265.714844 157.078125 264.535156 158.203125 263.410156 C 159.332031 262.28125 160.507812 261.214844 161.738281 260.203125 C 162.96875 259.191406 164.246094 258.242188 165.570312 257.355469 C 166.894531 256.472656 168.257812 255.652344 169.664062 254.902344 C 171.066406 254.148438 172.503906 253.46875 173.976562 252.859375 C 175.445312 252.25 176.941406 251.714844 178.464844 251.25 C 179.992188 250.789062 181.53125 250.402344 183.09375 250.089844 C 184.65625 249.777344 186.230469 249.546875 187.8125 249.390625 C 189.398438 249.234375 190.984375 249.15625 192.578125 249.15625 C 194.171875 249.15625 195.757812 249.234375 197.34375 249.390625 C 198.925781 249.546875 200.5 249.777344 202.0625 250.089844 C 203.621094 250.402344 205.164062 250.789062 206.6875 251.25 C 208.210938 251.714844 209.710938 252.25 211.179688 252.859375 C 212.652344 253.46875 214.089844 254.148438 215.492188 254.902344 C 216.898438 255.652344 218.261719 256.472656 219.585938 257.355469 C 220.910156 258.242188 222.1875 259.191406 223.417969 260.203125 C 224.648438 261.214844 225.824219 262.28125 226.949219 263.410156 C 228.078125 264.535156 229.144531 265.714844 230.15625 266.949219 C 231.164062 268.179688 232.113281 269.457031 232.996094 270.785156 C 233.882812 272.109375 234.699219 273.476562 235.449219 274.878906 C 236.199219 276.285156 236.878906 277.726562 237.488281 279.199219 C 238.097656 280.671875 238.632812 282.167969 239.097656 283.695312 C 239.558594 285.21875 239.945312 286.765625 240.253906 288.328125 C 240.566406 289.890625 240.800781 291.464844 240.953125 293.050781 C 241.109375 294.636719 241.1875 296.226562 241.1875 297.824219 Z M 241.1875 297.824219 " fill-opacity="1" fill-rule="nonzero"/><path fill="#000072" d="M 228.496094 330.613281 C 234.117188 322.675781 237.425781 312.984375 237.425781 302.519531 C 237.425781 275.636719 215.664062 253.851562 188.8125 253.851562 C 174.597656 253.851562 161.832031 259.949219 152.9375 269.65625 C 161.71875 257.234375 176.207031 249.15625 192.578125 249.15625 C 219.429688 249.15625 241.1875 270.941406 241.1875 297.824219 C 241.1875 310.457031 236.382812 321.964844 228.496094 330.613281 Z M 228.496094 330.613281 " fill-opacity="0.3" fill-rule="nonzero"/><path fill="#f9f6c3" d="M 189.539062 321.222656 L 189.539062 315.78125 C 185.703125 315.609375 181.984375 314.582031 179.800781 313.3125 L 181.527344 306.601562 C 183.9375 307.914062 187.316406 309.128906 191.039062 309.128906 C 194.304688 309.128906 196.542969 307.871094 196.542969 305.574219 C 196.542969 303.390625 194.714844 302.019531 190.46875 300.59375 C 184.335938 298.523438 180.15625 295.667969 180.15625 290.097656 C 180.15625 285.058594 183.707031 281.089844 189.839844 279.890625 L 189.839844 274.4375 L 195.457031 274.4375 L 195.457031 279.476562 C 199.292969 279.648438 201.875 280.449219 203.757812 281.363281 L 202.089844 287.84375 C 200.605469 287.214844 197.96875 285.886719 193.847656 285.886719 C 190.125 285.886719 188.925781 287.488281 188.925781 289.101562 C 188.925781 290.984375 190.9375 292.199219 195.800781 294.023438 C 202.617188 296.4375 205.367188 299.59375 205.367188 304.746094 C 205.367188 309.84375 201.761719 314.210938 195.171875 315.351562 L 195.171875 321.207031 Z M 189.539062 321.222656 " fill-opacity="1" fill-rule="nonzero"/><path fill="#fa9b27" d="M 38.289062 143.710938 C 38.460938 146.351562 38.730469 149.109375 39.085938 151.933594 C 44.5625 195.035156 71.425781 258.207031 116.304688 281.148438 C 116.304688 281.148438 117.65625 237.0625 132.402344 219.601562 C 132.746094 219.1875 133.113281 218.789062 133.472656 218.402344 C 133.472656 218.402344 131.074219 217.789062 127.195312 215.292969 C 127.183594 215.277344 127.183594 215.277344 127.183594 215.277344 C 118.128906 209.4375 101.003906 193.347656 87.269531 150.964844 C 86.96875 150.050781 86.671875 149.109375 86.371094 148.164062 C 85.402344 145.054688 84.433594 141.8125 83.476562 138.441406 C 83.476562 138.441406 95.398438 135.058594 91.71875 119.871094 C 91.148438 117.527344 90.066406 115.300781 88.566406 113.261719 C 88.554688 113.261719 88.554688 113.261719 88.554688 113.261719 C 80.3125 102.066406 59.636719 96.714844 44.460938 111.917969 C 42.910156 113.472656 41.640625 115.601562 40.667969 118.226562 C 38.359375 124.367188 37.574219 133.21875 38.289062 143.710938 Z M 38.289062 143.710938 " fill-opacity="1" fill-rule="nonzero"/><path fill="#000072" d="M 38.289062 143.710938 C 38.460938 146.351562 38.730469 149.109375 39.085938 151.933594 C 44.5625 195.035156 71.425781 258.207031 116.304688 281.148438 C 116.304688 281.148438 117.65625 237.0625 132.402344 219.601562 C 129.523438 217.160156 127.410156 215.449219 127.195312 215.292969 C 127.183594 215.277344 127.183594 215.277344 127.183594 215.277344 C 127.183594 215.277344 118.285156 221.886719 112.582031 234.921875 C 107.691406 246.101562 93.273438 249.082031 84.488281 240.617188 C 67.648438 224.398438 46.515625 194.675781 38.289062 143.710938 Z M 38.289062 143.710938 " fill-opacity="0.3" fill-rule="nonzero"/><path fill="#ffffff" d="M 39.085938 151.949219 C 65.910156 164.113281 80.355469 157.402344 87.285156 150.964844 C 86 146.996094 84.746094 142.824219 83.492188 138.441406 C 83.492188 138.441406 95.414062 135.058594 91.734375 119.871094 C 88.039062 104.679688 62.414062 93.929688 44.476562 111.917969 C 42.921875 113.472656 41.652344 115.601562 40.683594 118.226562 C 37.773438 125.921875 37.289062 137.859375 39.085938 151.949219 Z M 39.085938 151.949219 " fill-opacity="1" fill-rule="nonzero"/><path fill="#000072" d="M 86.386719 148.164062 C 85.417969 145.054688 84.445312 141.8125 83.492188 138.441406 C 83.492188 138.441406 95.414062 135.058594 91.734375 119.871094 C 91.164062 117.527344 90.078125 115.300781 88.582031 113.261719 C 88.566406 113.261719 88.566406 113.261719 88.566406 113.261719 C 88.566406 113.261719 90.691406 128.707031 73.28125 129.75 C 61.546875 130.449219 52.078125 127.421875 47.101562 125.351562 C 45.160156 124.539062 43.078125 126.164062 43.378906 128.25 C 44.546875 136.214844 51.351562 151.207031 86.386719 148.164062 Z M 86.386719 148.164062 " fill-opacity="0.3" fill-rule="nonzero"/><path fill="#000072" d="M 84.304688 140.828125 C 83.363281 141.15625 82.5625 141.382812 81.695312 141.613281 C 80.839844 141.828125 79.984375 142.011719 79.113281 142.183594 C 77.386719 142.496094 75.648438 142.726562 73.894531 142.839844 C 72.140625 142.96875 70.371094 142.984375 68.605469 142.855469 C 66.835938 142.742188 65.066406 142.511719 63.328125 142.125 C 59.847656 141.371094 56.453125 140.011719 53.488281 138 C 50.507812 136.042969 48.097656 133.175781 46.929688 129.878906 C 46.886719 129.761719 46.945312 129.621094 47.070312 129.578125 C 47.144531 129.550781 47.230469 129.5625 47.285156 129.605469 C 50.039062 131.691406 52.503906 133.589844 55.269531 135.03125 C 56.640625 135.757812 58.066406 136.359375 59.5625 136.789062 C 61.046875 137.214844 62.558594 137.585938 64.097656 137.773438 C 65.636719 137.972656 67.191406 138.070312 68.761719 138.085938 C 70.328125 138.101562 71.898438 138 73.464844 137.84375 C 75.035156 137.671875 76.605469 137.445312 78.144531 137.128906 C 78.914062 136.972656 79.683594 136.816406 80.453125 136.628906 C 81.195312 136.445312 82.007812 136.246094 82.648438 136.042969 L 82.722656 136.015625 C 84.046875 135.589844 85.460938 136.332031 85.871094 137.65625 C 86.300781 138.984375 85.601562 140.371094 84.304688 140.828125 Z M 84.304688 140.828125 " fill-opacity="1" fill-rule="nonzero"/><path fill="#000072" d="M 80.996094 138.042969 L 81.222656 136.246094 L 81.4375 134.375 C 81.566406 133.117188 81.667969 131.863281 81.707031 130.605469 C 81.738281 129.347656 81.722656 128.09375 81.652344 126.824219 C 81.566406 125.550781 81.394531 124.308594 81.136719 122.953125 L 81.136719 122.925781 C 81.09375 122.683594 81.253906 122.441406 81.496094 122.398438 C 81.636719 122.367188 81.78125 122.410156 81.894531 122.511719 C 82.964844 123.511719 83.761719 124.765625 84.390625 126.09375 C 84.988281 127.421875 85.402344 128.835938 85.6875 130.25 C 85.972656 131.660156 86.128906 133.089844 86.1875 134.515625 C 86.214844 135.230469 86.214844 135.945312 86.1875 136.660156 C 86.15625 137.386719 86.101562 138.058594 85.972656 138.855469 C 85.746094 140.226562 84.460938 141.15625 83.078125 140.941406 C 81.738281 140.726562 80.824219 139.484375 80.980469 138.144531 Z M 80.996094 138.042969 " fill-opacity="1" fill-rule="nonzero"/><path fill="#000072" d="M 64.78125 138.828125 L 65.011719 137.03125 L 65.226562 135.160156 C 65.351562 133.902344 65.453125 132.648438 65.496094 131.390625 C 65.523438 130.132812 65.511719 128.878906 65.4375 127.609375 C 65.351562 126.335938 65.183594 125.09375 64.925781 123.738281 L 64.925781 123.710938 C 64.882812 123.46875 65.039062 123.226562 65.28125 123.183594 C 65.425781 123.152344 65.566406 123.195312 65.679688 123.296875 C 66.75 124.296875 67.550781 125.550781 68.175781 126.878906 C 68.773438 128.207031 69.1875 129.621094 69.472656 131.035156 C 69.757812 132.449219 69.917969 133.875 69.972656 135.300781 C 70 136.015625 70 136.730469 69.972656 137.445312 C 69.945312 138.171875 69.886719 138.84375 69.757812 139.640625 C 69.53125 141.011719 68.246094 141.941406 66.863281 141.726562 C 65.523438 141.511719 64.613281 140.269531 64.769531 138.929688 Z M 64.78125 138.828125 " fill-opacity="1" fill-rule="nonzero"/><path fill="#000072" d="M 116.304688 283.675781 C 115.917969 283.675781 115.519531 283.589844 115.160156 283.402344 C 71.839844 261.261719 44.417969 202.386719 37.261719 157.058594 C 33.667969 134.273438 35.648438 117.1875 42.695312 110.132812 C 51.59375 101.226562 63.285156 97.96875 74.777344 101.210938 C 84.5625 103.964844 92.175781 111.046875 94.171875 119.285156 C 97.292969 132.148438 90.351562 137.785156 86.5 139.855469 C 106.050781 206.925781 133.898438 215.90625 134.183594 215.992188 C 135.011719 216.234375 135.652344 216.890625 135.894531 217.71875 C 136.136719 218.546875 135.9375 219.445312 135.367188 220.089844 C 119.652344 237.847656 118.828125 280.761719 118.828125 281.191406 C 118.8125 282.0625 118.355469 282.859375 117.613281 283.304688 C 117.203125 283.546875 116.757812 283.675781 116.304688 283.675781 Z M 66.109375 105.035156 C 58.894531 105.035156 51.921875 108.019531 46.257812 113.703125 C 40.542969 119.425781 39 135.730469 42.253906 156.273438 C 49.011719 199.132812 74.238281 254.351562 113.964844 277.023438 C 114.535156 266.058594 117.203125 236.121094 129.464844 219.433594 C 120.878906 215.007812 97.792969 198.074219 81.082031 139.144531 C 80.695312 137.800781 81.480469 136.417969 82.808594 136.03125 C 83.777344 135.746094 92.273438 132.804688 89.296875 120.46875 C 87.726562 113.988281 81.496094 108.335938 73.4375 106.066406 C 70.984375 105.367188 68.53125 105.035156 66.109375 105.035156 Z M 66.109375 105.035156 " fill-opacity="1" fill-rule="nonzero"/><path fill="#fa9b27" d="M 237.167969 297.808594 C 247.09375 321.277344 288.445312 312.613281 305.144531 282.804688 C 307.765625 278.105469 309.792969 272.894531 310.976562 267.199219 C 316.210938 242.117188 301.492188 217.078125 290.101562 203.714844 C 290.085938 203.699219 290.085938 203.699219 290.085938 203.699219 C 290.085938 203.699219 275.640625 218.089844 254.507812 225.429688 C 254.507812 225.429688 261.539062 234.050781 261.992188 251.78125 C 261.992188 251.78125 257.988281 253.867188 253.054688 257.636719 C 243.15625 265.214844 229.480469 279.648438 237.167969 297.808594 Z M 237.167969 297.808594 " fill-opacity="1" fill-rule="nonzero"/><path fill="#ffffff" d="M 282.441406 305.074219 C 264.476562 314.824219 243.796875 313.496094 237.167969 297.808594 C 229.054688 278.636719 244.769531 263.601562 254.707031 256.40625 C 268.097656 261.359375 291.382812 274.636719 282.441406 305.074219 Z M 282.441406 305.074219 " fill-opacity="1" fill-rule="nonzero"/><path fill="#000072" d="M 237.167969 297.808594 C 247.09375 321.277344 288.445312 312.613281 305.144531 282.804688 C 305.128906 282.789062 305.128906 282.789062 305.128906 282.789062 C 305.128906 282.789062 268.695312 311.699219 250.085938 291.625 C 237.667969 278.222656 246.09375 264.957031 253.066406 257.605469 C 243.15625 265.214844 229.480469 279.648438 237.167969 297.808594 Z M 237.167969 297.808594 " fill-opacity="0.3" fill-rule="nonzero"/><path fill="#000072" d="M 254.507812 225.398438 C 254.507812 225.398438 261.539062 234.023438 261.992188 251.753906 C 271.777344 245.328125 282.570312 244.515625 288.332031 244.628906 C 289.1875 244.644531 289.429688 243.445312 288.617188 243.144531 C 282.785156 240.988281 276.839844 240.890625 273.1875 241.117188 C 271.175781 241.246094 269.394531 239.902344 268.910156 237.960938 C 268.253906 235.378906 267.414062 233.207031 266.683594 231.59375 C 265.871094 229.8125 266.570312 227.683594 268.253906 226.699219 C 291.996094 212.664062 290.15625 204.054688 290.070312 203.699219 C 290.058594 203.683594 290.058594 203.683594 290.058594 203.683594 C 290.058594 203.683594 275.640625 218.074219 254.507812 225.398438 Z M 254.507812 225.398438 " fill-opacity="0.3" fill-rule="nonzero"/><path fill="#ffffff" d="M 300.851562 284.945312 C 303.476562 280.25 305.5 275.039062 306.683594 269.339844 C 311.789062 244.84375 297.871094 220.402344 286.605469 206.8125 C 288.859375 204.914062 290.085938 203.683594 290.085938 203.683594 C 290.085938 203.683594 290.085938 203.699219 290.101562 203.699219 C 301.492188 217.078125 316.210938 242.101562 310.976562 267.1875 C 309.792969 272.882812 307.765625 278.09375 305.144531 282.789062 C 298.828125 294.066406 288.988281 302.320312 278.648438 306.945312 C 287.363281 302.105469 295.417969 294.640625 300.851562 284.945312 Z M 300.851562 284.945312 " fill-opacity="0.7" fill-rule="nonzero"/><path fill="#000072" d="M 261.011719 249.453125 C 262.066406 249.097656 263.132812 248.753906 264.21875 248.425781 C 265.300781 248.097656 266.386719 247.785156 267.46875 247.484375 C 268.554688 247.171875 269.652344 246.886719 270.75 246.585938 C 271.863281 246.3125 272.972656 246.070312 274.199219 246.015625 C 274.300781 246.015625 274.371094 246.085938 274.371094 246.171875 C 274.371094 246.214844 274.355469 246.257812 274.328125 246.285156 C 273.53125 247.226562 272.632812 247.957031 271.703125 248.625 C 270.765625 249.285156 269.824219 249.941406 268.867188 250.554688 C 267.910156 251.183594 266.941406 251.78125 265.972656 252.367188 C 265.003906 252.953125 264.019531 253.507812 263.007812 254.050781 C 261.78125 254.707031 260.238281 254.238281 259.597656 253.007812 C 258.957031 251.78125 259.414062 250.253906 260.640625 249.597656 C 260.753906 249.554688 260.882812 249.484375 261.011719 249.453125 Z M 261.011719 249.453125 " fill-opacity="1" fill-rule="nonzero"/><path fill="#000072" d="M 234.445312 282.160156 C 235.683594 281.804688 237.023438 281.460938 238.335938 281.121094 L 242.285156 280.105469 C 243.613281 279.792969 244.910156 279.390625 246.25 279.078125 C 247.589844 278.765625 248.933594 278.449219 250.386719 278.25 L 250.402344 278.25 C 250.742188 278.207031 251.042969 278.449219 251.085938 278.777344 C 251.113281 278.964844 251.042969 279.148438 250.929688 279.277344 C 249.917969 280.363281 248.746094 281.261719 247.535156 282.03125 C 246.308594 282.804688 245.039062 283.460938 243.742188 284.089844 C 242.445312 284.703125 241.132812 285.257812 239.792969 285.757812 C 238.4375 286.246094 237.109375 286.703125 235.65625 287.03125 C 234.300781 287.34375 232.945312 286.5 232.632812 285.144531 C 232.320312 283.832031 233.105469 282.519531 234.386719 282.148438 Z M 234.445312 282.160156 " fill-opacity="1" fill-rule="nonzero"/><path fill="#000072" d="M 242.171875 303.21875 C 243.355469 302.90625 244.613281 302.589844 245.835938 302.304688 L 249.546875 301.421875 L 253.253906 300.492188 C 254.492188 300.191406 255.75 299.921875 257.117188 299.792969 L 257.132812 299.792969 C 257.386719 299.765625 257.628906 299.964844 257.660156 300.222656 C 257.671875 300.363281 257.628906 300.492188 257.546875 300.59375 C 256.617188 301.632812 255.519531 302.433594 254.378906 303.148438 C 253.238281 303.832031 252.070312 304.460938 250.886719 305.046875 C 249.703125 305.632812 248.488281 306.1875 247.277344 306.6875 C 246.050781 307.203125 244.839844 307.660156 243.542969 308.058594 C 242.214844 308.472656 240.804688 307.730469 240.390625 306.402344 C 239.976562 305.074219 240.71875 303.660156 242.042969 303.246094 C 242.074219 303.234375 242.117188 303.234375 242.144531 303.21875 Z M 242.171875 303.21875 " fill-opacity="1" fill-rule="nonzero"/><path fill="#000072" d="M 259.910156 313.769531 C 248.105469 313.769531 238.894531 308.328125 234.84375 298.777344 C 229.722656 286.6875 232.691406 274.265625 243.429688 262.859375 C 249.558594 256.351562 256.488281 251.996094 259.414062 250.3125 C 258.644531 234.808594 252.609375 227.070312 252.539062 226.984375 C 252.027344 226.339844 251.855469 225.5 252.082031 224.714844 C 252.3125 223.929688 252.894531 223.300781 253.679688 223.03125 C 273.972656 215.992188 288.160156 202.042969 288.304688 201.914062 C 288.800781 201.414062 289.5 201.160156 290.183594 201.1875 C 290.882812 201.214844 291.539062 201.53125 291.996094 202.070312 C 298.613281 209.839844 319.730469 237.519531 313.429688 267.714844 C 310.789062 280.347656 304.101562 291.539062 294.09375 300.105469 C 285.25 307.660156 274.242188 312.570312 263.875 313.582031 C 262.535156 313.699219 261.210938 313.769531 259.910156 313.769531 Z M 258.34375 226.683594 C 260.625 230.710938 264.191406 239.003906 264.519531 251.695312 C 264.546875 252.667969 264.019531 253.550781 263.164062 253.996094 C 262.820312 254.164062 229.039062 272.125 239.492188 296.808594 C 243.128906 305.402344 251.855469 309.6875 263.40625 308.542969 C 281.402344 306.789062 303.332031 291.496094 308.507812 266.65625 C 313.886719 240.859375 297.34375 216.675781 289.84375 207.339844 C 285.394531 211.324219 273.914062 220.660156 258.34375 226.683594 Z M 258.34375 226.683594 " fill-opacity="1" fill-rule="nonzero"/><path fill="#ffca22" d="M 228.726562 214.535156 C 228.726562 201.972656 218.730469 202.242188 218.730469 202.242188 C 229.152344 202.242188 228.726562 190.652344 228.726562 190.652344 C 228.726562 190.652344 228.070312 202.242188 238.722656 202.242188 C 238.738281 202.242188 228.726562 201.988281 228.726562 214.535156 Z M 228.726562 214.535156 " fill-opacity="1" fill-rule="nonzero"/><path fill="#ffca22" d="M 114.035156 240.191406 C 114.035156 232.09375 107.589844 232.265625 107.589844 232.265625 C 114.320312 232.265625 114.035156 224.800781 114.035156 224.800781 C 114.035156 224.800781 113.609375 232.265625 120.480469 232.265625 C 120.480469 232.25 114.035156 232.082031 114.035156 240.191406 Z M 114.035156 240.191406 " fill-opacity="1" fill-rule="nonzero"/><path fill="#ffca22" d="M 154.191406 211.9375 C 154.191406 205.941406 149.414062 206.070312 149.414062 206.070312 C 154.390625 206.070312 154.191406 200.53125 154.191406 200.53125 C 154.191406 200.53125 153.878906 206.070312 158.96875 206.070312 C 158.96875 206.070312 154.191406 205.941406 154.191406 211.9375 Z M 154.191406 211.9375 " fill-opacity="1" fill-rule="nonzero"/><path fill="#ffca22" d="M 267.382812 238.347656 C 267.382812 230.253906 260.9375 230.425781 260.9375 230.425781 C 267.667969 230.425781 267.382812 222.957031 267.382812 222.957031 C 267.382812 222.957031 266.957031 230.425781 273.828125 230.425781 C 273.828125 230.425781 267.382812 230.253906 267.382812 238.347656 Z M 267.382812 238.347656 " fill-opacity="1" fill-rule="nonzero"/></svg>