<svg xmlns="http://www.w3.org/2000/svg" xmlns:xlink="http://www.w3.org/1999/xlink" width="500" zoomAndPan="magnify" viewBox="0 0 375 374.999991" height="500" preserveAspectRatio="xMidYMid meet" version="1.0"><path fill="#ffb0ba" d="M 336.078125 177.34375 C 335.140625 178.210938 334.332031 179.191406 333.65625 180.277344 C 332.980469 181.363281 332.460938 182.519531 332.09375 183.742188 C 331.730469 184.96875 331.53125 186.222656 331.5 187.5 C 331.46875 188.777344 331.605469 190.039062 331.910156 191.28125 C 332.035156 191.757812 332.148438 192.238281 332.253906 192.722656 C 332.449219 193.621094 332.617188 194.523438 332.757812 195.433594 C 332.894531 196.339844 333.007812 197.253906 333.089844 198.167969 C 333.171875 199.082031 333.222656 200 333.246094 200.917969 C 333.269531 201.835938 333.265625 202.753906 333.230469 203.671875 C 333.195312 204.589844 333.132812 205.507812 333.039062 206.421875 C 332.949219 207.335938 332.828125 208.246094 332.675781 209.152344 C 332.527344 210.058594 332.347656 210.957031 332.140625 211.851562 C 331.933594 212.746094 331.695312 213.636719 331.433594 214.515625 C 331.167969 215.394531 330.878906 216.265625 330.558594 217.128906 C 330.242188 217.988281 329.894531 218.839844 329.523438 219.679688 C 329.148438 220.519531 328.75 221.347656 328.324219 222.160156 C 327.898438 222.976562 327.449219 223.773438 326.972656 224.558594 C 326.5 225.347656 325.996094 226.117188 325.472656 226.871094 C 324.949219 227.625 324.402344 228.359375 323.828125 229.078125 C 323.257812 229.800781 322.664062 230.5 322.046875 231.179688 C 321.433594 231.863281 320.796875 232.523438 320.136719 233.164062 C 319.480469 233.804688 318.804688 234.425781 318.105469 235.023438 C 317.410156 235.621094 316.695312 236.199219 315.960938 236.75 C 315.226562 237.304688 314.476562 237.832031 313.710938 238.335938 C 312.945312 238.84375 312.160156 239.324219 311.363281 239.777344 C 310.566406 240.234375 309.753906 240.664062 308.929688 241.066406 C 308.105469 241.472656 307.269531 241.847656 306.421875 242.199219 C 305.574219 242.550781 304.714844 242.875 303.84375 243.171875 C 302.976562 243.46875 302.097656 243.738281 301.210938 243.976562 C 300.324219 244.21875 299.433594 244.429688 298.535156 244.613281 C 297.632812 244.800781 296.730469 244.953125 295.820312 245.082031 C 294.910156 245.207031 293.996094 245.304688 293.082031 245.375 C 292.167969 245.445312 291.25 245.484375 290.332031 245.496094 C 289.414062 245.503906 288.496094 245.488281 287.578125 245.4375 C 286.660156 245.390625 285.746094 245.316406 284.835938 245.210938 C 283.921875 245.105469 283.015625 244.96875 282.113281 244.804688 C 281.207031 244.644531 280.308594 244.453125 279.417969 244.230469 C 278.15625 243.90625 276.871094 243.75 275.566406 243.765625 C 274.261719 243.785156 272.984375 243.972656 271.730469 244.332031 C 270.476562 244.691406 269.289062 245.210938 268.175781 245.886719 C 267.058594 246.5625 266.054688 247.375 265.15625 248.320312 C 263.8125 249.761719 262.375 251.105469 260.847656 252.347656 C 259.320312 253.59375 257.71875 254.730469 256.035156 255.753906 C 254.355469 256.78125 252.613281 257.6875 250.808594 258.476562 C 249.003906 259.265625 247.152344 259.929688 245.257812 260.46875 C 243.363281 261.003906 241.441406 261.410156 239.492188 261.6875 C 237.539062 261.960938 235.582031 262.105469 233.609375 262.113281 C 231.640625 262.121094 229.679688 261.996094 227.726562 261.738281 C 225.777344 261.480469 223.847656 261.089844 221.949219 260.570312 C 220.050781 260.050781 218.195312 259.402344 216.382812 258.628906 C 214.570312 257.855469 212.820312 256.964844 211.128906 255.953125 C 209.441406 254.941406 207.828125 253.820312 206.289062 252.585938 C 204.75 251.355469 203.304688 250.027344 201.945312 248.597656 C 200.589844 247.167969 199.335938 245.65625 198.1875 244.058594 C 197.035156 242.457031 195.996094 240.789062 195.074219 239.046875 C 194.148438 237.308594 193.347656 235.511719 192.667969 233.664062 C 191.988281 231.8125 191.4375 229.925781 191.011719 228.003906 C 190.894531 227.46875 190.792969 226.933594 190.695312 226.398438 C 190.5625 225.679688 190.375 224.972656 190.136719 224.28125 C 189.898438 223.589844 189.609375 222.921875 189.265625 222.273438 C 188.925781 221.628906 188.539062 221.007812 188.105469 220.421875 C 187.671875 219.832031 187.199219 219.277344 186.679688 218.761719 C 186.164062 218.242188 185.613281 217.769531 185.023438 217.335938 C 184.433594 216.902344 183.816406 216.511719 183.167969 216.171875 C 182.523438 215.832031 181.851562 215.542969 181.164062 215.304688 C 180.472656 215.0625 179.765625 214.878906 179.046875 214.746094 C 178.511719 214.648438 177.980469 214.535156 177.445312 214.417969 C 175.519531 213.996094 173.636719 213.445312 171.785156 212.765625 C 169.9375 212.082031 168.144531 211.28125 166.40625 210.359375 C 164.667969 209.433594 162.996094 208.394531 161.398438 207.246094 C 159.800781 206.09375 158.289062 204.839844 156.863281 203.480469 C 155.433594 202.125 154.105469 200.675781 152.875 199.136719 C 151.644531 197.601562 150.523438 195.984375 149.511719 194.292969 C 148.5 192.605469 147.609375 190.851562 146.835938 189.039062 C 146.0625 187.226562 145.417969 185.371094 144.894531 183.472656 C 144.375 181.570312 143.984375 179.644531 143.726562 177.691406 C 143.46875 175.738281 143.34375 173.777344 143.351562 171.804688 C 143.359375 169.835938 143.503906 167.875 143.777344 165.921875 C 144.050781 163.972656 144.457031 162.050781 144.996094 160.152344 C 145.53125 158.257812 146.191406 156.40625 146.980469 154.601562 C 147.769531 152.796875 148.675781 151.050781 149.703125 149.371094 C 150.726562 147.6875 151.859375 146.082031 153.105469 144.554688 C 154.347656 143.027344 155.691406 141.589844 157.128906 140.246094 C 159.253906 138.269531 160.640625 135.867188 161.292969 133.035156 C 161.847656 130.671875 161.828125 128.316406 161.238281 125.960938 C 161.050781 125.195312 160.875 124.425781 160.730469 123.640625 C 160.566406 122.761719 160.425781 121.878906 160.3125 120.992188 C 160.203125 120.105469 160.117188 119.21875 160.058594 118.324219 C 160.003906 117.433594 159.972656 116.539062 159.972656 115.644531 C 159.96875 114.753906 159.996094 113.859375 160.046875 112.96875 C 160.101562 112.074219 160.179688 111.183594 160.289062 110.296875 C 160.398438 109.410156 160.53125 108.527344 160.695312 107.648438 C 160.859375 106.769531 161.046875 105.894531 161.261719 105.027344 C 161.480469 104.160156 161.722656 103.300781 161.992188 102.449219 C 162.261719 101.597656 162.554688 100.753906 162.878906 99.917969 C 163.199219 99.085938 163.546875 98.261719 163.917969 97.449219 C 164.289062 96.636719 164.6875 95.835938 165.109375 95.046875 C 165.53125 94.261719 165.976562 93.484375 166.445312 92.726562 C 166.914062 91.964844 167.40625 91.21875 167.921875 90.488281 C 168.4375 89.757812 168.972656 89.042969 169.53125 88.347656 C 170.089844 87.652344 170.671875 86.972656 171.273438 86.308594 C 171.875 85.648438 172.496094 85.007812 173.136719 84.382812 C 173.777344 83.761719 174.433594 83.15625 175.113281 82.574219 C 175.789062 81.992188 176.484375 81.433594 177.199219 80.894531 C 177.910156 80.355469 178.640625 79.835938 179.382812 79.34375 C 180.128906 78.847656 180.886719 78.378906 181.660156 77.929688 C 182.433594 77.480469 183.21875 77.058594 184.019531 76.660156 C 184.820312 76.261719 185.628906 75.886719 186.453125 75.539062 C 187.273438 75.1875 188.109375 74.867188 188.949219 74.570312 C 189.792969 74.269531 190.644531 74 191.503906 73.753906 C 192.363281 73.511719 193.226562 73.292969 194.101562 73.101562 C 194.972656 72.910156 195.851562 72.746094 196.734375 72.605469 C 197.617188 72.46875 198.503906 72.359375 199.390625 72.277344 C 200.28125 72.195312 201.171875 72.140625 202.066406 72.113281 C 202.957031 72.085938 203.851562 72.085938 204.746094 72.113281 C 205.636719 72.140625 206.527344 72.195312 207.417969 72.277344 C 208.308594 72.359375 209.195312 72.46875 210.078125 72.605469 C 210.960938 72.742188 211.839844 72.90625 212.710938 73.097656 C 213.195312 73.203125 213.675781 73.320312 214.15625 73.441406 C 215.394531 73.746094 216.65625 73.886719 217.933594 73.855469 C 219.214844 73.824219 220.464844 73.625 221.691406 73.261719 C 222.917969 72.894531 224.074219 72.371094 225.160156 71.695312 C 226.246094 71.019531 227.222656 70.210938 228.089844 69.273438 C 229.460938 67.804688 230.925781 66.441406 232.484375 65.175781 C 234.042969 63.914062 235.683594 62.765625 237.402344 61.726562 C 239.117188 60.691406 240.898438 59.777344 242.746094 58.988281 C 244.589844 58.199219 246.480469 57.539062 248.414062 57.011719 C 250.351562 56.488281 252.316406 56.09375 254.304688 55.839844 C 256.296875 55.585938 258.292969 55.46875 260.300781 55.492188 C 262.304688 55.511719 264.300781 55.671875 266.285156 55.972656 C 268.269531 56.269531 270.222656 56.703125 272.148438 57.273438 C 274.070312 57.84375 275.945312 58.542969 277.773438 59.375 C 279.601562 60.203125 281.359375 61.15625 283.054688 62.230469 C 284.75 63.300781 286.363281 64.488281 287.894531 65.785156 C 289.425781 67.082031 290.859375 68.480469 292.199219 69.976562 C 293.535156 71.472656 294.761719 73.054688 295.878906 74.722656 C 297 76.386719 297.996094 78.125 298.875 79.929688 C 299.753906 81.734375 300.5 83.589844 301.121094 85.5 C 301.742188 87.410156 302.230469 89.351562 302.582031 91.328125 C 302.707031 92.039062 302.890625 92.734375 303.121094 93.414062 C 303.355469 94.097656 303.640625 94.757812 303.972656 95.394531 C 304.304688 96.035156 304.6875 96.644531 305.113281 97.226562 C 305.535156 97.804688 306.003906 98.351562 306.511719 98.863281 C 307.019531 99.375 307.5625 99.84375 308.144531 100.269531 C 308.722656 100.699219 309.332031 101.082031 309.96875 101.417969 C 310.605469 101.753906 311.261719 102.039062 311.941406 102.277344 C 312.625 102.511719 313.316406 102.699219 314.027344 102.828125 C 316 103.179688 317.941406 103.667969 319.847656 104.289062 C 321.753906 104.910156 323.609375 105.660156 325.414062 106.539062 C 327.214844 107.417969 328.949219 108.417969 330.613281 109.535156 C 332.28125 110.652344 333.859375 111.882812 335.355469 113.21875 C 336.851562 114.558594 338.246094 115.992188 339.542969 117.523438 C 340.835938 119.054688 342.023438 120.667969 343.09375 122.363281 C 344.167969 124.058594 345.117188 125.820312 345.949219 127.648438 C 346.777344 129.472656 347.476562 131.351562 348.046875 133.273438 C 348.613281 135.199219 349.050781 137.152344 349.347656 139.136719 C 349.648438 141.121094 349.808594 143.117188 349.832031 145.121094 C 349.851562 147.128906 349.738281 149.128906 349.484375 151.117188 C 349.230469 153.109375 348.839844 155.070312 348.3125 157.007812 C 347.785156 158.945312 347.128906 160.835938 346.34375 162.679688 C 345.554688 164.527344 344.644531 166.308594 343.609375 168.027344 C 342.574219 169.746094 341.425781 171.386719 340.164062 172.945312 C 338.902344 174.507812 337.539062 175.972656 336.078125 177.34375 Z M 336.078125 177.34375 " fill-opacity="1" fill-rule="nonzero"/><path fill="#f95d77" d="M 256.167969 216.757812 C 240.140625 216.757812 226.621094 210.078125 218.054688 197.917969 C 210.085938 186.597656 207.492188 171.496094 211.601562 160.328125 C 218.722656 141.003906 235.457031 129.675781 253.246094 132.140625 C 257.714844 132.757812 268.800781 135.113281 275.15625 143.558594 C 278.90625 148.535156 280.308594 154.597656 279.320312 161.613281 C 279.015625 163.605469 278.457031 165.527344 277.648438 167.371094 C 276.839844 169.21875 275.808594 170.929688 274.554688 172.507812 C 273.296875 174.082031 271.859375 175.472656 270.242188 176.671875 C 268.621094 177.871094 266.875 178.84375 265.003906 179.585938 C 258.402344 182.257812 251.566406 181.613281 246.71875 177.847656 C 246.496094 177.683594 246.289062 177.5 246.101562 177.292969 C 245.914062 177.089844 245.75 176.867188 245.609375 176.628906 C 245.464844 176.386719 245.347656 176.136719 245.253906 175.875 C 245.160156 175.613281 245.097656 175.34375 245.058594 175.066406 C 245.019531 174.792969 245.007812 174.515625 245.023438 174.238281 C 245.042969 173.960938 245.085938 173.6875 245.15625 173.417969 C 245.226562 173.148438 245.324219 172.890625 245.449219 172.640625 C 245.574219 172.390625 245.71875 172.15625 245.890625 171.933594 C 246.0625 171.714844 246.25 171.515625 246.460938 171.332031 C 246.671875 171.152344 246.898438 170.992188 247.140625 170.855469 C 247.382812 170.71875 247.636719 170.609375 247.902344 170.523438 C 248.167969 170.4375 248.4375 170.378906 248.714844 170.347656 C 248.992188 170.316406 249.269531 170.3125 249.546875 170.335938 C 249.824219 170.363281 250.09375 170.414062 250.363281 170.492188 C 250.628906 170.570312 250.882812 170.675781 251.128906 170.804688 C 251.375 170.9375 251.605469 171.089844 251.820312 171.265625 C 254.300781 173.183594 258.070312 173.40625 261.871094 171.863281 C 265.675781 170.320312 270.203125 166.460938 271.074219 160.433594 C 271.769531 155.660156 270.921875 151.785156 268.523438 148.628906 C 264.042969 142.683594 255.554688 140.925781 252.121094 140.453125 C 236.15625 138.238281 224.203125 150.316406 219.429688 163.265625 C 216.265625 171.78125 218.507812 184.078125 224.898438 193.105469 C 229.832031 200.105469 239.253906 208.382812 256.175781 208.382812 L 256.671875 208.382812 C 278.925781 208.175781 302.566406 190.445312 302.566406 158.007812 C 302.566406 126.570312 279.308594 103.746094 247.253906 103.746094 C 229.777344 103.746094 211.164062 114.550781 200.890625 130.632812 C 190.050781 147.640625 189.535156 168.753906 199.445312 190.078125 C 199.558594 190.328125 199.644531 190.582031 199.707031 190.847656 C 199.765625 191.109375 199.800781 191.378906 199.8125 191.648438 C 199.820312 191.921875 199.804688 192.191406 199.757812 192.457031 C 199.714844 192.726562 199.648438 192.988281 199.550781 193.242188 C 199.457031 193.496094 199.339844 193.738281 199.199219 193.972656 C 199.054688 194.203125 198.890625 194.417969 198.707031 194.617188 C 198.523438 194.816406 198.324219 194.996094 198.101562 195.15625 C 197.882812 195.316406 197.652344 195.453125 197.40625 195.566406 C 197.160156 195.683594 196.90625 195.769531 196.640625 195.835938 C 196.378906 195.902344 196.109375 195.9375 195.839844 195.953125 C 195.570312 195.964844 195.300781 195.949219 195.03125 195.910156 C 194.761719 195.871094 194.5 195.804688 194.246094 195.710938 C 193.988281 195.621094 193.746094 195.503906 193.511719 195.367188 C 193.28125 195.226562 193.0625 195.066406 192.859375 194.882812 C 192.660156 194.703125 192.476562 194.503906 192.316406 194.285156 C 192.152344 194.066406 192.011719 193.835938 191.894531 193.59375 C 180.742188 169.59375 181.441406 145.640625 193.875 126.15625 C 205.597656 107.765625 227.042969 95.410156 247.253906 95.410156 C 264.84375 95.410156 280.953125 101.660156 292.632812 113.070312 C 304.316406 124.480469 310.894531 140.515625 310.894531 158.007812 C 310.894531 195.808594 283 216.46875 256.757812 216.71875 Z M 256.167969 216.757812 " fill-opacity="1" fill-rule="nonzero"/><path fill="#ffd2d2" d="M 195.683594 175.605469 C 194.976562 175.476562 194.277344 175.292969 193.597656 175.058594 C 192.914062 174.824219 192.253906 174.539062 191.613281 174.203125 C 190.976562 173.867188 190.363281 173.488281 189.785156 173.058594 C 189.203125 172.632812 188.65625 172.160156 188.148438 171.652344 C 187.636719 171.140625 187.167969 170.59375 186.742188 170.011719 C 186.3125 169.429688 185.933594 168.820312 185.597656 168.179688 C 185.261719 167.539062 184.976562 166.878906 184.742188 166.195312 C 184.507812 165.511719 184.328125 164.816406 184.199219 164.105469 C 183.847656 162.128906 183.363281 160.183594 182.742188 158.273438 C 182.121094 156.363281 181.375 154.503906 180.496094 152.699219 C 179.617188 150.890625 178.621094 149.15625 177.5 147.488281 C 176.382812 145.816406 175.15625 144.234375 173.816406 142.738281 C 172.480469 141.238281 171.046875 139.839844 169.511719 138.542969 C 167.980469 137.246094 166.367188 136.058594 164.671875 134.984375 C 162.976562 133.910156 161.214844 132.957031 159.386719 132.125 C 157.558594 131.296875 155.679688 130.59375 153.753906 130.027344 C 151.832031 129.457031 149.875 129.023438 147.890625 128.722656 C 145.90625 128.425781 143.910156 128.265625 141.902344 128.242188 C 139.894531 128.222656 137.894531 128.339844 135.902344 128.59375 C 133.910156 128.851562 131.945312 129.242188 130.011719 129.769531 C 128.074219 130.300781 126.183594 130.960938 124.335938 131.75 C 122.492188 132.542969 120.710938 133.457031 118.992188 134.492188 C 117.273438 135.53125 115.632812 136.683594 114.074219 137.949219 C 112.515625 139.214844 111.050781 140.582031 109.679688 142.050781 C 108.8125 142.988281 107.832031 143.796875 106.746094 144.472656 C 105.660156 145.148438 104.507812 145.667969 103.28125 146.035156 C 102.054688 146.402344 100.804688 146.601562 99.523438 146.632812 C 98.246094 146.664062 96.984375 146.523438 95.742188 146.21875 C 95.273438 146.097656 94.785156 145.980469 94.300781 145.878906 C 93.402344 145.679688 92.5 145.511719 91.59375 145.371094 C 90.6875 145.234375 89.773438 145.121094 88.859375 145.039062 C 87.945312 144.957031 87.03125 144.90625 86.113281 144.882812 C 85.195312 144.859375 84.277344 144.863281 83.359375 144.898438 C 82.441406 144.933594 81.527344 144.996094 80.613281 145.089844 C 79.699219 145.179688 78.789062 145.300781 77.882812 145.453125 C 76.976562 145.601562 76.078125 145.78125 75.183594 145.988281 C 74.289062 146.195312 73.402344 146.433594 72.519531 146.695312 C 71.640625 146.960938 70.769531 147.25 69.910156 147.570312 C 69.050781 147.890625 68.199219 148.234375 67.359375 148.609375 C 66.519531 148.980469 65.695312 149.378906 64.878906 149.804688 C 64.066406 150.230469 63.265625 150.679688 62.480469 151.15625 C 61.695312 151.632812 60.925781 152.132812 60.171875 152.660156 C 59.417969 153.183594 58.683594 153.730469 57.964844 154.304688 C 57.246094 154.875 56.546875 155.46875 55.863281 156.085938 C 55.183594 156.703125 54.523438 157.339844 53.882812 157.996094 C 53.242188 158.65625 52.621094 159.332031 52.023438 160.03125 C 51.425781 160.726562 50.851562 161.441406 50.300781 162.175781 C 49.746094 162.910156 49.21875 163.660156 48.714844 164.429688 C 48.207031 165.195312 47.726562 165.976562 47.273438 166.777344 C 46.816406 167.574219 46.386719 168.386719 45.984375 169.210938 C 45.582031 170.035156 45.203125 170.871094 44.851562 171.722656 C 44.5 172.570312 44.179688 173.429688 43.882812 174.300781 C 43.585938 175.167969 43.316406 176.046875 43.078125 176.933594 C 42.835938 177.820312 42.625 178.714844 42.441406 179.613281 C 42.257812 180.515625 42.101562 181.417969 41.972656 182.328125 C 41.847656 183.238281 41.75 184.152344 41.683594 185.066406 C 41.613281 185.984375 41.574219 186.902344 41.5625 187.820312 C 41.550781 188.738281 41.570312 189.65625 41.617188 190.574219 C 41.667969 191.492188 41.742188 192.40625 41.847656 193.320312 C 41.953125 194.230469 42.089844 195.140625 42.253906 196.042969 C 42.414062 196.949219 42.605469 197.847656 42.828125 198.738281 C 43.15625 200.003906 43.308594 201.289062 43.292969 202.597656 C 43.277344 203.902344 43.085938 205.183594 42.726562 206.441406 C 42.367188 207.695312 41.847656 208.882812 41.171875 210 C 40.492188 211.117188 39.679688 212.125 38.730469 213.023438 C 37.292969 214.367188 35.949219 215.804688 34.703125 217.332031 C 33.460938 218.863281 32.324219 220.46875 31.296875 222.152344 C 30.269531 223.832031 29.363281 225.578125 28.574219 227.386719 C 27.785156 229.191406 27.121094 231.042969 26.585938 232.941406 C 26.050781 234.835938 25.644531 236.761719 25.367188 238.714844 C 25.09375 240.667969 24.953125 242.628906 24.941406 244.601562 C 24.933594 246.570312 25.0625 248.535156 25.320312 250.488281 C 25.578125 252.445312 25.96875 254.371094 26.488281 256.273438 C 27.011719 258.175781 27.660156 260.03125 28.433594 261.84375 C 29.207031 263.65625 30.101562 265.410156 31.113281 267.101562 C 32.125 268.792969 33.246094 270.40625 34.480469 271.945312 C 35.710938 273.484375 37.042969 274.933594 38.472656 276.289062 C 39.902344 277.648438 41.414062 278.902344 43.015625 280.050781 C 44.617188 281.203125 46.285156 282.238281 48.027344 283.164062 C 49.769531 284.085938 51.5625 284.886719 53.414062 285.566406 C 55.261719 286.246094 57.152344 286.796875 59.074219 287.21875 C 59.609375 287.335938 60.144531 287.441406 60.679688 287.535156 C 61.398438 287.671875 62.101562 287.859375 62.792969 288.101562 C 63.484375 288.339844 64.152344 288.632812 64.796875 288.972656 C 65.445312 289.3125 66.0625 289.703125 66.648438 290.136719 C 67.238281 290.570312 67.789062 291.046875 68.308594 291.5625 C 68.824219 292.078125 69.296875 292.632812 69.730469 293.222656 C 70.164062 293.808594 70.554688 294.429688 70.894531 295.074219 C 71.234375 295.722656 71.523438 296.390625 71.765625 297.082031 C 72.003906 297.773438 72.191406 298.476562 72.324219 299.195312 C 72.421875 299.722656 72.535156 300.257812 72.644531 300.792969 C 73.066406 302.71875 73.621094 304.605469 74.296875 306.457031 C 74.976562 308.304688 75.78125 310.101562 76.703125 311.839844 C 77.628906 313.582031 78.664062 315.25 79.816406 316.851562 C 80.964844 318.449219 82.21875 319.964844 83.578125 321.390625 C 84.933594 322.820312 86.378906 324.148438 87.917969 325.382812 C 89.457031 326.613281 91.070312 327.734375 92.757812 328.746094 C 94.449219 329.757812 96.199219 330.652344 98.011719 331.425781 C 99.824219 332.199219 101.679688 332.84375 103.578125 333.367188 C 105.476562 333.886719 107.40625 334.277344 109.355469 334.535156 C 111.308594 334.792969 113.269531 334.917969 115.242188 334.910156 C 117.210938 334.902344 119.167969 334.757812 121.121094 334.484375 C 123.070312 334.207031 124.992188 333.800781 126.886719 333.265625 C 128.78125 332.730469 130.632812 332.066406 132.4375 331.277344 C 134.242188 330.488281 135.984375 329.582031 137.667969 328.554688 C 139.347656 327.527344 140.953125 326.390625 142.480469 325.148438 C 144.007812 323.902344 145.441406 322.558594 146.785156 321.121094 C 147.683594 320.175781 148.691406 319.363281 149.804688 318.6875 C 150.921875 318.007812 152.105469 317.492188 153.359375 317.132812 C 154.613281 316.773438 155.890625 316.582031 157.195312 316.566406 C 158.496094 316.550781 159.78125 316.703125 161.042969 317.03125 C 161.933594 317.25 162.832031 317.441406 163.734375 317.605469 C 164.640625 317.769531 165.546875 317.902344 166.460938 318.007812 C 167.371094 318.113281 168.285156 318.191406 169.203125 318.238281 C 170.121094 318.285156 171.039062 318.304688 171.957031 318.296875 C 172.875 318.285156 173.792969 318.246094 174.707031 318.175781 C 175.625 318.105469 176.535156 318.007812 177.445312 317.882812 C 178.355469 317.757812 179.261719 317.601562 180.160156 317.417969 C 181.058594 317.234375 181.953125 317.019531 182.839844 316.78125 C 183.726562 316.539062 184.601562 316.269531 185.472656 315.972656 C 186.339844 315.675781 187.199219 315.351562 188.046875 315.003906 C 188.898438 314.652344 189.734375 314.273438 190.558594 313.871094 C 191.382812 313.464844 192.195312 313.035156 192.992188 312.582031 C 193.789062 312.125 194.570312 311.644531 195.339844 311.140625 C 196.105469 310.632812 196.855469 310.105469 197.589844 309.550781 C 198.324219 309 199.039062 308.425781 199.734375 307.828125 C 200.433594 307.226562 201.109375 306.609375 201.769531 305.96875 C 202.425781 305.324219 203.0625 304.664062 203.679688 303.984375 C 204.292969 303.300781 204.886719 302.601562 205.460938 301.882812 C 206.03125 301.164062 206.578125 300.425781 207.105469 299.671875 C 207.628906 298.917969 208.128906 298.148438 208.605469 297.363281 C 209.082031 296.578125 209.53125 295.777344 209.957031 294.960938 C 210.382812 294.148438 210.78125 293.320312 211.152344 292.480469 C 211.527344 291.640625 211.871094 290.789062 212.191406 289.929688 C 212.511719 289.066406 212.800781 288.195312 213.066406 287.316406 C 213.328125 286.4375 213.5625 285.546875 213.769531 284.652344 C 213.980469 283.757812 214.15625 282.859375 214.308594 281.949219 C 214.457031 281.042969 214.578125 280.132812 214.671875 279.21875 C 214.765625 278.304688 214.828125 277.390625 214.863281 276.472656 C 214.898438 275.554688 214.902344 274.636719 214.878906 273.71875 C 214.855469 272.796875 214.800781 271.882812 214.71875 270.964844 C 214.640625 270.050781 214.527344 269.140625 214.386719 268.230469 C 214.25 267.324219 214.082031 266.421875 213.882812 265.523438 C 213.773438 265.035156 213.660156 264.558594 213.535156 264.078125 C 213.230469 262.835938 213.09375 261.578125 213.125 260.296875 C 213.15625 259.019531 213.351562 257.765625 213.71875 256.542969 C 214.085938 255.316406 214.605469 254.160156 215.28125 253.074219 C 215.957031 251.988281 216.765625 251.011719 217.699219 250.140625 C 219.167969 248.769531 220.53125 247.304688 221.792969 245.746094 C 223.058594 244.1875 224.207031 242.546875 225.242188 240.828125 C 226.277344 239.109375 227.191406 237.328125 227.980469 235.484375 C 228.769531 233.636719 229.425781 231.746094 229.953125 229.808594 C 230.480469 227.875 230.875 225.910156 231.128906 223.917969 C 231.382812 221.929688 231.5 219.929688 231.480469 217.921875 C 231.457031 215.914062 231.296875 213.921875 231 211.933594 C 230.703125 209.949219 230.269531 207.996094 229.699219 206.070312 C 229.132812 204.144531 228.433594 202.269531 227.605469 200.441406 C 226.777344 198.613281 225.828125 196.851562 224.753906 195.15625 C 223.683594 193.457031 222.496094 191.84375 221.203125 190.3125 C 219.90625 188.78125 218.511719 187.34375 217.015625 186.007812 C 215.519531 184.667969 213.941406 183.4375 212.277344 182.320312 C 210.609375 181.199219 208.878906 180.199219 207.074219 179.320312 C 205.269531 178.441406 203.414062 177.691406 201.507812 177.070312 C 199.601562 176.445312 197.660156 175.960938 195.683594 175.605469 Z M 195.683594 175.605469 " fill-opacity="1" fill-rule="nonzero"/><path fill="#f95d77" d="M 137.828125 289.550781 C 121.800781 289.550781 108.277344 282.878906 99.722656 270.71875 C 91.746094 259.398438 89.148438 244.285156 93.257812 233.128906 C 100.378906 213.800781 117.113281 202.46875 134.902344 204.941406 C 139.375 205.558594 150.457031 207.910156 156.816406 216.355469 C 160.570312 221.335938 161.964844 227.398438 160.980469 234.410156 C 160.675781 236.40625 160.117188 238.324219 159.308594 240.171875 C 158.5 242.015625 157.46875 243.730469 156.210938 245.304688 C 154.957031 246.882812 153.519531 248.269531 151.898438 249.46875 C 150.28125 250.671875 148.535156 251.640625 146.660156 252.382812 C 140.0625 255.058594 133.230469 254.410156 128.378906 250.648438 C 128.164062 250.480469 127.964844 250.292969 127.785156 250.085938 C 127.605469 249.878906 127.449219 249.660156 127.3125 249.421875 C 127.175781 249.183594 127.066406 248.933594 126.980469 248.675781 C 126.890625 248.414062 126.832031 248.148438 126.796875 247.878906 C 126.761719 247.605469 126.753906 247.335938 126.773438 247.0625 C 126.792969 246.789062 126.839844 246.519531 126.910156 246.253906 C 126.980469 245.992188 127.078125 245.738281 127.199219 245.492188 C 127.324219 245.246094 127.46875 245.015625 127.636719 244.800781 C 127.804688 244.582031 127.988281 244.386719 128.195312 244.207031 C 128.402344 244.027344 128.625 243.867188 128.863281 243.734375 C 129.101562 243.597656 129.347656 243.484375 129.609375 243.398438 C 129.867188 243.3125 130.132812 243.25 130.40625 243.21875 C 130.675781 243.183594 130.949219 243.175781 131.222656 243.195312 C 131.496094 243.214844 131.761719 243.257812 132.027344 243.332031 C 132.289062 243.402344 132.546875 243.5 132.789062 243.621094 C 133.035156 243.746094 133.265625 243.890625 133.480469 244.058594 C 135.960938 245.980469 139.726562 246.203125 143.53125 244.660156 C 147.335938 243.121094 151.859375 239.257812 152.734375 233.230469 C 153.429688 228.460938 152.582031 224.585938 150.179688 221.425781 C 145.703125 215.472656 137.214844 213.722656 133.78125 213.246094 C 117.816406 211.03125 105.863281 223.113281 101.089844 236.066406 C 97.9375 244.632812 100.179688 256.933594 106.542969 265.972656 C 111.472656 272.972656 120.890625 281.253906 137.777344 281.253906 L 138.277344 281.253906 C 160.53125 281.035156 184.171875 263.308594 184.171875 230.878906 C 184.171875 199.433594 160.910156 176.613281 128.859375 176.613281 C 111.382812 176.613281 92.765625 187.417969 82.492188 203.503906 C 71.652344 220.507812 71.140625 241.621094 81.050781 262.941406 C 81.160156 263.1875 81.246094 263.441406 81.308594 263.707031 C 81.371094 263.972656 81.40625 264.238281 81.414062 264.511719 C 81.425781 264.78125 81.40625 265.050781 81.363281 265.320312 C 81.320312 265.585938 81.25 265.847656 81.15625 266.101562 C 81.0625 266.359375 80.941406 266.601562 80.800781 266.832031 C 80.660156 267.0625 80.496094 267.277344 80.3125 267.476562 C 80.128906 267.675781 79.925781 267.855469 79.707031 268.015625 C 79.488281 268.175781 79.253906 268.3125 79.007812 268.429688 C 78.761719 268.542969 78.507812 268.632812 78.246094 268.695312 C 77.980469 268.761719 77.714844 268.800781 77.441406 268.8125 C 77.171875 268.824219 76.902344 268.808594 76.632812 268.769531 C 76.367188 268.730469 76.105469 268.664062 75.847656 268.574219 C 75.59375 268.480469 75.347656 268.367188 75.117188 268.226562 C 74.882812 268.085938 74.667969 267.925781 74.464844 267.746094 C 74.261719 267.5625 74.082031 267.363281 73.917969 267.148438 C 73.757812 266.929688 73.617188 266.699219 73.5 266.453125 C 62.34375 242.460938 63.054688 218.535156 75.476562 199.023438 C 87.199219 180.632812 108.652344 168.28125 128.859375 168.28125 C 146.445312 168.28125 162.554688 174.53125 174.238281 185.941406 C 185.917969 197.347656 192.5 213.382812 192.5 230.878906 C 192.5 268.667969 164.605469 289.335938 138.359375 289.585938 Z M 137.828125 289.550781 " fill-opacity="1" fill-rule="nonzero"/></svg>