<svg xmlns="http://www.w3.org/2000/svg" xmlns:xlink="http://www.w3.org/1999/xlink" width="500" zoomAndPan="magnify" viewBox="0 0 375 374.999991" height="500" preserveAspectRatio="xMidYMid meet" version="1.0"><defs><clipPath id="b7f4564735"><path d="M 30 39 L 356 39 L 356 320.851562 L 30 320.851562 Z M 30 39 " clip-rule="nonzero"/></clipPath><clipPath id="cceda99f39"><path d="M 176.382812 149.9375 L 208.632812 149.9375 L 208.632812 197.9375 L 176.382812 197.9375 Z M 176.382812 149.9375 " clip-rule="nonzero"/></clipPath></defs><g clip-path="url(#b7f4564735)"><path fill="#ffb067" d="M 192.304688 320.769531 C 190.511719 320.769531 188.945312 320.4375 187.644531 319.785156 C 136.71875 294.277344 99.945312 266.964844 71.914062 233.828125 C 48.964844 206.703125 35.671875 178.839844 31.269531 148.644531 C 28.109375 126.96875 31.640625 104.785156 41.21875 86.1875 C 50.871094 67.4375 66.285156 53.085938 84.617188 45.78125 C 94.332031 41.910156 104.289062 39.945312 114.214844 39.945312 C 128.253906 39.945312 142.449219 43.851562 156.402344 51.558594 C 165.761719 56.726562 174.355469 62.953125 183.453125 69.542969 C 186.828125 71.988281 190.296875 74.5 193.851562 76.988281 C 207.394531 63.8125 221.875 53.976562 236.929688 47.726562 C 248.394531 42.964844 260.117188 40.550781 271.773438 40.550781 C 293.4375 40.550781 313.78125 48.980469 329.054688 64.289062 C 344.65625 79.925781 353.902344 101.871094 355.097656 126.085938 C 356.617188 156.914062 347.449219 186.429688 327.066406 216.316406 C 306.722656 246.148438 279.46875 271.292969 241.296875 295.441406 C 228.1875 303.730469 214.351562 311.167969 200.96875 318.363281 L 200.066406 318.847656 C 197.832031 320.050781 194.929688 320.769531 192.304688 320.769531 Z M 192.304688 320.769531 " fill-opacity="1" fill-rule="nonzero"/></g><path fill="#f8ecb5" d="M 324.386719 214.480469 C 301.996094 247.316406 272.351562 271.945312 239.5625 292.6875 C 226.261719 301.101562 212.371094 308.539062 198.53125 315.980469 C 195.886719 317.402344 191.574219 318.117188 189.097656 316.875 C 146.140625 295.359375 106.199219 269.324219 74.390625 231.726562 C 53.972656 207.589844 39.195312 180.488281 34.484375 148.175781 C 28.160156 104.816406 49.347656 63.339844 85.816406 48.804688 C 109.601562 39.328125 132.9375 42.316406 154.835938 54.410156 C 168.25 61.820312 180.398438 71.683594 194.214844 81.199219 C 206.382812 68.996094 220.988281 57.867188 238.171875 50.730469 C 293.621094 27.707031 348.804688 64.421875 351.851562 126.246094 C 353.484375 159.308594 342.375 188.101562 324.386719 214.480469 Z M 324.386719 214.480469 " fill-opacity="1" fill-rule="nonzero"/><path fill="#f1d86b" d="M 214.878906 137.800781 L 241.707031 143.101562 L 237.648438 50.960938 C 229.082031 54.566406 221.160156 59.164062 213.863281 64.390625 Z M 214.878906 137.800781 " fill-opacity="0.5" fill-rule="nonzero"/><path fill="#f1d86b" d="M 270.566406 181.859375 L 288.875 188.289062 L 298.269531 165.863281 L 274.226562 154.816406 Z M 270.566406 181.859375 " fill-opacity="0.5" fill-rule="nonzero"/><path fill="#f1d86b" d="M 203.527344 205.765625 L 243.816406 217.964844 L 246.519531 204.941406 L 206.714844 194.058594 Z M 203.527344 205.765625 " fill-opacity="1" fill-rule="nonzero"/><path fill="#f1d86b" d="M 143.777344 218.460938 L 111.714844 215.046875 L 113.394531 269.703125 C 121.902344 276.519531 130.730469 282.867188 139.824219 288.839844 L 176.0625 241.929688 Z M 143.777344 218.460938 " fill-opacity="0.5" fill-rule="nonzero"/><path fill="#f1d86b" d="M 33.550781 128.511719 L 87.5 132.558594 L 90.84375 104.199219 L 38.628906 100.679688 C 35.6875 109.457031 33.945312 118.835938 33.550781 128.511719 Z M 33.550781 128.511719 " fill-opacity="1" fill-rule="nonzero"/><path fill="#ff7077" d="M 255.90625 281.722656 C 270.324219 271.609375 283.363281 261.105469 295.792969 248.664062 L 296.359375 246.160156 L 272.316406 235.277344 Z M 255.90625 281.722656 " fill-opacity="1" fill-rule="nonzero"/><path fill="#f1d86b" d="M 167.96875 62.648438 L 179.484375 93.152344 L 166.269531 108.652344 L 146.84375 61.167969 L 159.195312 56.949219 C 159.195312 56.949219 165.589844 60.742188 167.96875 62.648438 Z M 167.96875 62.648438 " fill-opacity="1" fill-rule="nonzero"/><path fill="#f1d86b" d="M 174.464844 139.59375 L 212 143.515625 L 207.253906 171.636719 L 169.503906 166.214844 Z M 174.464844 139.59375 " fill-opacity="1" fill-rule="nonzero"/><path fill="#f1d86b" d="M 203.492188 262.507812 L 227.4375 280.085938 L 217.136719 305.890625 L 215.046875 306.589844 L 188.039062 286.640625 Z M 203.492188 262.507812 " fill-opacity="1" fill-rule="nonzero"/><path fill="#f1d86b" d="M 351.757812 133.964844 L 329.203125 177.976562 L 340.96875 185.019531 C 340.96875 185.019531 351.441406 163.15625 351.964844 135.988281 C 351.984375 135.007812 351.765625 134.960938 351.757812 133.964844 Z M 351.757812 133.964844 " fill-opacity="0.5" fill-rule="nonzero"/><path fill="#f1d86b" d="M 193.558594 80.734375 L 194.226562 81.207031 L 194.792969 80.605469 L 211.425781 77.960938 L 212.957031 120.644531 L 213.097656 143.101562 L 123.722656 136.265625 L 127.339844 106.554688 L 166.601562 109.625 L 189.988281 80.050781 Z M 193.558594 80.734375 " fill-opacity="0.5" fill-rule="nonzero"/><path fill="#f1d86b" d="M 297.859375 165.074219 L 331.53125 72.613281 C 318.714844 56.878906 300.699219 46.78125 280.554688 44.367188 L 283.449219 94.558594 L 274.050781 154.402344 Z M 297.859375 165.074219 " fill-opacity="0.5" fill-rule="nonzero"/><path fill="#f1d86b" d="M 251.5 224.078125 L 227.976562 278.847656 L 227.683594 279.511719 L 202.945312 262.785156 L 175.695312 243.539062 L 202.84375 206.710938 Z M 251.5 224.078125 " fill-opacity="0.5" fill-rule="nonzero"/><path fill="#f1d86b" d="M 75.484375 218.605469 L 65.078125 216.710938 L 64.605469 219.300781 C 67.109375 222.730469 69.726562 226.097656 72.453125 229.40625 L 73.488281 229.59375 Z M 75.484375 218.605469 " fill-opacity="1" fill-rule="nonzero"/><path fill="#f1d86b" d="M 99.359375 78.097656 L 94.765625 53.269531 L 74.980469 54.171875 C 74.714844 54.332031 74.445312 54.492188 74.179688 54.65625 L 73.394531 75.9375 Z M 99.359375 78.097656 " fill-opacity="1" fill-rule="nonzero"/><path fill="#f1d86b" d="M 142.097656 245.421875 L 150.605469 252.953125 L 157.394531 243.957031 L 148.625 237.46875 Z M 142.097656 245.421875 " fill-opacity="0.5" fill-rule="nonzero"/><path fill="#f1d86b" d="M 126.695312 263.308594 L 134.945312 271.210938 L 148.9375 253.582031 L 140.898438 246.675781 Z M 126.695312 263.308594 " fill-opacity="0.5" fill-rule="nonzero"/><path fill="#f1d86b" d="M 133.015625 244.6875 L 136.71875 247.984375 L 142.722656 241.601562 L 139.226562 238.410156 Z M 133.015625 244.6875 " fill-opacity="0.5" fill-rule="nonzero"/><path fill="#f1d86b" d="M 145.4375 154.472656 L 135.832031 152.65625 L 131.796875 182.507812 L 141.402344 183.625 Z M 145.4375 154.472656 " fill-opacity="0.5" fill-rule="nonzero"/><path fill="#f1d86b" d="M 324.332031 150.007812 L 311.941406 145.472656 L 306.023438 156.5625 L 317.996094 162.003906 Z M 324.332031 150.007812 " fill-opacity="0.5" fill-rule="nonzero"/><path fill="#f1d86b" d="M 310.339844 214.941406 L 321.894531 218.050781 C 322.734375 216.871094 323.566406 215.683594 324.386719 214.480469 C 326.039062 212.054688 327.636719 209.605469 329.167969 207.136719 L 318.414062 199.597656 Z M 310.339844 214.941406 " fill-opacity="0.5" fill-rule="nonzero"/><path fill="#f1d86b" d="M 165.769531 294.46875 L 160.800781 301.6875 C 163.078125 303.003906 165.367188 304.296875 167.667969 305.578125 L 172.234375 298.9375 Z M 165.769531 294.46875 " fill-opacity="1" fill-rule="nonzero"/><path fill="#ff7077" d="M 286.335938 146.867188 L 293.472656 150.484375 L 319.414062 79.078125 L 319.414062 60.105469 C 312.628906 54.816406 305.042969 50.707031 296.898438 47.933594 L 290.671875 48.867188 L 293.285156 94.914062 L 293.367188 96.492188 L 293.121094 97.394531 Z M 286.335938 146.867188 " fill-opacity="1" fill-rule="nonzero"/><path fill="#ff7077" d="M 133.429688 126.949219 L 161.933594 129.75 L 163.046875 115.734375 L 135.183594 113.425781 Z M 133.429688 126.949219 " fill-opacity="1" fill-rule="nonzero"/><path fill="#ff7077" d="M 159.410156 57.058594 C 159.410156 57.058594 156.988281 55.601562 154.835938 54.410156 C 151.039062 52.3125 147.195312 50.496094 143.316406 48.964844 L 148.753906 61.730469 Z M 159.410156 57.058594 " fill-opacity="1" fill-rule="nonzero"/><path fill="#ff7077" d="M 189.734375 79.960938 L 189 77.542969 C 180.140625 71.242188 166.367188 61.484375 166.367188 61.484375 L 179.925781 93.363281 Z M 189.734375 79.960938 " fill-opacity="1" fill-rule="nonzero"/><path fill="#ff7077" d="M 172.601562 131.070312 L 203.324219 132.804688 L 201.261719 88.695312 L 195.058594 89.453125 L 174.035156 114.910156 Z M 172.601562 131.070312 " fill-opacity="1" fill-rule="nonzero"/><path fill="#ff7077" d="M 235.207031 129.511719 L 231.820312 57.910156 L 221.652344 59.21875 C 221.613281 59.242188 221.574219 59.269531 221.535156 59.292969 L 225.539062 128.996094 Z M 235.207031 129.511719 " fill-opacity="1" fill-rule="nonzero"/><path fill="#ff7077" d="M 188.179688 287.199219 L 203.351562 262.089844 L 178.140625 244.117188 L 161.554688 265.519531 Z M 188.179688 287.199219 " fill-opacity="1" fill-rule="nonzero"/><path fill="#ff7077" d="M 252.628906 132.808594 C 258.132812 133.585938 263.480469 135.269531 268.464844 137.800781 L 274.332031 95.027344 L 271.871094 51.6875 L 246.96875 55.421875 L 250.617188 132.527344 Z M 252.628906 132.808594 " fill-opacity="1" fill-rule="nonzero"/><path fill="#ff7077" d="M 175.101562 240.5 L 195.511719 214.160156 C 199.199219 209.402344 201.675781 203.714844 202.679688 197.707031 L 208.226562 171 L 169.417969 165.746094 L 164.273438 193.90625 L 145.554688 218.695312 Z M 175.101562 240.5 " fill-opacity="1" fill-rule="nonzero"/><path fill="#ff7077" d="M 246.210938 155.304688 L 223.957031 152.171875 L 218.191406 186.703125 L 239.238281 192.644531 Z M 246.210938 155.304688 " fill-opacity="1" fill-rule="nonzero"/><path fill="#ff7077" d="M 106.261719 143.589844 L 41.230469 138.480469 L 41.230469 175.628906 C 43.597656 182.390625 46.425781 188.917969 49.664062 195.226562 L 99.105469 202.183594 Z M 106.261719 143.589844 " fill-opacity="1" fill-rule="nonzero"/><path fill="#f1d86b" d="M 233.9375 290.34375 L 242.671875 290.34375 L 260.632812 240.894531 L 256.074219 238.574219 Z M 233.9375 290.34375 " fill-opacity="1" fill-rule="nonzero"/><path fill="#ff7077" d="M 271.007812 182.066406 L 274.511719 156.40625 L 257.78125 147.925781 L 244.707031 217.929688 L 248.726562 219.285156 L 273.441406 231.863281 L 289.207031 188.457031 Z M 271.007812 182.066406 " fill-opacity="1" fill-rule="nonzero"/><path fill="#ff7077" d="M 207.960938 220.210938 C 207.34375 221.128906 206.695312 222.019531 206.023438 222.890625 L 191.703125 241.363281 L 224.046875 265.070312 L 238.785156 230.609375 Z M 207.960938 220.210938 " fill-opacity="1" fill-rule="nonzero"/><path fill="#ff7077" d="M 87.414062 132.769531 L 120.953125 135.007812 L 124.175781 106.636719 L 91.5625 103.554688 Z M 87.414062 132.769531 " fill-opacity="1" fill-rule="nonzero"/><path fill="#ff7077" d="M 110.714844 215.070312 L 110.820312 214.140625 L 55.566406 205.777344 C 58.363281 210.390625 61.398438 214.882812 64.609375 219.28125 L 65.078125 216.710938 L 75.484375 218.605469 L 73.488281 229.59375 L 72.464844 229.40625 C 73.101562 230.183594 73.742188 230.957031 74.390625 231.726562 C 85.785156 245.195312 98.230469 257.171875 111.476562 268 Z M 110.714844 215.070312 " fill-opacity="1" fill-rule="nonzero"/><path fill="#f1d86b" d="M 74.980469 54.171875 C 74.78125 54.292969 74.582031 54.414062 74.382812 54.535156 C 74.585938 54.410156 74.796875 54.296875 75 54.171875 Z M 74.980469 54.171875 " fill-opacity="0.5" fill-rule="nonzero"/><path fill="#ff7077" d="M 120.757812 43.496094 C 109.300781 42.472656 97.613281 44.105469 85.816406 48.804688 C 82.039062 50.3125 78.433594 52.117188 75 54.171875 L 94.09375 54.578125 L 97.109375 76.628906 L 74.945312 74.863281 L 74.179688 54.660156 C 63.207031 61.414062 54.085938 70.851562 47.269531 82.042969 L 129.390625 87.441406 Z M 120.757812 43.496094 " fill-opacity="1" fill-rule="nonzero"/><path fill="#ff7077" d="M 74.179688 54.65625 L 74.179688 54.660156 C 74.25 54.621094 74.316406 54.574219 74.382812 54.535156 C 74.316406 54.574219 74.25 54.613281 74.179688 54.65625 Z M 74.179688 54.65625 " fill-opacity="1" fill-rule="nonzero"/><path fill="#f1d86b" d="M 74.179688 54.65625 L 74.179688 54.660156 C 74.25 54.621094 74.316406 54.574219 74.382812 54.535156 C 74.316406 54.574219 74.25 54.613281 74.179688 54.65625 Z M 74.179688 54.65625 " fill-opacity="0.5" fill-rule="nonzero"/><path fill="#ff7077" d="M 141.011719 228.066406 L 124.339844 225.527344 L 125.105469 278.539062 C 127.035156 279.953125 128.980469 281.351562 130.941406 282.726562 L 161.554688 243.226562 Z M 141.011719 228.066406 " fill-opacity="1" fill-rule="nonzero"/><path fill="#ff7077" d="M 132.070312 146.441406 L 125.324219 205.867188 L 140.769531 208.203125 L 154.914062 189.445312 L 162.785156 149.035156 Z M 132.070312 146.441406 " fill-opacity="1" fill-rule="nonzero"/><path fill="#ff7077" d="M 312.777344 213.730469 L 318.320312 201.992188 L 329.164062 207.132812 C 330.847656 204.425781 332.457031 201.691406 333.984375 198.925781 L 302.632812 180.9375 L 285.617188 227.773438 L 305.890625 238.085938 C 312.480469 230.703125 318.671875 222.859375 324.386719 214.480469 C 323.566406 215.683594 322.734375 216.871094 321.894531 218.050781 Z M 312.777344 213.730469 " fill-opacity="1" fill-rule="nonzero"/><path fill="#f1d86b" d="M 160.800781 301.6875 C 161.125 301.875 161.457031 302.058594 161.78125 302.242188 C 161.457031 302.054688 161.128906 301.871094 160.804688 301.679688 Z M 160.800781 301.6875 " fill-opacity="0.5" fill-rule="nonzero"/><path fill="#ff7077" d="M 162.480469 279.074219 L 149.199219 294.75 C 153.027344 297.121094 156.898438 299.425781 160.804688 301.679688 L 165.769531 294.46875 L 172.234375 298.9375 L 167.667969 305.574219 C 174.710938 309.492188 181.859375 313.25 189.097656 316.875 C 191.574219 318.117188 195.886719 317.402344 198.53125 315.980469 C 200.414062 314.96875 202.296875 313.957031 204.175781 312.941406 L 206.730469 308.738281 Z M 162.480469 279.074219 " fill-opacity="1" fill-rule="nonzero"/><path fill="#f1d86b" d="M 351.851562 126.246094 C 350.804688 104.972656 343.582031 86.675781 332.300781 72.757812 L 316.761719 115.664062 L 350.238281 134.878906 C 350.671875 131.097656 352.074219 130.761719 351.851562 126.246094 Z M 351.851562 126.246094 " fill-opacity="0.5" fill-rule="nonzero"/><path fill="#ff7077" d="M 316.761719 115.664062 L 299.351562 163.738281 L 328.328125 178.425781 L 350.15625 135.796875 C 350.175781 135.46875 350.667969 134.449219 350.699219 134.160156 Z M 317.84375 160.988281 L 307.398438 156.460938 L 311.917969 145.996094 L 322.363281 150.523438 Z M 317.84375 160.988281 " fill-opacity="1" fill-rule="nonzero"/><path fill="#f1d86b" d="M 252.691406 205.257812 L 259.308594 186.007812 L 266.15625 188.371094 L 259.539062 207.621094 Z M 252.691406 205.257812 " fill-opacity="1" fill-rule="nonzero"/><path fill="#ffb067" d="M 99.292969 257.5 C 101.242188 259.273438 103.214844 261.015625 105.207031 262.734375 L 105.214844 257.515625 Z M 99.292969 257.5 " fill-opacity="1" fill-rule="nonzero"/><path fill="#ffffff" d="M 94.027344 239.808594 L 104.011719 240.296875 L 104.871094 220.707031 L 94.886719 220.21875 Z M 94.027344 239.808594 " fill-opacity="1" fill-rule="nonzero"/><path fill="#f1d86b" d="M 199.449219 106.8125 L 189.5 105.832031 L 188.480469 116.398438 L 198.429688 117.378906 Z M 199.449219 106.8125 " fill-opacity="1" fill-rule="nonzero"/><path fill="#ffb067" d="M 323.097656 113.449219 L 344.1875 124.042969 L 348.148438 114.191406 L 327.058594 103.601562 Z M 323.097656 113.449219 " fill-opacity="1" fill-rule="nonzero"/><path fill="#ffffff" d="M 340.644531 93.75 L 331.605469 89.765625 L 327.644531 99.613281 L 336.683594 103.601562 Z M 340.644531 93.75 " fill-opacity="1" fill-rule="nonzero"/><path fill="#ffb067" d="M 307.171875 99.277344 L 300.414062 96.296875 L 297.453125 103.660156 L 304.210938 106.640625 Z M 307.171875 99.277344 " fill-opacity="1" fill-rule="nonzero"/><path fill="#f8ecb5" d="M 252.363281 85.152344 L 271.65625 83.898438 L 272.105469 90.800781 L 252.8125 92.054688 Z M 252.363281 85.152344 " fill-opacity="1" fill-rule="nonzero"/><path fill="#ffffff" d="M 252.488281 69.269531 L 256.035156 69.039062 L 256.59375 77.683594 L 253.046875 77.914062 Z M 252.488281 69.269531 " fill-opacity="1" fill-rule="nonzero"/><path fill="#f8ecb5" d="M 307.476562 59.871094 L 316.757812 59.265625 L 317.464844 70.148438 L 308.183594 70.753906 Z M 307.476562 59.871094 " fill-opacity="1" fill-rule="nonzero"/><path fill="#ff7077" d="M 194.667969 164.007812 L 196.996094 147.847656 L 204.757812 148.972656 L 202.425781 165.132812 Z M 194.667969 164.007812 " fill-opacity="1" fill-rule="nonzero"/><path fill="#ffb067" d="M 159.535156 78.167969 L 166.972656 74.867188 L 174.511719 91.921875 L 167.074219 95.222656 Z M 159.535156 78.167969 " fill-opacity="1" fill-rule="nonzero"/><path fill="#f1d86b" d="M 81.347656 174.03125 L 90.492188 174.707031 L 91.722656 164.492188 L 82.421875 164.007812 Z M 81.347656 174.03125 " fill-opacity="1" fill-rule="nonzero"/><path fill="#f1d86b" d="M 61.109375 181.777344 L 70.257812 182.453125 L 71.484375 172.238281 L 62.183594 171.753906 Z M 61.109375 181.777344 " fill-opacity="1" fill-rule="nonzero"/><path fill="#ffb067" d="M 181.785156 303.644531 L 176.972656 310.632812 C 180.113281 312.296875 183.273438 313.925781 186.445312 315.535156 L 190.492188 309.660156 Z M 181.785156 303.644531 " fill-opacity="1" fill-rule="nonzero"/><path fill="#ffb067" d="M 325.976562 146.070312 L 330.496094 135.605469 L 340.941406 140.132812 L 336.421875 150.597656 Z M 325.976562 146.070312 " fill-opacity="1" fill-rule="nonzero"/><path fill="#ffb067" d="M 99.339844 56.078125 L 110.207031 56.347656 L 107.449219 43.519531 C 100.296875 44.1875 93.078125 45.914062 85.816406 48.804688 C 85.164062 49.066406 84.519531 49.335938 83.875 49.613281 L 98.3125 49.730469 Z M 99.339844 56.078125 " fill-opacity="1" fill-rule="nonzero"/><path fill="#ffb067" d="M 206.816406 232.296875 L 214.226562 235.773438 L 218.890625 228.578125 L 210.863281 225.695312 Z M 206.816406 232.296875 " fill-opacity="1" fill-rule="nonzero"/><path fill="#f1d86b" d="M 171.527344 189.738281 L 178.757812 191.566406 L 181.457031 174.15625 L 174.808594 172.855469 Z M 171.527344 189.738281 " fill-opacity="1" fill-rule="nonzero"/><path fill="#f1d86b" d="M 294.386719 220.8125 L 305.34375 197.613281 L 313.597656 201.523438 L 302.640625 224.726562 Z M 294.386719 220.8125 " fill-opacity="1" fill-rule="nonzero"/><path fill="#ffffff" d="M 110.921875 60.667969 L 99.917969 60.273438 L 102.585938 76.804688 L 114.578125 77.75 Z M 110.921875 60.667969 " fill-opacity="1" fill-rule="nonzero"/><path fill="#ffb067" d="M 224.503906 69.8125 L 230.058594 69.449219 L 231.066406 85.035156 L 225.511719 85.394531 Z M 224.503906 69.8125 " fill-opacity="1" fill-rule="nonzero"/><path fill="#ffffff" d="M 199.496094 179.269531 L 192.925781 177.625 L 190.789062 186.207031 L 197.960938 188.214844 Z M 199.496094 179.269531 " fill-opacity="1" fill-rule="nonzero"/><path fill="#ffb067" d="M 191.023438 78.976562 C 190.152344 78.363281 189.289062 77.75 188.429688 77.136719 L 189.257812 79.871094 L 179.863281 91.25 L 169.183594 63.386719 C 168.246094 62.742188 167.304688 62.109375 166.367188 61.484375 L 178.4375 92.972656 L 166.542969 107.371094 L 148.753906 61.730469 L 159.410156 57.058594 C 158.722656 56.644531 158.035156 56.234375 157.34375 55.832031 L 148.042969 59.910156 L 143.859375 49.179688 C 143.042969 48.851562 142.222656 48.535156 141.398438 48.230469 L 164.65625 107.894531 L 39.039062 99.445312 C 38.8125 100.078125 38.59375 100.714844 38.382812 101.355469 L 89.957031 104.828125 L 86.710938 131.722656 L 33.539062 127.199219 C 33.378906 130.074219 33.335938 132.980469 33.417969 135.90625 L 33.710938 129.171875 L 118.667969 136.402344 L 110.613281 207.367188 C 110.421875 209.0625 110.277344 210.773438 110.15625 212.484375 L 54.546875 204.066406 C 54.976562 204.792969 55.410156 205.515625 55.851562 206.238281 L 83.414062 210.410156 L 83.414062 241.855469 C 84.59375 243.117188 85.789062 244.363281 86.988281 245.597656 L 110.289062 253.015625 L 110.496094 267.199219 C 112.664062 268.984375 114.855469 270.746094 117.066406 272.472656 L 116.351562 222.679688 C 116.316406 220.265625 116.359375 217.839844 116.476562 215.417969 L 144.222656 219.617188 L 173.402344 241.152344 L 137.632812 287.304688 C 139.441406 288.515625 141.257812 289.707031 143.085938 290.886719 L 161.363281 267.300781 L 214.246094 307.472656 C 215.59375 306.730469 216.9375 305.984375 218.28125 305.234375 L 251.699219 227.082031 L 271.132812 236.96875 L 254.480469 282.804688 C 255.414062 282.15625 256.339844 281.507812 257.265625 280.851562 L 272.882812 237.859375 L 294.613281 248.914062 L 294.296875 250.214844 C 296.246094 248.308594 298.167969 246.363281 300.058594 244.386719 L 275.121094 231.695312 L 297.808594 169.234375 L 338.613281 189.914062 C 339.546875 187.945312 340.441406 185.96875 341.289062 183.972656 L 329.9375 178.222656 L 351.398438 135.5 L 351.96875 135.804688 C 352.046875 132.65625 352.011719 129.472656 351.851562 126.246094 C 351.800781 125.15625 351.726562 124.074219 351.640625 122.996094 L 350.183594 132.632812 L 317.484375 115.074219 L 332.679688 73.238281 C 332.207031 72.648438 331.726562 72.0625 331.242188 71.488281 L 298.296875 162.183594 L 276.410156 151.09375 L 284.800781 95.558594 L 284.816406 95.457031 L 281.917969 44.460938 C 281.265625 44.375 280.609375 44.304688 279.953125 44.234375 L 282.855469 95.367188 L 274.578125 150.175781 C 264.390625 145.136719 253.609375 141.660156 242.46875 139.824219 L 238.25 50.699219 C 238.222656 50.710938 238.199219 50.722656 238.171875 50.730469 C 237.554688 50.988281 236.949219 51.261719 236.335938 51.527344 L 240.5 139.523438 C 240.285156 139.492188 240.070312 139.453125 239.855469 139.421875 L 217.929688 136.335938 C 217.929688 135.441406 217.902344 134.546875 217.84375 133.65625 L 213.863281 64.390625 C 211.730469 65.921875 209.65625 67.503906 207.628906 69.128906 L 208.097656 77.300781 L 197.050781 78.425781 C 196.292969 79.152344 195.546875 79.882812 194.804688 80.617188 L 208.210938 79.253906 L 211.359375 134.050781 C 211.535156 136.804688 211.394531 139.578125 210.949219 142.296875 L 125.363281 135.011719 L 128.496094 107.417969 L 166.898438 110.003906 L 190.839844 81.023438 L 193.558594 80.746094 C 192.734375 80.175781 191.917969 79.605469 191.105469 79.03125 Z M 316.808594 116.929688 L 349.679688 134.578125 L 328.199219 177.339844 L 300.046875 163.074219 Z M 85.363281 243.03125 L 85.363281 210.707031 L 110.03125 214.441406 C 109.878906 217.21875 109.8125 220.003906 109.855469 222.773438 L 110.261719 250.957031 Z M 215.761719 306.167969 L 189.660156 286.34375 L 203.988281 263.582031 L 226.816406 280.3125 Z M 227.605469 278.46875 L 179.839844 243.460938 L 199.855469 217.632812 C 201.628906 215.34375 203.160156 212.871094 204.425781 210.257812 L 246.589844 224.484375 L 249.960938 226.195312 Z M 206.816406 204.195312 C 207.375 202.382812 207.816406 200.527344 208.128906 198.644531 L 208.707031 195.191406 L 245.46875 205.574219 L 243.417969 216.542969 Z M 275.386719 157.871094 L 296.058594 168.347656 L 289.296875 186.953125 L 271.878906 181.078125 Z M 272.636719 156.476562 L 273.554688 156.941406 L 269.707031 182.40625 L 288.632812 188.789062 L 273.371094 230.804688 L 249.324219 218.570312 L 249.113281 218.464844 L 245.285156 217.171875 L 257.777344 150.285156 C 262.855469 151.972656 267.820312 154.035156 272.636719 156.476562 Z M 217.34375 143.476562 C 217.378906 143.265625 217.410156 143.054688 217.445312 142.839844 L 238.949219 145.871094 C 244.707031 146.679688 250.375 147.957031 255.90625 149.683594 L 245.828125 203.648438 L 209.03125 193.253906 Z M 210.628906 144.230469 L 206.25 170.453125 L 170.304688 165.136719 L 174.960938 141.195312 Z M 88.652344 131.890625 L 91.90625 104.957031 L 122.007812 106.980469 L 118.886719 134.460938 Z M 116.601562 213.460938 C 116.722656 211.667969 116.867188 209.878906 117.070312 208.101562 L 125.144531 136.953125 L 173.003906 141.027344 L 162.863281 193.207031 L 144.414062 217.671875 Z M 146.148438 218.609375 L 164.554688 194.203125 L 164.6875 194.023438 L 169.933594 167.054688 L 186.859375 169.558594 L 180.914062 202.042969 L 162.574219 230.734375 Z M 164.148438 231.894531 L 182.65625 202.933594 L 182.761719 202.769531 L 188.789062 169.84375 L 205.929688 172.378906 L 201.722656 197.570312 C 200.742188 203.441406 198.320312 209 194.722656 213.640625 L 174.597656 239.609375 Z M 178.640625 245.003906 L 202.414062 262.425781 L 188.101562 285.160156 L 162.558594 265.757812 Z M 178.640625 245.003906 " fill-opacity="1" fill-rule="nonzero"/><path fill="#f8ecb5" d="M 71.511719 74.847656 L 71.101562 56.652344 C 67.375 59.199219 63.878906 62.070312 60.636719 65.21875 L 60.394531 73.953125 Z M 71.511719 74.847656 " fill-opacity="1" fill-rule="nonzero"/><path fill="#ffb067" d="M 258.964844 65.757812 L 270.433594 65.015625 L 271.355469 79.246094 L 259.886719 79.992188 Z M 258.964844 65.757812 " fill-opacity="1" fill-rule="nonzero"/><path fill="#ffffff" d="M 315.523438 219.070312 L 311.457031 217.15625 L 307.125 225.980469 L 311.242188 227.890625 Z M 315.523438 219.070312 " fill-opacity="1" fill-rule="nonzero"/><path fill="#ffffff" d="M 297.53125 77.082031 L 302.625 76.75 L 303.230469 86.050781 L 298.132812 86.382812 Z M 297.53125 77.082031 " fill-opacity="1" fill-rule="nonzero"/><path fill="#ffb067" d="M 177.320312 256.925781 L 173.21875 262.328125 L 186.886719 272.738281 L 191.71875 267.042969 Z M 177.320312 256.925781 " fill-opacity="1" fill-rule="nonzero"/><path fill="#f1d86b" d="M 296.027344 66.558594 L 305.308594 65.953125 L 305.640625 71.0625 L 296.359375 71.664062 Z M 296.027344 66.558594 " fill-opacity="1" fill-rule="nonzero"/><path fill="#f1d86b" d="M 254.953125 110.675781 L 264.234375 110.074219 L 264.9375 120.957031 L 255.65625 121.558594 Z M 254.953125 110.675781 " fill-opacity="1" fill-rule="nonzero"/><path fill="#ffb067" d="M 70.964844 111.757812 L 61.730469 111.167969 L 61.097656 121.160156 L 63.683594 121.324219 L 64.035156 115.773438 L 70.683594 116.199219 Z M 70.964844 111.757812 " fill-opacity="1" fill-rule="nonzero"/><path fill="#f8ecb5" d="M 73.160156 183.097656 L 89.390625 184.644531 L 90.355469 176.632812 L 73.910156 175.347656 Z M 73.160156 183.097656 " fill-opacity="1" fill-rule="nonzero"/><path fill="#ffffff" d="M 200.585938 241.839844 L 207.214844 245.921875 L 211.269531 239.660156 L 204.132812 236.058594 Z M 200.585938 241.839844 " fill-opacity="1" fill-rule="nonzero"/><path fill="#ffffff" d="M 184.292969 155.105469 L 185.5625 146.28125 L 195.152344 147.671875 L 193.882812 156.492188 Z M 184.292969 155.105469 " fill-opacity="1" fill-rule="nonzero"/><path fill="#ffffff" d="M 200.015625 285.800781 L 206.339844 276.605469 L 215.046875 282.621094 L 208.71875 291.816406 Z M 200.015625 285.800781 " fill-opacity="1" fill-rule="nonzero"/><path fill="#f8ecb5" d="M 333.460938 156.34375 L 324.96875 152.660156 L 321 161.851562 L 323.378906 162.882812 L 325.582031 157.777344 L 331.695312 160.425781 Z M 333.460938 156.34375 " fill-opacity="1" fill-rule="nonzero"/><path fill="#f1d86b" d="M 218.191406 238.347656 L 224.175781 241.226562 L 229.660156 233.300781 L 223.136719 230.886719 Z M 218.191406 238.347656 " fill-opacity="1" fill-rule="nonzero"/><path fill="#f1d86b" d="M 224.699219 167.390625 L 225.84375 159.449219 L 233.042969 160.492188 L 231.898438 168.433594 Z M 224.699219 167.390625 " fill-opacity="1" fill-rule="nonzero"/><path fill="#ffb067" d="M 262.039062 209.144531 L 268.585938 190.777344 L 276.9375 193.765625 L 270.390625 212.132812 Z M 262.039062 209.144531 " fill-opacity="1" fill-rule="nonzero"/><path fill="#ffffff" d="M 233.042969 175.15625 L 235.140625 160.613281 L 240.964844 161.457031 L 238.867188 176 Z M 233.042969 175.15625 " fill-opacity="1" fill-rule="nonzero"/><path fill="#ffb067" d="M 158.519531 215.863281 L 164.632812 220.140625 L 173.316406 204.816406 L 167.558594 201.242188 Z M 158.519531 215.863281 " fill-opacity="1" fill-rule="nonzero"/><path fill="#f1d86b" d="M 146.058594 168.152344 L 155.910156 169.640625 L 157.820312 156.796875 L 147.96875 155.3125 Z M 146.058594 168.152344 " fill-opacity="1" fill-rule="nonzero"/><path fill="#f8ecb5" d="M 54.96875 162.59375 L 71.199219 164.136719 L 72.164062 156.125 L 55.722656 154.84375 Z M 54.96875 162.59375 " fill-opacity="1" fill-rule="nonzero"/><path fill="#ffffff" d="M 71.566406 118.867188 L 68.242188 118.65625 L 68.007812 122.359375 L 77.980469 122.992188 L 78.039062 122.09375 L 78.195312 119.59375 L 78.378906 116.703125 L 71.730469 116.277344 Z M 71.566406 118.867188 " fill-opacity="1" fill-rule="nonzero"/><path fill="#ffffff" d="M 144.167969 181.515625 L 147.8125 182.027344 L 149.339844 172.339844 L 145.734375 171.8125 Z M 144.167969 181.515625 " fill-opacity="1" fill-rule="nonzero"/><path fill="#ffb067" d="M 99.625 124.832031 L 100.289062 115.941406 L 108.402344 116.546875 L 107.738281 125.4375 Z M 99.625 124.832031 " fill-opacity="1" fill-rule="nonzero"/><path fill="#ffffff" d="M 82.429688 162.238281 L 91.75 162.691406 L 92.390625 157.351562 L 82.992188 157.003906 Z M 82.429688 162.238281 " fill-opacity="1" fill-rule="nonzero"/><path fill="#ffffff" d="M 324.382812 134.097656 L 322.089844 133.105469 L 319.4375 131.953125 L 316.792969 138.082031 L 319.167969 139.109375 L 317.847656 142.175781 L 321.242188 143.644531 L 325.210938 134.457031 Z M 324.382812 134.097656 " fill-opacity="1" fill-rule="nonzero"/><path fill="#ffffff" d="M 318.101562 220.191406 L 319.773438 220.984375 C 318.035156 223.347656 316.257812 225.664062 314.445312 227.941406 Z M 318.101562 220.191406 " fill-opacity="0.5" fill-rule="nonzero"/><path fill="#ffb067" d="M 176.722656 161.320312 L 177.335938 157.039062 L 193.464844 159.375 L 192.847656 163.65625 Z M 176.722656 161.320312 " fill-opacity="1" fill-rule="nonzero"/><path fill="#f8ecb5" d="M 177.730469 154.332031 L 179 145.511719 L 183.882812 146.21875 L 182.613281 155.039062 Z M 177.730469 154.332031 " fill-opacity="1" fill-rule="nonzero"/><path fill="#ffb067" d="M 178.300781 128.25 L 178.960938 119.359375 L 198.28125 120.800781 L 197.617188 129.691406 Z M 178.300781 128.25 " fill-opacity="1" fill-rule="nonzero"/><path fill="#f1d86b" d="M 74.175781 173.5 L 78.433594 173.816406 L 80.179688 156.898438 L 75.804688 156.738281 Z M 74.175781 173.5 " fill-opacity="0.5" fill-rule="nonzero"/><path fill="#ff7077" d="M 44.546875 108.949219 L 36.347656 108.429688 C 35.433594 112.113281 34.722656 115.882812 34.226562 119.71875 L 43.824219 120.328125 Z M 44.546875 108.949219 " fill-opacity="1" fill-rule="nonzero"/><path fill="#ffb067" d="M 140.378906 181.742188 L 133.0625 180.636719 L 136.835938 155.25 L 144.152344 156.355469 Z M 140.378906 181.742188 " fill-opacity="1" fill-rule="nonzero"/><path fill="#ffb067" d="M 131 246.558594 L 135.585938 241.410156 L 137.871094 243.453125 L 133.285156 248.597656 Z M 131 246.558594 " fill-opacity="1" fill-rule="nonzero"/><path fill="#ffffff" d="M 135.878906 268 L 128.867188 262.015625 L 139.859375 248.644531 L 146.871094 254.625 Z M 135.878906 268 " fill-opacity="1" fill-rule="nonzero"/><path fill="#f1d86b" d="M 142.566406 245.539062 L 148.164062 238.648438 L 155.304688 244.46875 L 149.710938 251.363281 Z M 142.566406 245.539062 " fill-opacity="1" fill-rule="nonzero"/><path fill="#f1d86b" d="M 307.402344 156.460938 L 311.917969 145.996094 L 322.363281 150.523438 L 317.84375 160.988281 Z M 307.402344 156.460938 " fill-opacity="0.5" fill-rule="nonzero"/><g clip-path="url(#cceda99f39)"><path fill="#57b8ff" d="M 192.503906 149.9375 C 183.625 149.9375 176.429688 157.132812 176.429688 166.011719 C 176.429688 169.023438 177.257812 171.84375 178.703125 174.253906 L 192.503906 198.160156 L 206.316406 174.234375 C 207.753906 171.828125 208.578125 169.015625 208.578125 166.011719 C 208.578125 157.132812 201.382812 149.9375 192.503906 149.9375 Z M 192.503906 171.390625 C 189.535156 171.390625 187.125 168.980469 187.125 166.011719 C 187.125 163.039062 189.535156 160.632812 192.503906 160.632812 C 195.476562 160.632812 197.882812 163.039062 197.882812 166.011719 C 197.882812 168.980469 195.476562 171.390625 192.503906 171.390625 Z M 192.503906 171.390625 " fill-opacity="1" fill-rule="nonzero"/></g></svg>